/* XPM */
static const char * const artist_pix[] = {
/* width height num_colors chars_per_pixel */
"    16    16       25            1",
/* colors */
". c #000000",
"# c #808080",
"a c #553f00",
"b c #553f55",
"c c #555f55",
"d c #7f5f00",
"e c #7f5f55",
"f c #7f7f55",
"g c #aa7f00",
"h c #aa7f55",
"i c #aa9f55",
"j c #aa9faa",
"k c #aabf55",
"l c #aabfaa",
"m c #d49f55",
"n c #d4bf55",
"o c #d4bfaa",
"p c #d4dfaa",
"q c #d4dfff",
"r c #2a0000",
"s c #2a1f00",
"t c #2a3f00",
"u c #2a3f55",
"v c #a0a0a4",
"w c None",
/* pixels */
"wwwwwww..wwwwwww",
"www.rw.hnss.wwww",
"ww.ei.iimemo.www",
"ww.iidhadiftswww",
"wwwdgfimiadbwwww",
"w..dmhhgafoo.www",
".fihmiiidvoo.www",
"sohihtimhvfto.ww",
"w.aisoeddvoool.w",
"ww.nsooovooli#.w",
"w.#ihaooolooo.ww",
"w.oeicckootuu.ww",
"ww..ssojootqp#ww",
"wwwwwwsooloac.ww",
"wwwwwwwtsoooo.ww",
"wwwwwwwww....www"
};
