<?xml version="1.0" encoding="UTF-8" standalone="no"?>
<!-- Created with Inkscape (http://www.inkscape.org/) -->

<svg
   xmlns:dc="http://purl.org/dc/elements/1.1/"
   xmlns:cc="http://creativecommons.org/ns#"
   xmlns:rdf="http://www.w3.org/1999/02/22-rdf-syntax-ns#"
   xmlns:svg="http://www.w3.org/2000/svg"
   xmlns="http://www.w3.org/2000/svg"
   xmlns:sodipodi="http://sodipodi.sourceforge.net/DTD/sodipodi-0.dtd"
   xmlns:inkscape="http://www.inkscape.org/namespaces/inkscape"
   version="1.0"
   width="800"
   height="600"
   id="svg2"
   inkscape:version="0.48.4 r9939"
   sodipodi:docname="hd_1080.svg">
  <sodipodi:namedview
     pagecolor="#ffffff"
     bordercolor="#666666"
     borderopacity="1"
     objecttolerance="10"
     gridtolerance="10"
     guidetolerance="10"
     inkscape:pageopacity="0"
     inkscape:pageshadow="2"
     inkscape:window-width="640"
     inkscape:window-height="480"
     id="namedview3061"
     showgrid="false"
     inkscape:zoom="0.59552764"
     inkscape:cx="400"
     inkscape:cy="300"
     inkscape:window-x="0"
     inkscape:window-y="36"
     inkscape:window-maximized="0"
     inkscape:current-layer="svg2" />
  <metadata
     id="metadata12">
    <rdf:RDF>
      <cc:Work
         rdf:about="">
        <dc:format>image/svg+xml</dc:format>
        <dc:type
           rdf:resource="http://purl.org/dc/dcmitype/StillImage" />
        <dc:title />
      </cc:Work>
    </rdf:RDF>
  </metadata>
  <defs
     id="defs4">
    <inkscape:path-effect
       effect="bend_path"
       id="path-effect3534" />
  </defs>
  <g
     id="g3188"
     style="fill:#ffffff">
    <path
       d="m 54.40625,361.625 -49.78125,227 712,0 c 40.07091,0 72.37495,-32.30404 72.375,-72.375 L 789,434 c 0,-40.07091 -32.30414,-72.375 -72.375,-72.375 l -662.21875,0 z M 343.75,398.15625 c 12.71813,1.5e-4 22.66789,3.76052 29.875,11.25 7.34819,7.48976 11.03112,17.71801 11.03125,30.71875 -1.3e-4,10.73995 -1.74853,23.97051 -5.28125,39.65625 -3.39165,15.68588 -7.27564,28.32821 -11.65625,37.9375 -12.01177,25.86042 -30.59624,38.78125 -55.75,38.78125 -12.43565,0 -22.26178,-3.72912 -29.46875,-11.21875 -7.20702,-7.63093 -10.81252,-17.93661 -10.8125,-30.9375 -2e-5,-10.7398 1.7022,-23.89293 5.09375,-39.4375 3.3915,-15.54442 7.32168,-28.18675 11.84375,-37.9375 5.79382,-12.5768 13.43818,-22.20187 22.90625,-28.84375 9.46795,-6.6416 20.207,-9.9686 32.21875,-9.96875 z m 118.21875,0 c 12.43551,1.5e-4 22.54013,3.04866 30.3125,9.125 7.77213,6.07663 11.65612,13.92205 11.65625,23.53125 -1.3e-4,15.54462 -9.1144,28.54288 -27.34375,39 6.50032,3.95686 11.06492,8.07316 13.75,12.3125 2.68484,4.23948 4.03113,9.51594 4.03125,15.875 -1.2e-4,7.20705 -1.6249,14.57291 -4.875,22.0625 -3.25033,7.34834 -7.69131,13.6926 -13.34375,19.0625 C 464.2858,550.71273 449.2294,556.5 431,556.5 c -14.13142,0 -25.30384,-3.37319 -33.5,-10.15625 -8.19621,-6.78305 -12.28126,-15.97475 -12.28125,-27.5625 -10e-6,-21.05569 11.37346,-37.38095 34.125,-48.96875 -4.94602,-3.81539 -8.47408,-7.49832 -10.59375,-11.03125 -2.11974,-3.53275 -3.18753,-7.54036 -3.1875,-12.0625 -3e-5,-13.28337 5.50874,-24.65685 16.53125,-34.125 11.16372,-9.60919 24.47173,-14.43735 39.875,-14.4375 z m 117.75,0 c 12.71813,1.5e-4 22.69914,3.76052 29.90625,11.25 7.34819,7.48976 11.03112,17.71801 11.03125,30.71875 -1.3e-4,10.73995 -1.77978,23.97051 -5.3125,39.65625 -3.39165,15.68588 -7.27564,28.32821 -11.65625,37.9375 -12.01177,25.86042 -30.59624,38.78125 -55.75,38.78125 -12.43565,0 -22.26178,-3.72912 -29.46875,-11.21875 -7.20702,-7.63093 -10.81252,-17.93661 -10.8125,-30.9375 -2e-5,-10.7398 1.7022,-23.89293 5.09375,-39.4375 3.3915,-15.54442 7.35293,-28.18675 11.875,-37.9375 5.79382,-12.5768 13.40693,-22.20187 22.875,-28.84375 9.46795,-6.6416 20.207,-9.9686 32.21875,-9.96875 z m -350.78125,3.1875 19.71875,0 -32,150.28125 -29.6875,0 L 209,447.96875 l -36.03125,0 4.25,-19.6875 c 26.00166,1.2e-4 43.23984,-8.99052 51.71875,-26.9375 z m 109.09375,20.5625 c -7.34839,1.3e-4 -13.56903,4.03899 -18.65625,12.09375 -3.5329,5.65266 -7.33946,17.66056 -11.4375,36.03125 -3.95683,18.22954 -5.93755,32.49665 -5.9375,42.8125 -5e-5,5.36996 1.39243,9.68731 4.21875,12.9375 2.96753,3.25024 6.92896,4.87502 11.875,4.875 6.21773,2e-5 11.32439,-2.25919 15.28125,-6.78125 3.9567,-4.52201 7.40733,-12.01149 10.375,-22.46875 2.82618,-10.03322 5.28645,-21.1282 7.40625,-33.28125 2.11961,-12.2942 3.1874,-21.7644 3.1875,-28.40625 -10e-5,-5.3698 -1.47001,-9.68716 -4.4375,-12.9375 -2.96768,-3.25009 -6.92911,-4.87487 -11.875,-4.875 z m 118.84375,0 c -7.06576,1.3e-4 -13.08534,2.33677 -18.03125,7 -4.94604,4.52216 -7.40631,10.10837 -7.40625,16.75 -6e-5,4.80477 1.62472,8.68876 4.875,11.65625 3.39146,2.82637 7.75501,4.25009 13.125,4.25 7.48954,9e-5 13.86505,-2.33655 19.09375,-7 5.22851,-4.80457 7.84365,-10.59183 7.84375,-17.375 -10e-5,-4.52192 -1.85719,-8.20485 -5.53125,-11.03125 -3.53294,-2.82615 -8.17498,-4.24987 -13.96875,-4.25 z m 117.125,0 c -7.34839,1.3e-4 -13.56903,4.03899 -18.65625,12.09375 -3.5329,5.65266 -7.33946,17.66056 -11.4375,36.03125 -3.95683,18.22954 -5.93755,32.49665 -5.9375,42.8125 -5e-5,5.36996 1.42368,9.68731 4.25,12.9375 2.96753,3.25024 6.92896,4.87502 11.875,4.875 6.21773,2e-5 11.29314,-2.25919 15.25,-6.78125 3.9567,-4.52201 7.40733,-12.01149 10.375,-22.46875 2.82618,-10.03322 5.3177,-21.1282 7.4375,-33.28125 2.11961,-12.2942 3.1874,-21.7644 3.1875,-28.40625 -10e-5,-5.3698 -1.50126,-9.68716 -4.46875,-12.9375 -2.96768,-3.25009 -6.92911,-4.87487 -11.875,-4.875 z M 445,481.6875 c -8.19626,7e-5 -15.20619,3.09476 -21,9.3125 -5.6526,6.07655 -8.46879,13.56603 -8.46875,22.46875 -4e-5,4.94601 1.8258,9.06231 5.5,12.3125 3.81542,3.25024 8.64358,4.87502 14.4375,4.875 8.33744,2e-5 15.1925,-2.89361 20.5625,-8.6875 5.36983,-5.93514 8.03116,-13.50206 8.03125,-22.6875 -9e-5,-5.36986 -1.7485,-9.60979 -5.28125,-12.71875 -3.39161,-3.25015 -7.98746,-4.87493 -13.78125,-4.875 z"
       id="path2997"
       style="fill:#ffffff;fill-opacity:1;fill-rule:nonzero;stroke:none" />
    <g
       id="g3012"
       style="fill:#ffffff">
      <path
         d="M 132.98629,14.566162 C 109.49597,115.84245 86.068619,217.13158 62.654065,318.42299 c 37.875355,0 75.750715,0 113.626125,0 9.58203,-41.29619 19.30455,-78.60203 28.7636,-119.92252 l 90.94917,0 c -9.2447,39.9754 -18.54255,79.9403 -27.75264,119.92252 37.87536,0 75.75077,0 113.62613,0 23.94153,-103.32204 47.84619,-206.65136 71.5845,-310.0134867 -37.76838,0 -75.53672,0 -113.30511,0 -8.29458,35.6722997 -16.72821,71.3170257 -25.1101,106.9719567 l -90.94775,0 C 232.03598,81.049361 239.9574,42.749597 247.8647,8.4095033 c -37.82182,0 -75.64375,0 -113.46562,0 l -0.9138,3.9818907 -0.49899,2.174768 z"
         id="text3678"
         style="font-size:94.34880065999999488px;font-style:italic;font-variant:normal;font-weight:bold;font-stretch:normal;text-align:start;line-height:100%;text-anchor:start;fill:#ffffff;fill-opacity:1;stroke:none;font-family:Arial" />
      <path
         d="M 628.24229,8.1529736 C 588.8783,8.7660753 549.37633,8.2297857 509.96032,8.4095033 487.89426,111.91372 465.83685,215.42021 443.82473,318.93602 530.5549,318.38123 628.84159,326.09641 706.28016,292.8985 789.43472,243.35464 816.10006,132.47611 757.49494,53.558337 727.36991,19.029845 674.84315,5.7394656 628.24229,8.1529736 z m 5.05152,78.1126174 c 26.31051,-2.150474 50.94165,17.077159 48.90793,40.018289 6.53358,43.84239 -11.72428,98.883 -63.91868,112.23079 -16.59312,2.86375 -34.7267,2.50191 -52.24499,2.30874 10.88778,-51.26274 21.77531,-102.52549 32.66293,-153.788234 11.5845,0.0169 23.16582,0.31151 34.59281,-0.769585 z"
         id="text3682"
         style="font-size:94.34880065999999488px;font-style:italic;font-variant:normal;font-weight:bold;font-stretch:normal;text-align:start;line-height:100%;text-anchor:start;fill:#ffffff;fill-opacity:1;stroke:none;font-family:Arial" />
    </g>
  </g>
</svg>
