/* XPM */
static const char * const cd_pix[] = {
/* columns rows colors chars-per-pixel */
"16 16 8 1",
"  c Gray0",
". c #7b797b",
"X c Green",
"o c Cyan",
"O c Yellow",
"+ c #bdbebd",
"@ c None",
"# c Gray100",
/* pixels */
"@@@@@@@@@@@@  @@",
"@@@@@@@@@@@@   @",
"@@@@@.....@@    ",
"@@@..OO+++.. +  ",
"@@.oOOO+++++ ++ ",
"@.XooOO++++  .+ ",
".++XXoO++#   ++ ",
".+++Xo...+++++  ",
".++++X.#.++++   ",
".++++X.#.+++++.@",
".++++#...o++++.@",
".+++#++#XOo+++.@",
"@.+#++++XOoo+.@@",
"@@.+++++XXOO.@@@",
"@@@..+++XX..@@@@",
"@@@@@.....@@@@@@",
};
