/* XPM */
static const char * const favorites_pix[] = {
/* width height num_colors chars_per_pixel */
"    16    16       31            1",
/* colors */
". c #000000",
"# c #000080",
"a c #808080",
"b c #c0dcc0",
"c c #a6caf0",
"d c #2a5f55",
"e c #2a7f55",
"f c #2a7faa",
"g c #553f55",
"h c #555f55",
"i c #555faa",
"j c #557f55",
"k c #559faa",
"l c #559fff",
"m c #55bfff",
"n c #7f9faa",
"o c #7f9fff",
"p c #aa9faa",
"q c #aabfaa",
"r c #d4bf55",
"s c #d4bfaa",
"t c #d4dfaa",
"u c #d4dfff",
"v c #ffbfaa",
"w c #ffdfaa",
"x c #2a1f00",
"y c #2a1f55",
"z c #2a3f00",
"A c #2a3f55",
"B c None",
"C c #ffffff",
/* pixels */
"BBBBBBBBBBBBBBBB",
"BBBBBBBBBBBBBBBB",
"B....BBBBBBBBBBB",
".CCCba.........B",
".CCCC.twttwttts.",
".....twwttw..ts.",
".wttwbnqqvb.s...",
".ttvuucn#r..t.s.",
".wsccqahe#ww..s.",
".twolahddzwbsws.",
".bwffajdzgtwwbs.",
".wbfhhgzkmtwwvs.",
".tvqyAzxktvbbws.",
".ssspiAhqqssvqs.",
"a..............a",
"BBBBBBBBBBBBBBBB"
};
