/* XPM */
static const char * const nextfile_pix[]={
"33 33 2 1",
". c None",
"# c #000000",
".................................",
".................................",
".................................",
".................................",
".................................",
".................................",
".................................",
".................................",
"................................#",
"................................#",
"................................#",
"............###................##",
"..###.......######.............##",
".....###.......######..........##",
"......#####.....########.......##",
".......######....##########....##",
".......#######...#############.##",
".......#######...################",
".......#######...#############.##",
".......######....##########....##",
"......#####.....########.......##",
".....###.......######..........##",
"..###.......######..............#",
"............###.................#",
"................................#",
"................................#",
".................................",
".................................",
".................................",
".................................",
".................................",
".................................",
"................................."};
