/* XPM */
static char * playlist_active_pix_xpm[] = {
"16 16 2 1",
" 	c None",
".	c #FF0000",
"                ",
"                ",
"                ",
"          .     ",
"          ..    ",
"          ...   ",
"   ...........  ",
"   ............ ",
"   ...........  ",
"          ...   ",
"          ..    ",
"          .     ",
"                ",
"                ",
"                ",
"                "};
