/* XPM */
static char * rateup_pix[] = {
"33 33 88 1",
" 	g None",
".	g #A8A8A8",
"+	g #242424",
"@	g #969696",
"#	g #0B0B0B",
"$	g #000000",
"%	g #6B6B6B",
"&	g #7C7C7C",
"*	g #C2C2C2",
"=	g #B6B6B6",
"-	g #4A4A4A",
";	g #868686",
">	g #A4A4A4",
",	g #D1D1D1",
"'	g #DCDCDC",
")	g #AEAEAE",
"!	g #7B7B7B",
"~	g #DADADA",
"{	g #494949",
"]	g #939393",
"^	g #616161",
"/	g #AAAAAA",
"(	g #8E8E8E",
"_	g #929292",
":	g #E4E4E4",
"<	g #181818",
"[	g #585858",
"}	g #9F9F9F",
"|	g #4B4B4B",
"1	g #CDCDCD",
"2	g #6A6A6A",
"3	g #9B9B9B",
"4	g #D3D3D3",
"5	g #6D6D6D",
"6	g #696969",
"7	g #E1E1E1",
"8	g #B4B4B4",
"9	g #777777",
"0	g #656565",
"a	g #606060",
"b	g #797979",
"c	g #828282",
"d	g #D0D0D0",
"e	g #CFCFCF",
"f	g #686868",
"g	g #737373",
"h	g #A6A6A6",
"i	g #727272",
"j	g #ACACAC",
"k	g #B7B7B7",
"l	g #8A8A8A",
"m	g #A2A2A2",
"n	g #C7C7C7",
"o	g #BDBDBD",
"p	g #E3E3E3",
"q	g #B3B3B3",
"r	g #313131",
"s	g #787878",
"t	g #D5D5D5",
"u	g #ABABAB",
"v	g #4C4C4C",
"w	g #838383",
"x	g #7F7F7F",
"y	g #DDDDDD",
"z	g #8B8B8B",
"A	g #7A7A7A",
"B	g #E0E0E0",
"C	g #9D9D9D",
"D	g #909090",
"E	g #B2B2B2",
"F	g #E5E5E5",
"G	g #BABABA",
"H	g #888888",
"I	g #6F6F6F",
"J	g #A5A5A5",
"K	g #858585",
"L	g #959595",
"M	g #8F8F8F",
"N	g #BFBFBF",
"O	g #646464",
"P	g #9C9C9C",
"Q	g #C0C0C0",
"R	g #707070",
"S	g #C4C4C4",
"T	g #CECECE",
"U	g #BCBCBC",
"V	g #3E3E3E",
"W	g #6E6E6E",
"                                 ",
"      .+@                        ",
"      #$$% &*                    ",
"      $$$$= -;         >,        ",
"      $$$$  --    ')!$$$$!~      ",
"      $$$$  {   ]^$$$$$$$$$/     ",
"     $$$$$    ($$$$$$$$$$$$$_    ",
"     $$$$$   :<$$$$$$$[  $$$$}   ",
"     $$$$$> |1$$$$$234~   $$$$   ",
"     $$$$$$ $5$$6  789$$#  0$$   ",
"     $$$$$$$$a     $$$$$$$b c$d  ",
"     $$$$$$$$4  $$$$$$$$$$$+     ",
"     $$$$$$$a $$$$$$$$  $$$$$e   ",
"     $$$$$$$f $$$$$g    h$$$$>   ",
"     $$$$$$$$&$$ij kc<$l e0$$m   ",
"    #$$$$$$$$%h nl$$$$$$$j  $o   ",
"    $$$$$$$$$p  $$$$$$$$$$       ",
"    $$$$$$$$| $$$$$$$$$$$$$$q    ",
"    $$$$$$$$r $$$$$s tu<$$$$v    ",
"    $$$$$$$$$w$$x ynzA p $$$     ",
"    $$$$$$$$$6) t ^$$$$9  f$     ",
"    $$$$$$$$$BC2$$$$$$$$$  D     ",
"    |$$$$$$$< $$$$$$+$$$$$[      ",
"     $$$$$$$$E$$$!   4;$$$$%     ",
"     $$$$$$$$$s F   $6 G#$$$     ",
"     $$$$$$$$w  i$$$$$$H I$$     ",
"     $$$$$$$$$Jo$$$$K0$$6 g$     ",
"     i$$$$$$$$$gqLbMN8$$$O M     ",
"      $$$$$$$$iPQ CR$$$$$i       ",
"       g$$R3ST/A$$$$$<HU         ",
"          8 V$$$$$W              ",
"         i$$$$$w                 ",
"           o8,                   "};
