/* XPM */
static char * ratedn_pix[] = {
"33 33 88 1",
" 	g None",
".	g #D1D1D1",
"+	g #B4B4B4",
"@	g #BDBDBD",
"#	g #838383",
"$	g #000000",
"%	g #727272",
"&	g #6E6E6E",
"*	g #3E3E3E",
"=	g #BCBCBC",
"-	g #888888",
";	g #181818",
">	g #7A7A7A",
",	g #AAAAAA",
"'	g #CECECE",
")	g #C4C4C4",
"!	g #9B9B9B",
"~	g #707070",
"{	g #737373",
"]	g #9D9D9D",
"^	g #C0C0C0",
"/	g #9C9C9C",
"(	g #8F8F8F",
"_	g #646464",
":	g #BFBFBF",
"<	g #797979",
"[	g #959595",
"}	g #B3B3B3",
"|	g #696969",
"1	g #656565",
"2	g #858585",
"3	g #A5A5A5",
"4	g #6F6F6F",
"5	g #0B0B0B",
"6	g #BABABA",
"7	g #E5E5E5",
"8	g #787878",
"9	g #6B6B6B",
"0	g #868686",
"a	g #D3D3D3",
"b	g #7B7B7B",
"c	g #B2B2B2",
"d	g #585858",
"e	g #242424",
"f	g #4B4B4B",
"g	g #909090",
"h	g #6A6A6A",
"i	g #E0E0E0",
"j	g #686868",
"k	g #777777",
"l	g #616161",
"m	g #D5D5D5",
"n	g #AEAEAE",
"o	g #E3E3E3",
"p	g #8B8B8B",
"q	g #C7C7C7",
"r	g #DDDDDD",
"s	g #7F7F7F",
"t	g #4C4C4C",
"u	g #ABABAB",
"v	g #313131",
"w	g #ACACAC",
"x	g #8A8A8A",
"y	g #A6A6A6",
"z	g #A2A2A2",
"A	g #CFCFCF",
"B	g #828282",
"C	g #B7B7B7",
"D	g #7C7C7C",
"E	g #A4A4A4",
"F	g #606060",
"G	g #D0D0D0",
"H	g #E1E1E1",
"I	g #6D6D6D",
"J	g #DADADA",
"K	g #CDCDCD",
"L	g #9F9F9F",
"M	g #E4E4E4",
"N	g #929292",
"O	g #8E8E8E",
"P	g #939393",
"Q	g #494949",
"R	g #DCDCDC",
"S	g #4A4A4A",
"T	g #B6B6B6",
"U	g #C2C2C2",
"V	g #969696",
"W	g #A8A8A8",
"                   .+@           ",
"                 #$$$$$%         ",
"              &$$$$$* +          ",
"         =-;$$$$$>,')!~$${       ",
"       %$$$$$~] ^/%$$$$$$$$      ",
"     ( _$$$+:(<[}{$$$$$$$$$%     ",
"     ${ |$$12$$$$@3$$$$$$$$$     ",
"     $$4 -$$$$$$%  #$$$$$$$$     ",
"     $$$56 |$   7 8$$$$$$$$$     ",
"     9$$$$0a   b$$$c$$$$$$$$     ",
"      d$$$$$e$$$$$$ ;$$$$$$$f    ",
"     g  $$$$$$$$$h]i$$$$$$$$$    ",
"     $j  k$$$$l m n|$$$$$$$$$    ",
"     $$$ o >pqr s$$#$$$$$$$$$    ",
"    t$$$$;um 8$$$$$ v$$$$$$$$    ",
"    }$$$$$$$$$$$$$$ f$$$$$$$$    ",
"       $$$$$$$$$$  o$$$$$$$$$    ",
"   @$  w$$$$$$$xq y9$$$$$$$$5    ",
"   z$$1A x$;BC w%$$D$$$$$$$$     ",
"   E$$$$y    {$$$$$ j$$$$$$$     ",
"   A$$$$$  $$$$$$$$ F$$$$$$$     ",
"     e$$$$$$$$$$$  a$$$$$$$$     ",
"  G$B <$$$$$$$     F$$$$$$$$     ",
"   $$1  5$$k+H  |$$I$ $$$$$$     ",
"   $$$$   Ja!h$$$$$Kf E$$$$$     ",
"   L$$$$  d$$$$$$$;M   $$$$$     ",
"    N$$$$$$$$$$$$$O    $$$$$     ",
"     ,$$$$$$$$$lP   Q  $$$$      ",
"      Jb$$$$bnR    SS  $$$$      ",
"        .E         0S T$$$$      ",
"                    UD 9$$5      ",
"                        VeW      ",
"                                 "};
