/* XPM */
static const char * const streams_pix[] = {
/* width height num_colors chars_per_pixel */
"    16    16       27            1",
/* colors */
". c #000000",
"# c #008000",
"a c #000080",
"b c #008080",
"c c #808080",
"d c #c0c0c0",
"e c None",
"f c #00ffff",
"g c #ffffff",
"h c #2a1f55",
"i c #7f9fff",
"j c #2a7fff",
"k c #2a3f55",
"l c #7fbfff",
"m c #557faa",
"n c #a6caf0",
"o c #2a7faa",
"p c #7f9faa",
"q c #559faa",
"r c #d4ffff",
"s c #c0dcc0",
"t c #aabfaa",
"u c #555f55",
"v c #2a3f00",
"w c #7f7f55",
"x c #553f00",
"y c #2a1f00",
/* pixels */
"eeeeeeeeeeeeeeee",
"eeeeeeeeeee..eee",
"eeeeeeeeeee..eee",
"eeeeeeeeeee.ee..",
"eeeeppceee..ee..",
"eeerrlnqwe..ee.e",
"engnnspwuveee..e",
"elndtpwuw#xee..e",
"illtcwu#bu#eeeee",
"qljquku#kxyeeeee",
"joocwbuuvykeeeee",
"oomucck#ukqeeeee",
"oouvukyupfneeeee",
"eakkvvyyqleeeeee",
"eehakkvkoeeeeeee",
"eeeekkkeeeeeeeee"
};
