/* XPM */
static const char * const track_up_down_pix_xpm[] = {
"16 16 2 1",
" 	c None",
".	c #FF0000",
"                ",
"                ",
"    .    ...    ",
"   ...   ...    ",
"  .....  ...    ",
" ....... ...    ",
"   ...   ...    ",
"   ...   ...    ",
"   ...   ...    ",
"   ...   ...    ",
"   ... .......  ",
"   ...  .....   ",
"   ...   ...    ",
"   ...    .     ",
"                ",
"                "};
