<?xml version="1.0" encoding="UTF-8" standalone="no"?>
<!-- Created with Inkscape (http://www.inkscape.org/) -->

<svg
   xmlns:dc="http://purl.org/dc/elements/1.1/"
   xmlns:cc="http://creativecommons.org/ns#"
   xmlns:rdf="http://www.w3.org/1999/02/22-rdf-syntax-ns#"
   xmlns:svg="http://www.w3.org/2000/svg"
   xmlns="http://www.w3.org/2000/svg"
   xmlns:sodipodi="http://sodipodi.sourceforge.net/DTD/sodipodi-0.dtd"
   xmlns:inkscape="http://www.inkscape.org/namespaces/inkscape"
   width="800px"
   height="600px"
   id="svg2985"
   version="1.1"
   inkscape:version="0.48.4 r9939"
   sodipodi:docname="fl_watched.svg">
  <defs
     id="defs2987" />
  <sodipodi:namedview
     id="base"
     pagecolor="#ffffff"
     bordercolor="#666666"
     borderopacity="1.0"
     inkscape:pageopacity="0.0"
     inkscape:pageshadow="2"
     inkscape:zoom="0.43337912"
     inkscape:cx="65.469512"
     inkscape:cy="332.53352"
     inkscape:current-layer="layer1"
     inkscape:document-units="px"
     showgrid="false"
     inkscape:window-width="1174"
     inkscape:window-height="688"
     inkscape:window-x="170"
     inkscape:window-y="97"
     inkscape:window-maximized="0" />
  <metadata
     id="metadata2990">
    <rdf:RDF>
      <cc:Work
         rdf:about="">
        <dc:format>image/svg+xml</dc:format>
        <dc:type
           rdf:resource="http://purl.org/dc/dcmitype/StillImage" />
        <dc:title></dc:title>
      </cc:Work>
    </rdf:RDF>
  </metadata>
  <g
     id="layer1"
     inkscape:label="Layer 1"
     inkscape:groupmode="layer">
    <g
       id="g4072"
       style="fill:#ffffff"
       transform="matrix(0.89732607,0,0,0.89732607,41.069572,30.802179)">
      <g
         id="g4020"
         style="fill:#ffffff">
        <path
           inkscape:connector-curvature="0"
           style="font-size:medium;font-style:normal;font-variant:normal;font-weight:normal;font-stretch:normal;text-indent:0;text-align:start;text-decoration:none;line-height:normal;letter-spacing:normal;word-spacing:normal;text-transform:none;direction:ltr;block-progression:tb;writing-mode:lr-tb;text-anchor:start;baseline-shift:baseline;color:#000000;fill:#ffffff;fill-opacity:1;stroke:none;stroke-width:22.52651978000000099;marker:none;visibility:visible;display:inline;overflow:visible;enable-background:accumulate;font-family:Sans;-inkscape-font-specification:Sans"
           d="m 250.8125,7.84375 c -53.09008,0 -99.92058,34.794514 -132.6875,87.8125 -32.766914,53.01799 -52.5,124.99667 -52.5,204.34375 0,79.34707 19.733086,151.35702 52.5,204.375 32.76692,53.01798 79.59742,87.78125 132.6875,87.78125 53.09009,0 99.92059,-34.76327 132.6875,-87.78125 5.93713,-9.60648 11.45892,-19.8402 16.5,-30.625 -4.74529,-10.15199 -9.0546,-20.7984 -12.9375,-31.875 -6.8921,18.20404 -15.04285,34.90309 -24.21875,49.75 -29.86611,48.32439 -69.54654,76.25 -112.03125,76.25 -42.4847,0 -82.16513,-27.92561 -112.03125,-76.25 C 108.91514,443.30062 89.875,375.29617 89.875,300 c 0,-75.29618 19.04014,-143.26937 48.90625,-191.59375 C 168.64737,60.081862 208.3278,32.125 250.8125,32.125 c 42.48471,0 82.16514,27.956862 112.03125,76.28125 9.1759,14.84691 17.32665,31.55036 24.21875,49.75 3.88476,-11.08142 8.18925,-21.71839 12.9375,-31.875 -5.04108,-10.78299 -10.56287,-21.01852 -16.5,-30.625 C 350.73309,42.638264 303.90259,7.84375 250.8125,7.84375 z"
           id="path4008" />
        <path
           inkscape:connector-curvature="0"
           style="font-size:medium;font-style:normal;font-variant:normal;font-weight:normal;font-stretch:normal;text-indent:0;text-align:start;text-decoration:none;line-height:normal;letter-spacing:normal;word-spacing:normal;text-transform:none;direction:ltr;block-progression:tb;writing-mode:lr-tb;text-anchor:start;baseline-shift:baseline;color:#000000;fill:#ffffff;fill-opacity:1;stroke:none;stroke-width:22.52651978000000099;marker:none;visibility:visible;display:inline;overflow:visible;enable-background:accumulate;font-family:Sans;-inkscape-font-specification:Sans"
           d="m 549.21875,7.84375 c -53.09008,0 -99.95183,34.794513 -132.71875,87.8125 -5.93713,9.60648 -11.45892,19.84201 -16.5,30.625 4.74825,10.15661 9.05274,20.79358 12.9375,31.875 6.8921,-18.19964 15.04285,-34.90309 24.21875,-49.75 29.86612,-48.324389 69.5778,-76.28125 112.0625,-76.28125 42.48471,0 82.13389,27.956861 112,76.28125 C 691.08486,156.73063 710.125,224.70382 710.125,300 c 0,75.29617 -19.04014,143.30062 -48.90625,191.625 -29.86611,48.32439 -69.51529,76.25 -112,76.25 -42.4847,0 -82.19638,-27.92561 -112.0625,-76.25 -9.1759,-14.84691 -17.32665,-31.54596 -24.21875,-49.75 -3.8829,11.0766 -8.19221,21.72301 -12.9375,31.875 5.04108,10.7848 10.56287,21.01852 16.5,30.625 32.76692,53.01798 79.62867,87.78125 132.71875,87.78125 53.09009,0 99.88934,-34.76327 132.65625,-87.78125 32.76692,-53.01798 52.5,-125.02793 52.5,-204.375 0,-79.34708 -19.73308,-151.32576 -52.5,-204.34375 C 649.10809,42.638263 602.30884,7.84375 549.21875,7.84375 z"
           id="path3980" />
        <rect
           style="fill:#ffffff;fill-opacity:1;stroke:none"
           id="rect4010"
           width="25.497904"
           height="348.28476"
           x="387.25104"
           y="125.62138" />
      </g>
      <g
         transform="matrix(1,0,0,1.1767767,1.3103831,-8.319584)"
         id="g4033"
         style="fill:#ffffff">
        <path
           sodipodi:type="arc"
           style="fill:#ffffff;fill-opacity:1;stroke:none"
           id="path4027"
           sodipodi:cx="246.37349"
           sodipodi:cy="329.15231"
           sodipodi:rx="65.264496"
           sodipodi:ry="65.264496"
           d="m 311.63799,329.15231 c 0,36.04459 -29.21991,65.2645 -65.2645,65.2645 -36.04459,0 -65.2645,-29.21991 -65.2645,-65.2645 0,-36.04458 29.21991,-65.26449 65.2645,-65.26449 36.04459,0 65.2645,29.21991 65.2645,65.26449 z"
           transform="translate(16.316125,14.684512)" />
        <path
           transform="translate(288.31613,14.684512)"
           d="m 311.63799,329.15231 c 0,36.04459 -29.21991,65.2645 -65.2645,65.2645 -36.04459,0 -65.2645,-29.21991 -65.2645,-65.2645 0,-36.04458 29.21991,-65.26449 65.2645,-65.26449 36.04459,0 65.2645,29.21991 65.2645,65.26449 z"
           sodipodi:ry="65.264496"
           sodipodi:rx="65.264496"
           sodipodi:cy="329.15231"
           sodipodi:cx="246.37349"
           id="path4031"
           style="fill:#ffffff;fill-opacity:1;stroke:none"
           sodipodi:type="arc" />
      </g>
    </g>
  </g>
</svg>
