<?xml version="1.0" encoding="UTF-8" standalone="no"?>
<!-- Created with Inkscape (http://www.inkscape.org/) -->

<svg
   xmlns:dc="http://purl.org/dc/elements/1.1/"
   xmlns:cc="http://creativecommons.org/ns#"
   xmlns:rdf="http://www.w3.org/1999/02/22-rdf-syntax-ns#"
   xmlns:svg="http://www.w3.org/2000/svg"
   xmlns="http://www.w3.org/2000/svg"
   xmlns:sodipodi="http://sodipodi.sourceforge.net/DTD/sodipodi-0.dtd"
   xmlns:inkscape="http://www.inkscape.org/namespaces/inkscape"
   version="1.1"
   width="800"
   height="600"
   id="svg3132"
   inkscape:version="0.48.4 r9939"
   sodipodi:docname="hd_720.svg">
  <sodipodi:namedview
     pagecolor="#ffffff"
     bordercolor="#666666"
     borderopacity="1"
     objecttolerance="10"
     gridtolerance="10"
     guidetolerance="10"
     inkscape:pageopacity="0"
     inkscape:pageshadow="2"
     inkscape:window-width="640"
     inkscape:window-height="480"
     id="namedview3031"
     showgrid="false"
     inkscape:zoom="0.48398437"
     inkscape:cx="400"
     inkscape:cy="300"
     inkscape:window-x="0"
     inkscape:window-y="0"
     inkscape:window-maximized="0"
     inkscape:current-layer="svg3132" />
  <defs
     id="defs3134" />
  <metadata
     id="metadata3137">
    <rdf:RDF>
      <cc:Work
         rdf:about="">
        <dc:format>image/svg+xml</dc:format>
        <dc:type
           rdf:resource="http://purl.org/dc/dcmitype/StillImage" />
        <dc:title></dc:title>
      </cc:Work>
    </rdf:RDF>
  </metadata>
  <g
     id="layer1">
    <g
       transform="translate(3.1875,1.7488806)"
       id="g3107">
      <path
         d="m 54.40625,361.625 -49.78125,227 712,0 c 40.07091,0 72.37495,-32.30404 72.375,-72.375 L 789,434 c 0,-40.07091 -32.30414,-72.375 -72.375,-72.375 l -662.21875,0 z m 352.6875,36.53125 c 13.70733,1.5e-4 24.44638,3.24972 32.21875,9.75 7.77213,6.35926 11.65612,15.27247 11.65625,26.71875 -1.3e-4,9.46813 -2.33678,18.3039 -7,26.5 -4.52216,8.05497 -10.38686,14.98746 -17.59375,20.78125 -7.2071,5.65261 -14.54172,10.80546 -22.03125,15.46875 -7.34839,4.6634 -14.48195,9.46031 -21.40625,14.40625 -6.92443,4.8047 -11.79878,9.24568 -14.625,13.34375 l 63.59375,0 -5.53125,26.5 -102.15625,0 c 2.96758,-11.02246 6.85157,-20.33779 11.65625,-27.96875 4.94596,-7.77222 10.45473,-13.91542 16.53125,-18.4375 6.07645,-4.52199 12.14221,-8.48342 18.21875,-11.875 6.07643,-3.39147 12.73043,-7.43033 19.9375,-12.09375 7.20692,-4.66328 13.42756,-9.73868 18.65625,-15.25 7.63084,-7.63085 11.4374,-16.66768 11.4375,-27.125 -10e-5,-5.3698 -1.62489,-9.53229 -4.875,-12.5 -3.25031,-2.96746 -7.69129,-4.46862 -13.34375,-4.46875 -7.34839,1.3e-4 -13.36797,2.77014 -18.03125,8.28125 -4.5221,5.37004 -7.49317,13.21546 -8.90625,23.53125 l -28.40625,0 c 2.68493,-17.80542 9.26149,-31.51554 19.71875,-41.125 10.45716,-9.60919 23.88878,-14.43735 40.28125,-14.4375 z m 117.99999,0 c 12.71813,1.5e-4 22.66789,3.76052 29.875,11.25 7.34819,7.48976 11.03112,17.71801 11.03125,30.71875 -1.3e-4,10.73995 -1.77978,23.97051 -5.3125,39.65625 -3.39165,15.68588 -7.27564,28.32821 -11.65625,37.9375 C 537.01947,543.57917 518.435,556.5 493.28125,556.5 c -12.43565,0 -22.26178,-3.72912 -29.46875,-11.21875 -7.20702,-7.63093 -10.81252,-17.93661 -10.8125,-30.9375 -2e-5,-10.7398 1.7022,-23.89293 5.09375,-39.4375 3.3915,-15.54442 7.35293,-28.18675 11.875,-37.9375 5.79382,-12.5768 13.43818,-22.20187 22.90625,-28.84375 9.46795,-6.6416 20.20699,-9.9686 32.21874,-9.96875 z m -287.49999,3.1875 106.1875,0 -4.875,23.3125 -22.25,22.90625 c -15.54461,17.38168 -27.83101,34.06287 -36.875,50.03125 -9.04415,15.82718 -16.41001,33.82341 -22.0625,54.03125 l -30.09375,0 c 8.47879,-25.71908 18.58341,-47.75417 30.3125,-66.125 11.87028,-18.51202 28.11811,-37.73091 48.75,-57.65625 l -74.8125,0 5.71875,-26.5 z m 281.78124,20.5625 c -7.34839,1.3e-4 -13.56902,4.03899 -18.65624,12.09375 -3.5329,5.65266 -7.37071,17.66056 -11.46875,36.03125 -3.95683,18.22954 -5.93755,32.49665 -5.9375,42.8125 -5e-5,5.36996 1.42368,9.68731 4.25,12.9375 2.96753,3.25024 6.92896,4.87502 11.875,4.875 6.21773,2e-5 11.29313,-2.25919 15.24999,-6.78125 3.9567,-4.52201 7.43858,-12.01149 10.40625,-22.46875 2.82618,-10.03322 5.28645,-21.1282 7.40625,-33.28125 2.11961,-12.2942 3.1874,-21.7644 3.1875,-28.40625 -10e-5,-5.3698 -1.50126,-9.68716 -4.46875,-12.9375 -2.96768,-3.25009 -6.89786,-4.87487 -11.84375,-4.875 z"
         id="path3109"
         style="fill:#ffffff;fill-opacity:1;fill-rule:nonzero;stroke:none" />
      <g
         id="g3111"
         style="fill:#ffffff">
        <path
           d="M 132.98629,14.566162 C 109.49597,115.84245 86.068619,217.13158 62.654065,318.42299 c 37.875355,0 75.750715,0 113.626125,0 9.58203,-41.29619 19.30455,-78.60203 28.7636,-119.92252 l 90.94917,0 c -9.2447,39.9754 -18.54255,79.9403 -27.75264,119.92252 37.87536,0 75.75077,0 113.62613,0 23.94153,-103.32204 47.84619,-206.65136 71.5845,-310.0134867 -37.76838,0 -75.53672,0 -113.30511,0 -8.29458,35.6722997 -16.72821,71.3170257 -25.1101,106.9719567 l -90.94775,0 C 232.03598,81.049361 239.9574,42.749597 247.8647,8.4095033 c -37.82182,0 -75.64375,0 -113.46562,0 l -0.9138,3.9818907 -0.49899,2.174768 z"
           id="path3113"
           style="font-size:94.34880066px;font-style:italic;font-variant:normal;font-weight:bold;font-stretch:normal;text-align:start;line-height:100%;text-anchor:start;fill:#ffffff;fill-opacity:1;stroke:none;font-family:Arial" />
        <path
           d="M 628.24229,8.1529736 C 588.8783,8.7660753 549.37633,8.2297857 509.96032,8.4095033 487.89426,111.91372 465.83685,215.42021 443.82473,318.93602 530.5549,318.38123 628.84159,326.09641 706.28016,292.8985 789.43472,243.35464 816.10006,132.47611 757.49494,53.558337 727.36991,19.029845 674.84315,5.7394656 628.24229,8.1529736 z m 5.05152,78.1126174 c 26.31051,-2.150474 50.94165,17.077159 48.90793,40.018289 6.53358,43.84239 -11.72428,98.883 -63.91868,112.23079 -16.59312,2.86375 -34.7267,2.50191 -52.24499,2.30874 10.88778,-51.26274 21.77531,-102.52549 32.66293,-153.788234 11.5845,0.0169 23.16582,0.31151 34.59281,-0.769585 z"
           id="path3115"
           style="font-size:94.34880066px;font-style:italic;font-variant:normal;font-weight:bold;font-stretch:normal;text-align:start;line-height:100%;text-anchor:start;fill:#ffffff;fill-opacity:1;stroke:none;font-family:Arial" />
      </g>
    </g>
  </g>
</svg>
