<?xml version="1.0" encoding="UTF-8" standalone="no"?>
<!-- Created with Inkscape (http://www.inkscape.org/) -->

<svg
   xmlns:dc="http://purl.org/dc/elements/1.1/"
   xmlns:cc="http://creativecommons.org/ns#"
   xmlns:rdf="http://www.w3.org/1999/02/22-rdf-syntax-ns#"
   xmlns:svg="http://www.w3.org/2000/svg"
   xmlns="http://www.w3.org/2000/svg"
   xmlns:sodipodi="http://sodipodi.sourceforge.net/DTD/sodipodi-0.dtd"
   xmlns:inkscape="http://www.inkscape.org/namespaces/inkscape"
   width="144"
   height="54"
   id="svg2"
   version="1.1"
   inkscape:version="0.48.4 r9939"
   sodipodi:docname="recording_icons_sprite.svg">
  <defs
     id="defs4">
    <inkscape:path-effect
       id="path-effect3534"
       effect="bend_path"
       is_visible="true"
       bendpath="M 0,0 1,0"
       prop_scale="1"
       scale_y_rel="false"
       vertical="false" />
  </defs>
  <sodipodi:namedview
     id="base"
     pagecolor="#ffffff"
     bordercolor="#666666"
     borderopacity="1.0"
     inkscape:pageopacity="0.0"
     inkscape:pageshadow="2"
     inkscape:zoom="4.0448718"
     inkscape:cx="47.131938"
     inkscape:cy="22.150573"
     inkscape:document-units="px"
     inkscape:current-layer="layer1"
     showgrid="false"
     inkscape:window-width="1174"
     inkscape:window-height="688"
     inkscape:window-x="97"
     inkscape:window-y="64"
     inkscape:window-maximized="0" />
  <metadata
     id="metadata7">
    <rdf:RDF>
      <cc:Work
         rdf:about="">
        <dc:format>image/svg+xml</dc:format>
        <dc:type
           rdf:resource="http://purl.org/dc/dcmitype/StillImage" />
        <dc:title />
      </cc:Work>
    </rdf:RDF>
  </metadata>
  <g
     inkscape:label="Layer 1"
     inkscape:groupmode="layer"
     id="layer1"
     transform="translate(0,-998.36218)">
    <g
       id="g3161"
       transform="translate(1.3488713,0)">
      <g
         transform="matrix(0.045,0,0,0.045,70.794564,1025.3516)"
         id="g3188"
         style="fill:#ffffff">
        <path
           inkscape:connector-curvature="0"
           d="m 54.40625,361.625 -49.78125,227 712,0 c 40.07091,0 72.37495,-32.30404 72.375,-72.375 L 789,434 c 0,-40.07091 -32.30414,-72.375 -72.375,-72.375 l -662.21875,0 z M 343.75,398.15625 c 12.71813,1.5e-4 22.66789,3.76052 29.875,11.25 7.34819,7.48976 11.03112,17.71801 11.03125,30.71875 -1.3e-4,10.73995 -1.74853,23.97051 -5.28125,39.65625 -3.39165,15.68588 -7.27564,28.32821 -11.65625,37.9375 -12.01177,25.86042 -30.59624,38.78125 -55.75,38.78125 -12.43565,0 -22.26178,-3.72912 -29.46875,-11.21875 -7.20702,-7.63093 -10.81252,-17.93661 -10.8125,-30.9375 -2e-5,-10.7398 1.7022,-23.89293 5.09375,-39.4375 3.3915,-15.54442 7.32168,-28.18675 11.84375,-37.9375 5.79382,-12.5768 13.43818,-22.20187 22.90625,-28.84375 9.46795,-6.6416 20.207,-9.9686 32.21875,-9.96875 z m 118.21875,0 c 12.43551,1.5e-4 22.54013,3.04866 30.3125,9.125 7.77213,6.07663 11.65612,13.92205 11.65625,23.53125 -1.3e-4,15.54462 -9.1144,28.54288 -27.34375,39 6.50032,3.95686 11.06492,8.07316 13.75,12.3125 2.68484,4.23948 4.03113,9.51594 4.03125,15.875 -1.2e-4,7.20705 -1.6249,14.57291 -4.875,22.0625 -3.25033,7.34834 -7.69131,13.6926 -13.34375,19.0625 C 464.2858,550.71273 449.2294,556.5 431,556.5 c -14.13142,0 -25.30384,-3.37319 -33.5,-10.15625 -8.19621,-6.78305 -12.28126,-15.97475 -12.28125,-27.5625 -10e-6,-21.05569 11.37346,-37.38095 34.125,-48.96875 -4.94602,-3.81539 -8.47408,-7.49832 -10.59375,-11.03125 -2.11974,-3.53275 -3.18753,-7.54036 -3.1875,-12.0625 -3e-5,-13.28337 5.50874,-24.65685 16.53125,-34.125 11.16372,-9.60919 24.47173,-14.43735 39.875,-14.4375 z m 117.75,0 c 12.71813,1.5e-4 22.69914,3.76052 29.90625,11.25 7.34819,7.48976 11.03112,17.71801 11.03125,30.71875 -1.3e-4,10.73995 -1.77978,23.97051 -5.3125,39.65625 -3.39165,15.68588 -7.27564,28.32821 -11.65625,37.9375 -12.01177,25.86042 -30.59624,38.78125 -55.75,38.78125 -12.43565,0 -22.26178,-3.72912 -29.46875,-11.21875 -7.20702,-7.63093 -10.81252,-17.93661 -10.8125,-30.9375 -2e-5,-10.7398 1.7022,-23.89293 5.09375,-39.4375 3.3915,-15.54442 7.35293,-28.18675 11.875,-37.9375 5.79382,-12.5768 13.40693,-22.20187 22.875,-28.84375 9.46795,-6.6416 20.207,-9.9686 32.21875,-9.96875 z m -350.78125,3.1875 19.71875,0 -32,150.28125 -29.6875,0 L 209,447.96875 l -36.03125,0 4.25,-19.6875 c 26.00166,1.2e-4 43.23984,-8.99052 51.71875,-26.9375 z m 109.09375,20.5625 c -7.34839,1.3e-4 -13.56903,4.03899 -18.65625,12.09375 -3.5329,5.65266 -7.33946,17.66056 -11.4375,36.03125 -3.95683,18.22954 -5.93755,32.49665 -5.9375,42.8125 -5e-5,5.36996 1.39243,9.68731 4.21875,12.9375 2.96753,3.25024 6.92896,4.87502 11.875,4.875 6.21773,2e-5 11.32439,-2.25919 15.28125,-6.78125 3.9567,-4.52201 7.40733,-12.01149 10.375,-22.46875 2.82618,-10.03322 5.28645,-21.1282 7.40625,-33.28125 2.11961,-12.2942 3.1874,-21.7644 3.1875,-28.40625 -10e-5,-5.3698 -1.47001,-9.68716 -4.4375,-12.9375 -2.96768,-3.25009 -6.92911,-4.87487 -11.875,-4.875 z m 118.84375,0 c -7.06576,1.3e-4 -13.08534,2.33677 -18.03125,7 -4.94604,4.52216 -7.40631,10.10837 -7.40625,16.75 -6e-5,4.80477 1.62472,8.68876 4.875,11.65625 3.39146,2.82637 7.75501,4.25009 13.125,4.25 7.48954,9e-5 13.86505,-2.33655 19.09375,-7 5.22851,-4.80457 7.84365,-10.59183 7.84375,-17.375 -10e-5,-4.52192 -1.85719,-8.20485 -5.53125,-11.03125 -3.53294,-2.82615 -8.17498,-4.24987 -13.96875,-4.25 z m 117.125,0 c -7.34839,1.3e-4 -13.56903,4.03899 -18.65625,12.09375 -3.5329,5.65266 -7.33946,17.66056 -11.4375,36.03125 -3.95683,18.22954 -5.93755,32.49665 -5.9375,42.8125 -5e-5,5.36996 1.42368,9.68731 4.25,12.9375 2.96753,3.25024 6.92896,4.87502 11.875,4.875 6.21773,2e-5 11.29314,-2.25919 15.25,-6.78125 3.9567,-4.52201 7.40733,-12.01149 10.375,-22.46875 2.82618,-10.03322 5.3177,-21.1282 7.4375,-33.28125 2.11961,-12.2942 3.1874,-21.7644 3.1875,-28.40625 -10e-5,-5.3698 -1.50126,-9.68716 -4.46875,-12.9375 -2.96768,-3.25009 -6.92911,-4.87487 -11.875,-4.875 z M 445,481.6875 c -8.19626,7e-5 -15.20619,3.09476 -21,9.3125 -5.6526,6.07655 -8.46879,13.56603 -8.46875,22.46875 -4e-5,4.94601 1.8258,9.06231 5.5,12.3125 3.81542,3.25024 8.64358,4.87502 14.4375,4.875 8.33744,2e-5 15.1925,-2.89361 20.5625,-8.6875 5.36983,-5.93514 8.03116,-13.50206 8.03125,-22.6875 -9e-5,-5.36986 -1.7485,-9.60979 -5.28125,-12.71875 -3.39161,-3.25015 -7.98746,-4.87493 -13.78125,-4.875 z"
           id="path2997"
           style="fill:#ffffff;fill-opacity:1;fill-rule:nonzero;stroke:none" />
        <g
           id="g3012"
           style="fill:#ffffff">
          <path
             inkscape:connector-curvature="0"
             d="M 132.98629,14.566162 C 109.49597,115.84245 86.068619,217.13158 62.654065,318.42299 c 37.875355,0 75.750715,0 113.626125,0 9.58203,-41.29619 19.30455,-78.60203 28.7636,-119.92252 l 90.94917,0 c -9.2447,39.9754 -18.54255,79.9403 -27.75264,119.92252 37.87536,0 75.75077,0 113.62613,0 23.94153,-103.32204 47.84619,-206.65136 71.5845,-310.0134867 -37.76838,0 -75.53672,0 -113.30511,0 -8.29458,35.6722997 -16.72821,71.3170257 -25.1101,106.9719567 l -90.94775,0 C 232.03598,81.049361 239.9574,42.749597 247.8647,8.4095033 c -37.82182,0 -75.64375,0 -113.46562,0 l -0.9138,3.9818907 -0.49899,2.174768 z"
             id="text3678"
             style="font-size:94.34880066px;font-style:italic;font-variant:normal;font-weight:bold;font-stretch:normal;text-align:start;line-height:100%;text-anchor:start;fill:#ffffff;fill-opacity:1;stroke:none;font-family:Arial" />
          <path
             inkscape:connector-curvature="0"
             d="M 628.24229,8.1529736 C 588.8783,8.7660753 549.37633,8.2297857 509.96032,8.4095033 487.89426,111.91372 465.83685,215.42021 443.82473,318.93602 530.5549,318.38123 628.84159,326.09641 706.28016,292.8985 789.43472,243.35464 816.10006,132.47611 757.49494,53.558337 727.36991,19.029845 674.84315,5.7394656 628.24229,8.1529736 z m 5.05152,78.1126174 c 26.31051,-2.150474 50.94165,17.077159 48.90793,40.018289 6.53358,43.84239 -11.72428,98.883 -63.91868,112.23079 -16.59312,2.86375 -34.7267,2.50191 -52.24499,2.30874 10.88778,-51.26274 21.77531,-102.52549 32.66293,-153.788234 11.5845,0.0169 23.16582,0.31151 34.59281,-0.769585 z"
             id="text3682"
             style="font-size:94.34880066px;font-style:italic;font-variant:normal;font-weight:bold;font-stretch:normal;text-align:start;line-height:100%;text-anchor:start;fill:#ffffff;fill-opacity:1;stroke:none;font-family:Arial" />
        </g>
      </g>
      <g
         id="layer1-6"
         inkscape:label="Layer 1"
         transform="matrix(0.045,0,0,0.045,-9.9888715,998.27294)">
        <g
           id="g3213"
           style="fill:#ffffff">
          <path
             id="rect3172"
             d="m 261.28648,223.33971 0,359.64389 661.58402,0 0,-359.64389 -661.58402,0 z m 35.21065,34.08351 591.16272,0 0,14.52593 -591.16272,0 0,-14.52593 z m 0,95.00253 591.16272,0 0,14.52592 -591.16272,0 0,-14.52592 z m 0,94.97259 591.16272,0 0,14.52592 -204.87489,0 0,98.47677 -17.21488,0 0,-98.47677 -146.94769,0 0,98.47677 -17.21488,0 0,-98.47677 -204.91038,0 0,-14.52592 z"
             style="fill:#ffffff;fill-opacity:1;stroke:none"
             inkscape:connector-curvature="0" />
          <path
             id="rect3187"
             d="m 261.28648,140.99072 0,63.8903 43.80034,0 63.00294,-63.8903 -106.80328,0 z m 186.3112,0 -63.00293,63.8903 79.50792,0 63.00294,-63.8903 -79.50793,0 z m 159.01585,0 -63.00293,63.8903 79.50792,0 63.00294,-63.8903 -79.50793,0 z m 159.01585,0 -63.00293,63.8903 79.50792,0 63.00294,-63.8903 -79.50793,0 z m 157.24112,1.81023 -61.2282,62.08007 61.2282,0 0,-62.08007 z"
             style="fill:#ffffff;fill-opacity:1;stroke:none"
             inkscape:connector-curvature="0" />
          <path
             inkscape:connector-curvature="0"
             id="rect3191"
             d="m 259.76239,74.386702 5.54035,63.649618 106.40095,-9.26162 -68.30595,-58.186215 -43.63535,3.798217 z M 382.60616,63.69383 450.91212,121.88005 530.12053,114.9854 461.81458,56.799174 382.60616,63.69383 z M 541.023,49.904518 609.32895,108.09074 688.53737,101.19609 620.23142,43.009864 541.023,49.904518 z m 158.41684,-13.78931 68.30595,58.186223 79.20842,-6.894654 -68.30595,-58.186225 -79.20842,6.894656 z m 158.41685,-13.789311 66.38093,56.536717 -5.38338,-61.846217 -60.99755,5.3095 z"
             style="fill:#ffffff;fill-opacity:1;stroke:none" />
        </g>
      </g>
      <g
         transform="matrix(0.045,0,0,0.045,34.651124,998.27294)"
         id="layer1-5"
         inkscape:label="Layer 1">
        <path
           inkscape:connector-curvature="0"
           style="fill:#ffffff;fill-opacity:1;stroke:none"
           d="M 400,14.46875 C 242.30492,14.46875 114.46875,142.30492 114.46875,300 114.46875,457.69508 242.30492,585.53125 400,585.53125 557.69508,585.53125 685.53125,457.69508 685.53125,300 685.53125,142.30492 557.69508,14.46875 400,14.46875 z m -0.625,11.5625 c 8.13899,0 14.6875,6.548512 14.6875,14.6875 l 0,248 196.875,0 c 6.63904,0 12,6.5462 12,14.6875 0,8.1413 -5.36096,14.6875 -12,14.6875 l -211.5625,0 -2.71875,0 c -6.2241,0 -11.29474,-5.75921 -11.90625,-13.1875 -0.05,-0.49508 -0.0625,-0.99131 -0.0625,-1.5 l 0,-262.6875 c 0,-4.917305 2.40651,-9.24345 6.09375,-11.90625 l 0,-0.46875 0.6875,0 c 2.28215,-1.457827 4.98515,-2.3125 7.90625,-2.3125 z m -129.1875,34.625 23.65625,40.96875 -14.15625,8.15625 -23.65625,-40.96875 14.15625,-8.15625 z m 257.5,0 14.15625,8.15625 L 518.1875,109.78125 504.03125,101.625 527.6875,60.65625 z M 167.75,157.09375 208.71875,180.75 200.5625,194.90625 159.59375,171.25 167.75,157.09375 z m 462.375,0 L 638.28125,171.25 597.3125,194.90625 589.15625,180.75 630.125,157.09375 z m -502.84375,134.75 47.3125,0 0,16.3125 -47.3125,0 0,-16.3125 z m 496,0 47.3125,0 0,16.3125 -47.3125,0 0,-16.3125 z M 200.5625,405.09375 208.71875,419.25 167.75,442.90625 159.59375,428.75 200.5625,405.09375 z m 396.75,0 L 638.28125,428.75 630.125,442.90625 589.15625,419.25 597.3125,405.09375 z m -317.625,85.125 14.15625,8.15625 -23.65625,40.96875 -14.15625,-8.15625 23.65625,-40.96875 z m 238.5,0 23.65625,40.96875 -14.15625,8.15625 -23.65625,-40.96875 14.15625,-8.15625 z m -127.40625,34.125 16.3125,0 0,47.3125 -16.3125,0 0,-47.3125 z"
           id="path2993" />
      </g>
      <g
         transform="matrix(0.045,0,0,0.045,70.651124,998.27295)"
         id="layer1-56"
         inkscape:label="Layer 1">
        <g
           style="fill:#ffffff;display:inline"
           id="g3310"
           transform="matrix(10.320705,0,0,10.320705,-13954.396,-8635.2175)"
           inkscape:export-filename="/home/gbee/Development/myth/trunk/mythtv/themes/Terra/shared/icons/bookmark.png"
           inkscape:export-xdpi="60"
           inkscape:export-ydpi="60">
          <path
             d="m 1388.1355,890.56714 c -0.016,-0.008 -0.032,-0.008 -0.049,-0.0162 l -32.5587,-16.44103 c -0.6352,-0.32086 -1.1521,-1.16366 -1.1478,-1.87527 l 0.194,-29.39015 c 0,-0.71162 0.5126,-1.01602 1.1478,-0.69515 l 32.4132,16.36019 0,32.05757 z"
             id="path3312"
             style="fill:#ffffff;fill-opacity:1;stroke:#dddddd;stroke-width:0.39549628;stroke-miterlimit:4;stroke-opacity:0;stroke-dasharray:none"
             inkscape:connector-curvature="0" />
          <path
             d="m 1393.535,890.27615 0,-31.97674 32.5749,-16.29552 c 0.6364,-0.31842 1.1473,-3.2e-4 1.1478,0.71131 l 0.032,29.39015 c 5e-4,0.71162 -0.5113,1.54069 -1.1478,1.85911 l -32.6072,16.31169 z"
             id="path3314"
             style="fill:#ffffff;fill-opacity:1;stroke:#dddddd;stroke-width:0.39549628;stroke-miterlimit:4;stroke-opacity:0;stroke-dasharray:none"
             inkscape:connector-curvature="0" />
          <path
             d="m 1417.9782,839.45163 c -0.1111,0.004 -0.2263,0.0462 -0.3549,0.13309 l -26.0413,17.56785 18.6178,-15.66023 c 0.372,-0.313 0.6652,0.0103 0.6655,0.70981 l 0,-1.02036 c -3e-4,-0.69951 -0.2935,-1.00801 -0.6655,-0.69502 l -17.2277,14.47722 10.1444,-13.48644 c 0.2359,-0.31406 0.4286,-0.007 0.4288,0.69502 l 0,-1.02035 c -2e-4,-0.7019 -0.1929,-1.00908 -0.4288,-0.69503 l -11.9042,15.82291 3.6083,-14.84691 c 0.076,-0.31587 0.133,-0.0109 0.1331,0.69502 l 0,-1.02035 c -10e-5,-0.70596 -0.057,-1.02568 -0.1331,-0.70982 l -3.9336,16.1926 c -0.015,0.0642 -0.031,0.1926 -0.044,0.29575 -0.017,0.0305 -0.043,0.0565 -0.059,0.0887 -0.01,-0.0393 -0.01,-0.0884 -0.015,-0.1183 l -3.9188,-16.3109 c -0.076,-0.31831 -0.1326,-0.0109 -0.1331,0.69503 l 0,1.02035 c 4e-4,-0.70594 0.057,-1.01333 0.1331,-0.69502 l 3.6082,15.03915 -11.9042,-16.01515 c -0.2355,-0.31648 -0.4272,-0.007 -0.4288,0.69503 l 0,1.02035 c 0,-0.70189 0.1933,-1.01151 0.4288,-0.69502 l 10.1444,13.6491 -17.2277,-14.63988 c -0.3712,-0.31541 -0.6629,-0.0193 -0.6655,0.68024 l 0,1.02035 c 0,-0.69949 0.2943,-0.99565 0.6655,-0.68023 l 18.81,15.97078 -26.2335,-17.86362 c -0.5136,-0.35011 -0.9281,-0.0223 -0.9316,0.75418 l 0,1.12387 c 0,-0.77645 0.418,-1.10429 0.9316,-0.75418 l 15.4385,10.5141 -18.9727,-11.09082 c -0.5814,-0.3401 -1.046,-0.0149 -1.05,0.73939 l 0,1.09429 c 0,-0.75424 0.4686,-1.07949 1.05,-0.73939 l 18.9431,11.07603 -19.9931,-10.33664 -1.9667,-1.02035 c -0.6199,-0.32095 -1.1197,-0.0168 -1.1239,0.69502 l 0,1.03514 c 0,-0.71178 0.504,-1.01598 1.1239,-0.69502 l 31.7197,16.41441 c 0.4178,0.11773 0.9468,0.19225 1.5527,0.19224 0.7561,-0.0272 1.0606,-0.056 1.5379,-0.41405 l 31.8677,-16.34048 c 0.6211,-0.31849 1.1233,0.0128 1.1238,0.7246 l 0,-1.03514 c -4e-4,-0.71181 -0.5027,-1.04309 -1.1238,-0.7246 l -1.9668,1.00557 -20.1114,10.30706 19.0615,-11.03166 c 0.5745,-0.33287 1.0368,-0.008 1.0499,0.7246 l 0,-1.06472 c -5e-4,-0.75426 -0.4674,-1.09166 -1.0499,-0.75418 l -19.0762,11.04646 15.5419,-10.48452 c 0.5146,-0.34744 0.9312,0.007 0.9316,0.78375 l 0,-1.13866 c -3e-4,-0.58235 -0.2434,-0.91461 -0.5767,-0.90205 z"
             sodipodi:nodetypes="ccccccccccccccccccssccccccccccccccccccccccccccccccccccccccccccccccccc"
             id="path3316"
             style="fill:#ffffff;fill-opacity:1;stroke:#dddddd;stroke-width:0.38954028;stroke-miterlimit:4;stroke-opacity:0;stroke-dasharray:none"
             inkscape:connector-curvature="0" />
          <path
             d="m 1392.9721,858.72008 c -0.3351,0.34312 -1.1744,0.59151 -2.1738,0.59151 -0.9361,0 -1.7406,-0.22326 -2.1147,-0.53236 -0.03,0.11102 -0.059,0.23431 -0.059,0.3549 l 0,31.51272 c 0,0.74298 0.6027,1.34569 1.3457,1.34569 l 1.7301,0 c 0.743,0 1.3457,-0.60271 1.3457,-1.34569 l 0,-31.51272 c 0,-0.14256 -0.033,-0.28536 -0.074,-0.41405 z"
             id="path3318"
             style="fill:#ffffff;fill-opacity:1;stroke:#dddddd;stroke-width:0.52795482;stroke-miterlimit:4;stroke-opacity:0;stroke-dasharray:none"
             inkscape:connector-curvature="0" />
          <rect
             width="0.73534447"
             id="rect3320"
             style="fill:#ffffff;fill-opacity:1;stroke:#dddddd;stroke-width:0.47320831;stroke-miterlimit:4;stroke-opacity:0;stroke-dasharray:none"
             height="3.9065511"
             x="1370.8342"
             y="841.30475"
             ry="0.28911069"
             rx="0.36767223" />
          <rect
             width="0.73534447"
             id="rect3322"
             style="fill:#ffffff;fill-opacity:1;stroke:#dddddd;stroke-width:0.47320831;stroke-miterlimit:4;stroke-opacity:0;stroke-dasharray:none"
             height="3.9065511"
             x="1410.1295"
             y="841.07495"
             ry="0.28911069"
             rx="0.36767223" />
          <rect
             width="0.38184857"
             id="rect3324"
             style="fill:#ffffff;fill-opacity:1;stroke:#dddddd;stroke-width:0.48133823;stroke-miterlimit:4;stroke-opacity:0;stroke-dasharray:none"
             height="5.9065437"
             x="1378.1224"
             y="841.17773"
             ry="0.30549899"
             rx="0.36000729" />
          <rect
             width="0.38184857"
             id="rect3326"
             style="fill:#ffffff;fill-opacity:1;stroke:#dddddd;stroke-width:0.48133823;stroke-miterlimit:4;stroke-opacity:0;stroke-dasharray:none"
             height="5.9065437"
             x="1403.146"
             y="840.85272"
             ry="0.30549899"
             rx="0.36000729" />
          <rect
             width="0.19498926"
             id="rect3328"
             style="fill:#ffffff;fill-opacity:1;stroke:#dddddd;stroke-width:0.47320831;stroke-miterlimit:4;stroke-opacity:0;stroke-dasharray:none"
             height="11.374373"
             x="1386.6976"
             y="841.23865"
             ry="0.30549899"
             rx="0.36000729" />
          <rect
             width="0.19498926"
             id="rect3330"
             style="fill:#ffffff;fill-opacity:1;stroke:#dddddd;stroke-width:0.47320831;stroke-miterlimit:4;stroke-opacity:0;stroke-dasharray:none"
             height="11.374373"
             x="1394.7572"
             y="841.04364"
             ry="0.30549899"
             rx="0.36000729" />
          <rect
             width="0.78130996"
             id="rect3332"
             style="fill:#ffffff;fill-opacity:1;stroke:#dddddd;stroke-width:0.47320831;stroke-miterlimit:4;stroke-opacity:0;stroke-dasharray:none"
             height="2.3439298"
             x="1363.1118"
             y="840.4043"
             ry="0.30549899"
             rx="0.36000729" />
          <rect
             width="0.78130996"
             id="rect3334"
             style="fill:#ffffff;fill-opacity:1;stroke:#dddddd;stroke-width:0.47320831;stroke-miterlimit:4;stroke-opacity:0;stroke-dasharray:none"
             height="2.3439298"
             x="1417.7576"
             y="840.12854"
             ry="0.30549899"
             rx="0.36000729" />
        </g>
      </g>
      <g
         transform="matrix(0.045,0,0,0.045,106.65113,998.27294)"
         id="layer1-9"
         inkscape:label="Layer 1">
        <g
           id="g3000"
           transform="translate(57.044182,-13.593342)"
           style="fill:#ffffff">
          <rect
             y="45.582691"
             x="547.21484"
             height="554.4173"
             width="41.68549"
             id="rect2993"
             style="fill:#ffffff;fill-opacity:1;stroke:none" />
          <path
             sodipodi:nodetypes="ccccccccc"
             inkscape:connector-curvature="0"
             id="rect2997"
             d="m 97.011303,45.945175 c 36.822207,0 73.644407,-18.75848 110.466607,-18.75848 75.8795,0 148.31784,31.264134 218.84893,31.264134 36.82221,0 75.72869,-12.505654 112.55089,-12.505654 0,92.855995 0,185.711975 0,278.567965 -36.8222,0 -75.72868,12.50565 -112.55089,12.50565 -75.8795,0 -148.31784,-31.26413 -218.84893,-31.26413 -36.8222,0 -73.6444,18.75848 -110.466607,18.75848 0,-92.85599 0,-185.71197 0,-278.567965 z"
             style="fill:#ffffff;fill-opacity:1;stroke:none" />
        </g>
      </g>
      <g
         transform="matrix(0.045,0,0,0.045,-1.3488715,1025.2729)"
         id="layer1-2"
         inkscape:label="Layer 1">
        <path
           inkscape:connector-curvature="0"
           style="fill:#ffffff;fill-opacity:1;stroke:none"
           d="m 266.125,37.84375 c -47.63912,0 -89.65988,31.206825 -119.0625,78.78125 C 117.6599,164.19942 99.96875,228.7998 99.96875,300 c 0,71.20019 17.69115,135.83183 47.09375,183.40625 29.40262,47.57441 71.42338,78.75 119.0625,78.75 47.63912,0 89.6599,-31.17559 119.0625,-78.75 5.29966,-8.57504 10.24569,-17.72206 14.75,-27.34375 l 0.125,0 c 4.50431,9.62169 9.45034,18.76871 14.75,27.34375 29.40261,47.57441 71.45464,78.75 119.09375,78.75 47.63913,0 89.62864,-31.17559 119.03125,-78.75 C 682.34011,435.83183 700.03125,371.20019 700.03125,300 c 0,-71.2002 -17.69114,-135.80058 -47.09375,-183.375 -29.40261,-47.574426 -71.39212,-78.78125 -119.03125,-78.78125 -47.63911,0 -89.69114,31.206824 -119.09375,78.78125 -5.21848,8.44368 -10.08308,17.44819 -14.53125,26.90625 l -0.5625,0 C 395.27058,134.07319 390.40598,125.06868 385.1875,116.625 355.7849,69.050575 313.76412,37.84375 266.125,37.84375 z M 277.96875,317.5 c 32.34375,0 58.5625,30.84488 58.5625,68.90625 0,38.06137 -26.21875,68.9375 -58.5625,68.9375 -32.34375,0 -58.5625,-30.87613 -58.5625,-68.9375 0,-38.06137 26.21875,-68.90625 58.5625,-68.90625 z m 244.0625,0 c 32.34375,0 58.5625,30.84488 58.5625,68.90625 0,38.06137 -26.21875,68.9375 -58.5625,68.9375 -32.34375,0 -58.5625,-30.87613 -58.5625,-68.9375 0,-38.06137 26.21875,-68.90625 58.5625,-68.90625 z"
           id="path3000" />
      </g>
      <g
         transform="matrix(0.045,0,0,0.045,34.651124,1025.2729)"
         id="layer1-7">
        <g
           transform="translate(3.1875,1.7488806)"
           id="g3107">
          <path
             inkscape:connector-curvature="0"
             d="m 54.40625,361.625 -49.78125,227 712,0 c 40.07091,0 72.37495,-32.30404 72.375,-72.375 L 789,434 c 0,-40.07091 -32.30414,-72.375 -72.375,-72.375 l -662.21875,0 z m 352.6875,36.53125 c 13.70733,1.5e-4 24.44638,3.24972 32.21875,9.75 7.77213,6.35926 11.65612,15.27247 11.65625,26.71875 -1.3e-4,9.46813 -2.33678,18.3039 -7,26.5 -4.52216,8.05497 -10.38686,14.98746 -17.59375,20.78125 -7.2071,5.65261 -14.54172,10.80546 -22.03125,15.46875 -7.34839,4.6634 -14.48195,9.46031 -21.40625,14.40625 -6.92443,4.8047 -11.79878,9.24568 -14.625,13.34375 l 63.59375,0 -5.53125,26.5 -102.15625,0 c 2.96758,-11.02246 6.85157,-20.33779 11.65625,-27.96875 4.94596,-7.77222 10.45473,-13.91542 16.53125,-18.4375 6.07645,-4.52199 12.14221,-8.48342 18.21875,-11.875 6.07643,-3.39147 12.73043,-7.43033 19.9375,-12.09375 7.20692,-4.66328 13.42756,-9.73868 18.65625,-15.25 7.63084,-7.63085 11.4374,-16.66768 11.4375,-27.125 -10e-5,-5.3698 -1.62489,-9.53229 -4.875,-12.5 -3.25031,-2.96746 -7.69129,-4.46862 -13.34375,-4.46875 -7.34839,1.3e-4 -13.36797,2.77014 -18.03125,8.28125 -4.5221,5.37004 -7.49317,13.21546 -8.90625,23.53125 l -28.40625,0 c 2.68493,-17.80542 9.26149,-31.51554 19.71875,-41.125 10.45716,-9.60919 23.88878,-14.43735 40.28125,-14.4375 z m 117.99999,0 c 12.71813,1.5e-4 22.66789,3.76052 29.875,11.25 7.34819,7.48976 11.03112,17.71801 11.03125,30.71875 -1.3e-4,10.73995 -1.77978,23.97051 -5.3125,39.65625 -3.39165,15.68588 -7.27564,28.32821 -11.65625,37.9375 C 537.01947,543.57917 518.435,556.5 493.28125,556.5 c -12.43565,0 -22.26178,-3.72912 -29.46875,-11.21875 -7.20702,-7.63093 -10.81252,-17.93661 -10.8125,-30.9375 -2e-5,-10.7398 1.7022,-23.89293 5.09375,-39.4375 3.3915,-15.54442 7.35293,-28.18675 11.875,-37.9375 5.79382,-12.5768 13.43818,-22.20187 22.90625,-28.84375 9.46795,-6.6416 20.20699,-9.9686 32.21874,-9.96875 z m -287.49999,3.1875 106.1875,0 -4.875,23.3125 -22.25,22.90625 c -15.54461,17.38168 -27.83101,34.06287 -36.875,50.03125 -9.04415,15.82718 -16.41001,33.82341 -22.0625,54.03125 l -30.09375,0 c 8.47879,-25.71908 18.58341,-47.75417 30.3125,-66.125 11.87028,-18.51202 28.11811,-37.73091 48.75,-57.65625 l -74.8125,0 5.71875,-26.5 z m 281.78124,20.5625 c -7.34839,1.3e-4 -13.56902,4.03899 -18.65624,12.09375 -3.5329,5.65266 -7.37071,17.66056 -11.46875,36.03125 -3.95683,18.22954 -5.93755,32.49665 -5.9375,42.8125 -5e-5,5.36996 1.42368,9.68731 4.25,12.9375 2.96753,3.25024 6.92896,4.87502 11.875,4.875 6.21773,2e-5 11.29313,-2.25919 15.24999,-6.78125 3.9567,-4.52201 7.43858,-12.01149 10.40625,-22.46875 2.82618,-10.03322 5.28645,-21.1282 7.40625,-33.28125 2.11961,-12.2942 3.1874,-21.7644 3.1875,-28.40625 -10e-5,-5.3698 -1.50126,-9.68716 -4.46875,-12.9375 -2.96768,-3.25009 -6.89786,-4.87487 -11.84375,-4.875 z"
             id="path3109"
             style="fill:#ffffff;fill-opacity:1;fill-rule:nonzero;stroke:none" />
          <g
             id="g3111"
             style="fill:#ffffff">
            <path
               inkscape:connector-curvature="0"
               d="M 132.98629,14.566162 C 109.49597,115.84245 86.068619,217.13158 62.654065,318.42299 c 37.875355,0 75.750715,0 113.626125,0 9.58203,-41.29619 19.30455,-78.60203 28.7636,-119.92252 l 90.94917,0 c -9.2447,39.9754 -18.54255,79.9403 -27.75264,119.92252 37.87536,0 75.75077,0 113.62613,0 23.94153,-103.32204 47.84619,-206.65136 71.5845,-310.0134867 -37.76838,0 -75.53672,0 -113.30511,0 -8.29458,35.6722997 -16.72821,71.3170257 -25.1101,106.9719567 l -90.94775,0 C 232.03598,81.049361 239.9574,42.749597 247.8647,8.4095033 c -37.82182,0 -75.64375,0 -113.46562,0 l -0.9138,3.9818907 -0.49899,2.174768 z"
               id="path3113"
               style="font-size:94.34880066px;font-style:italic;font-variant:normal;font-weight:bold;font-stretch:normal;text-align:start;line-height:100%;text-anchor:start;fill:#ffffff;fill-opacity:1;stroke:none;font-family:Arial" />
            <path
               inkscape:connector-curvature="0"
               d="M 628.24229,8.1529736 C 588.8783,8.7660753 549.37633,8.2297857 509.96032,8.4095033 487.89426,111.91372 465.83685,215.42021 443.82473,318.93602 530.5549,318.38123 628.84159,326.09641 706.28016,292.8985 789.43472,243.35464 816.10006,132.47611 757.49494,53.558337 727.36991,19.029845 674.84315,5.7394656 628.24229,8.1529736 z m 5.05152,78.1126174 c 26.31051,-2.150474 50.94165,17.077159 48.90793,40.018289 6.53358,43.84239 -11.72428,98.883 -63.91868,112.23079 -16.59312,2.86375 -34.7267,2.50191 -52.24499,2.30874 10.88778,-51.26274 21.77531,-102.52549 32.66293,-153.788234 11.5845,0.0169 23.16582,0.31151 34.59281,-0.769585 z"
               id="path3115"
               style="font-size:94.34880066px;font-style:italic;font-variant:normal;font-weight:bold;font-stretch:normal;text-align:start;line-height:100%;text-anchor:start;fill:#ffffff;fill-opacity:1;stroke:none;font-family:Arial" />
          </g>
        </g>
      </g>
      <g
         transform="matrix(0.045,0,0,0.045,106.65113,1025.2729)"
         id="g3501">
        <g
           id="layer1-3">
          <g
             transform="translate(3.1875,1.7488806)"
             id="g3038">
            <path
               inkscape:connector-curvature="0"
               d="m 54.40625,361.625 -49.78125,227 712,0 c 40.07091,0 72.37495,-32.30404 72.375,-72.375 L 789,434 c 0,-40.07091 -32.30414,-72.375 -72.375,-72.375 l -662.21875,0 z m 204.34375,36.75 145.90625,0 -6.4375,26.28125 -53.5625,0 -32.21875,131.03125 -38.15625,0 32.34375,-131.03125 -54.3125,0 6.4375,-26.28125 z m 159.8125,0 38.03125,0 13.65625,119 76.65625,-119 37.78125,0 -102.0625,157.3125 -40.6875,0 -23.375,-157.3125 z"
               id="path3040"
               style="fill:#ffffff;fill-opacity:1;fill-rule:nonzero;stroke:none" />
            <g
               id="g3042"
               style="fill:#ffffff">
              <path
                 inkscape:connector-curvature="0"
                 d="M 132.98629,14.566162 C 109.49597,115.84245 86.068619,217.13158 62.654065,318.42299 c 37.875355,0 75.750715,0 113.626125,0 9.58203,-41.29619 19.30455,-78.60203 28.7636,-119.92252 l 90.94917,0 c -9.2447,39.9754 -18.54255,79.9403 -27.75264,119.92252 37.87536,0 75.75077,0 113.62613,0 23.94153,-103.32204 47.84619,-206.65136 71.5845,-310.0134867 -37.76838,0 -75.53672,0 -113.30511,0 -8.29458,35.6722997 -16.72821,71.3170257 -25.1101,106.9719567 l -90.94775,0 C 232.03598,81.049361 239.9574,42.749597 247.8647,8.4095033 c -37.82182,0 -75.64375,0 -113.46562,0 l -0.9138,3.9818907 -0.49899,2.174768 z"
                 id="path3044"
                 style="font-size:94.34880066px;font-style:italic;font-variant:normal;font-weight:bold;font-stretch:normal;text-align:start;line-height:100%;text-anchor:start;fill:#ffffff;fill-opacity:1;stroke:none;font-family:Arial" />
              <path
                 inkscape:connector-curvature="0"
                 d="M 628.24229,8.1529736 C 588.8783,8.7660753 549.37633,8.2297857 509.96032,8.4095033 487.89426,111.91372 465.83685,215.42021 443.82473,318.93602 530.5549,318.38123 628.84159,326.09641 706.28016,292.8985 789.43472,243.35464 816.10006,132.47611 757.49494,53.558337 727.36991,19.029845 674.84315,5.7394656 628.24229,8.1529736 z m 5.05152,78.1126174 c 26.31051,-2.150474 50.94165,17.077159 48.90793,40.018289 6.53358,43.84239 -11.72428,98.883 -63.91868,112.23079 -16.59312,2.86375 -34.7267,2.50191 -52.24499,2.30874 10.88778,-51.26274 21.77531,-102.52549 32.66293,-153.788234 11.5845,0.0169 23.16582,0.31151 34.59281,-0.769585 z"
                 id="path3046"
                 style="font-size:94.34880066px;font-style:italic;font-variant:normal;font-weight:bold;font-stretch:normal;text-align:start;line-height:100%;text-anchor:start;fill:#ffffff;fill-opacity:1;stroke:none;font-family:Arial" />
            </g>
          </g>
        </g>
        <rect
           style="fill:#aa0000;fill-opacity:1;stroke:#000000;stroke-width:0.1;stroke-miterlimit:4;stroke-opacity:1;stroke-dasharray:none"
           id="rect2990"
           width="80.581116"
           height="0"
           x="-28.926554"
           y="31.799841" />
      </g>
    </g>
    <rect
       style="fill:none;stroke:none"
       id="rect3101"
       width="41.039619"
       height="34.364502"
       x="-15.575277"
       y="5.5435815"
       transform="translate(0,998.36218)" />
    <g
       id="g3151"
       inkscape:label="Layer 1"
       transform="matrix(0.045,0,0,0.045,-8.6400002,998.27294)">
      <g
         id="g3153"
         style="fill:#ffffff">
        <path
           id="path3155"
           d="m 261.28648,223.33971 0,359.64389 661.58402,0 0,-359.64389 -661.58402,0 z m 35.21065,34.08351 591.16272,0 0,14.52593 -591.16272,0 0,-14.52593 z m 0,95.00253 591.16272,0 0,14.52592 -591.16272,0 0,-14.52592 z m 0,94.97259 591.16272,0 0,14.52592 -204.87489,0 0,98.47677 -17.21488,0 0,-98.47677 -146.94769,0 0,98.47677 -17.21488,0 0,-98.47677 -204.91038,0 0,-14.52592 z"
           style="fill:#ffffff;fill-opacity:1;stroke:none"
           inkscape:connector-curvature="0" />
        <path
           id="path3157"
           d="m 261.28648,140.99072 0,63.8903 43.80034,0 63.00294,-63.8903 -106.80328,0 z m 186.3112,0 -63.00293,63.8903 79.50792,0 63.00294,-63.8903 -79.50793,0 z m 159.01585,0 -63.00293,63.8903 79.50792,0 63.00294,-63.8903 -79.50793,0 z m 159.01585,0 -63.00293,63.8903 79.50792,0 63.00294,-63.8903 -79.50793,0 z m 157.24112,1.81023 -61.2282,62.08007 61.2282,0 0,-62.08007 z"
           style="fill:#ffffff;fill-opacity:1;stroke:none"
           inkscape:connector-curvature="0" />
        <path
           inkscape:connector-curvature="0"
           id="path3159"
           d="m 259.76239,74.386702 5.54035,63.649618 106.40095,-9.26162 -68.30595,-58.186215 -43.63535,3.798217 z M 382.60616,63.69383 450.91212,121.88005 530.12053,114.9854 461.81458,56.799174 382.60616,63.69383 z M 541.023,49.904518 609.32895,108.09074 688.53737,101.19609 620.23142,43.009864 541.023,49.904518 z m 158.41684,-13.78931 68.30595,58.186223 79.20842,-6.894654 -68.30595,-58.186225 -79.20842,6.894656 z m 158.41685,-13.789311 66.38093,56.536717 -5.38338,-61.846217 -60.99755,5.3095 z"
           style="fill:#ffffff;fill-opacity:1;stroke:none" />
      </g>
    </g>
  </g>
</svg>
