<?xml version="1.0" encoding="UTF-8" standalone="no"?>
<!-- Created with Inkscape (http://www.inkscape.org/) -->

<svg
   xmlns:dc="http://purl.org/dc/elements/1.1/"
   xmlns:cc="http://creativecommons.org/ns#"
   xmlns:rdf="http://www.w3.org/1999/02/22-rdf-syntax-ns#"
   xmlns:svg="http://www.w3.org/2000/svg"
   xmlns="http://www.w3.org/2000/svg"
   xmlns:sodipodi="http://sodipodi.sourceforge.net/DTD/sodipodi-0.dtd"
   xmlns:inkscape="http://www.inkscape.org/namespaces/inkscape"
   width="64px"
   height="64px"
   id="svg2993"
   version="1.1"
   inkscape:version="0.48.4 r9939"
   sodipodi:docname="wastebin.svg">
  <defs
     id="defs2995" />
  <sodipodi:namedview
     id="base"
     pagecolor="#ffffff"
     bordercolor="#666666"
     borderopacity="1.0"
     inkscape:pageopacity="0.0"
     inkscape:pageshadow="2"
     inkscape:zoom="2.809082"
     inkscape:cx="8.717102"
     inkscape:cy="25.105469"
     inkscape:current-layer="layer1"
     showgrid="true"
     inkscape:document-units="px"
     inkscape:grid-bbox="true"
     inkscape:window-width="1174"
     inkscape:window-height="688"
     inkscape:window-x="145"
     inkscape:window-y="80"
     inkscape:window-maximized="0"
     showguides="true"
     inkscape:guide-bbox="true" />
  <metadata
     id="metadata2998">
    <rdf:RDF>
      <cc:Work
         rdf:about="">
        <dc:format>image/svg+xml</dc:format>
        <dc:type
           rdf:resource="http://purl.org/dc/dcmitype/StillImage" />
        <dc:title></dc:title>
      </cc:Work>
    </rdf:RDF>
  </metadata>
  <g
     id="layer1"
     inkscape:label="Layer 1"
     inkscape:groupmode="layer">
    <g
       id="g4510"
       transform="matrix(1.3682329,0,0,1.3682329,-11.954481,-22.680723)">
      <path
         id="path3003"
         d="m 32.125,23.78125 c -5.936736,0 -11.306561,0.274979 -15.21875,0.71875 -1.956094,0.221885 -3.523079,0.5086 -4.65625,0.8125 -0.566586,0.15195 -1.033809,0.279617 -1.375,0.46875 -0.341191,0.189133 -0.625,0.456416 -0.625,0.75 0,0.03185 0.02521,0.06324 0.03125,0.09375 l 0.90625,0 c -0.04333,-0.04059 -0.0625,-0.07272 -0.0625,-0.09375 0,-0.04206 0.05148,-0.122633 0.28125,-0.25 0.229767,-0.127367 0.607122,-0.267362 1.125,-0.40625 1.035756,-0.277774 2.57786,-0.563216 4.5,-0.78125 3.84428,-0.436067 9.194515,-0.6875 15.09375,-0.6875 5.899236,0 11.24947,0.251433 15.09375,0.6875 1.92214,0.218034 3.464244,0.503476 4.5,0.78125 0.517878,0.138888 0.895234,0.278883 1.125,0.40625 0.229767,0.127367 0.28125,0.207936 0.28125,0.25 0,0.02103 -0.01917,0.05316 -0.0625,0.09375 l 0.90625,0 C 53.974794,26.594489 54,26.563101 54,26.53125 54,26.237666 53.716191,25.970383 53.375,25.78125 53.033809,25.592117 52.597835,25.46445 52.03125,25.3125 50.898079,25.0086 49.331094,24.721885 47.375,24.5 43.462811,24.056229 38.061736,23.78125 32.125,23.78125 z M 12.25,27.75 c 1.133171,0.3039 2.700156,0.559365 4.65625,0.78125 C 14.950156,28.309365 13.383171,28.0539 12.25,27.75 z m 39.78125,0 C 50.898079,28.0539 49.331094,28.309365 47.375,28.53125 49.331094,28.309365 50.898079,28.0539 52.03125,27.75 z M 23.75,29.0625 c 2.571488,0.124234 5.406632,0.1875 8.375,0.1875 -2.968368,0 -5.801428,-0.06328 -8.375,-0.1875 z m 8.375,0.1875 c 2.968368,0 5.795506,-0.06327 8.375,-0.1875 -2.581384,0.124216 -5.406632,0.1875 -8.375,0.1875 z"
         style="font-size:medium;font-style:normal;font-variant:normal;font-weight:normal;font-stretch:normal;text-indent:0;text-align:start;text-decoration:none;line-height:normal;letter-spacing:normal;word-spacing:normal;text-transform:none;direction:ltr;block-progression:tb;writing-mode:lr-tb;text-anchor:start;baseline-shift:baseline;color:#000000;fill:#ffffff;fill-opacity:1;stroke:none;stroke-width:0.83755153;marker:none;visibility:visible;display:inline;overflow:visible;enable-background:accumulate;font-family:Sans;-inkscape-font-specification:Sans"
         inkscape:connector-curvature="0" />
      <rect
         transform="matrix(0.99874311,0.05012176,-0.35028518,0.9366431,0,0)"
         y="16.803417"
         x="36.746838"
         height="32.723415"
         width="22.483044"
         id="rect4471"
         style="fill:#b3b3b3;fill-opacity:1;stroke:none" />
      <g
         id="g4473">
        <path
           style="fill:none;stroke:#ffffff;stroke-width:0.71882057px;stroke-linecap:butt;stroke-linejoin:miter;stroke-opacity:1"
           d="M 18.885541,59.665899 10.697009,26.527933"
           id="path3011"
           inkscape:connector-curvature="0" />
        <path
           inkscape:connector-curvature="0"
           id="path3013"
           d="M 45.370322,59.665899 53.558855,26.527933"
           style="fill:none;stroke:#ffffff;stroke-width:0.71882057px;stroke-linecap:butt;stroke-linejoin:miter;stroke-opacity:1" />
        <path
           style="font-size:medium;font-style:normal;font-variant:normal;font-weight:normal;font-stretch:normal;text-indent:0;text-align:start;text-decoration:none;line-height:normal;letter-spacing:normal;word-spacing:normal;text-transform:none;direction:ltr;block-progression:tb;writing-mode:lr-tb;text-anchor:start;baseline-shift:baseline;color:#000000;fill:#ffffff;fill-opacity:1;stroke:none;stroke-width:1.06292415;marker:none;visibility:visible;display:inline;overflow:visible;enable-background:accumulate;font-family:Sans;-inkscape-font-specification:Sans"
           d="m 18.490697,59.428142 c -0.0043,0.03523 0,0.07541 0,0.112316 0,0.327424 0.160721,0.588766 0.381873,0.78621 0.221152,0.197443 0.520203,0.362945 0.876063,0.516652 0.711718,0.307415 1.702842,0.563806 2.920208,0.78621 2.434734,0.444807 5.767758,0.718821 9.456983,0.718821 3.689226,0 7.022251,-0.274014 9.456984,-0.718821 1.217367,-0.222404 2.20849,-0.478795 2.920208,-0.78621 0.35586,-0.153707 0.632448,-0.319209 0.8536,-0.516652 0.221152,-0.197444 0.404336,-0.458786 0.404336,-0.78621 0,-0.0369 0.0043,-0.07709 0,-0.112316 l -0.741283,0 c 0.04371,0.06022 0.06739,0.106722 0.06739,0.112316 0,0.0082 -0.0014,0.06065 -0.134779,0.179705 -0.133353,0.119057 -0.356415,0.267206 -0.673894,0.404337 -0.63496,0.274259 -1.594818,0.523767 -2.78543,0.741283 -2.381222,0.435031 -5.707454,0.718821 -9.367131,0.718821 -3.659675,0 -6.963445,-0.28379 -9.344667,-0.718821 -1.190611,-0.217516 -2.150471,-0.467024 -2.78543,-0.741283 -0.31748,-0.137131 -0.563005,-0.28528 -0.696357,-0.404337 -0.133354,-0.119057 -0.134779,-0.171483 -0.134779,-0.179705 0,-0.0056 0.02368,-0.05209 0.06739,-0.112316 l -0.741283,0 z"
           id="path3007"
           inkscape:connector-curvature="0" />
        <path
           inkscape:connector-curvature="0"
           style="font-size:medium;font-style:normal;font-variant:normal;font-weight:normal;font-stretch:normal;text-indent:0;text-align:start;text-decoration:none;line-height:normal;letter-spacing:normal;word-spacing:normal;text-transform:none;direction:ltr;block-progression:tb;writing-mode:lr-tb;text-anchor:start;baseline-shift:baseline;color:#000000;fill:#ffffff;fill-opacity:1;stroke:none;stroke-width:0.83755153;marker:none;visibility:visible;display:inline;overflow:visible;enable-background:accumulate;font-family:Sans;-inkscape-font-specification:Sans"
           d="m 12.335795,34.723177 c -0.0046,0.02854 0,0.06059 0,0.08985 0,0.295553 0.230257,0.528419 0.539116,0.71882 0.308859,0.190402 0.745041,0.34122 1.257936,0.49419 1.02579,0.305939 2.452339,0.562835 4.223071,0.78621 3.541464,0.446747 8.395744,0.71882 13.769906,0.71882 5.374163,0 10.250906,-0.272073 13.79237,-0.71882 1.770732,-0.223375 3.219744,-0.480271 4.245534,-0.78621 0.512895,-0.15297 0.904151,-0.303788 1.21301,-0.49419 0.308859,-0.190401 0.539116,-0.423267 0.539116,-0.71882 0,-0.02984 -0.01771,-0.06077 -0.02246,-0.08985 l -0.808673,0 c 0.02535,0.03534 0.04493,0.07233 0.04493,0.08985 0,0.04235 -0.0391,0.118873 -0.247095,0.247094 -0.207994,0.128222 -0.542038,0.264518 -1.010841,0.404337 -0.937607,0.279639 -2.348298,0.54425 -4.088293,0.763747 -3.47999,0.438993 -8.317375,0.696357 -13.657591,0.696357 -5.340215,0 -10.1776,-0.257364 -13.657591,-0.696357 C 16.728238,36.008711 15.317548,35.7441 14.379941,35.464461 13.911138,35.324642 13.577094,35.188346 13.3691,35.060124 13.161106,34.931903 13.099542,34.855376 13.099542,34.81303 c 0,-0.01619 0.02375,-0.0583 0.04493,-0.08985 l -0.808673,0 z"
           id="path3983" />
        <path
           inkscape:connector-curvature="0"
           style="font-size:medium;font-style:normal;font-variant:normal;font-weight:normal;font-stretch:normal;text-indent:0;text-align:start;text-decoration:none;line-height:normal;letter-spacing:normal;word-spacing:normal;text-transform:none;direction:ltr;block-progression:tb;writing-mode:lr-tb;text-anchor:start;baseline-shift:baseline;color:#000000;fill:#ffffff;fill-opacity:1;stroke:none;stroke-width:0.83755153;marker:none;visibility:visible;display:inline;overflow:visible;enable-background:accumulate;font-family:Sans;-inkscape-font-specification:Sans"
           d="m 14.537183,43.169319 c 0.04097,0.25281 0.227843,0.458728 0.471726,0.628968 0.274571,0.191661 0.667203,0.340209 1.123158,0.494189 0.91191,0.307962 2.177194,0.583822 3.751344,0.808673 3.148301,0.449703 7.464875,0.718821 12.242413,0.718821 4.777538,0 9.116575,-0.269118 12.264877,-0.718821 1.57415,-0.224851 2.839434,-0.500711 3.751344,-0.808673 0.455956,-0.15398 0.826124,-0.302528 1.100694,-0.494189 0.244435,-0.170625 0.43137,-0.375382 0.471726,-0.628968 l -0.741283,0 c -0.03487,0.04114 -0.08725,0.09271 -0.179705,0.157242 -0.184903,0.129069 -0.481768,0.263593 -0.898526,0.404337 -0.833516,0.281488 -2.092204,0.542798 -3.639029,0.763747 -3.093652,0.441896 -7.382738,0.71882 -12.130098,0.71882 -4.74736,0 -9.036445,-0.276924 -12.130097,-0.71882 -1.546826,-0.220949 -2.805513,-0.482259 -3.639029,-0.763747 -0.416758,-0.140744 -0.713623,-0.275268 -0.898526,-0.404337 -0.09245,-0.06453 -0.1673,-0.116104 -0.202168,-0.157242 l -0.718821,0 z"
           id="path3985" />
        <path
           inkscape:connector-curvature="0"
           style="font-size:medium;font-style:normal;font-variant:normal;font-weight:normal;font-stretch:normal;text-indent:0;text-align:start;text-decoration:none;line-height:normal;letter-spacing:normal;word-spacing:normal;text-transform:none;direction:ltr;block-progression:tb;writing-mode:lr-tb;text-anchor:start;baseline-shift:baseline;color:#000000;fill:#ffffff;fill-opacity:1;stroke:none;stroke-width:0.83755153;marker:none;visibility:visible;display:inline;overflow:visible;enable-background:accumulate;font-family:Sans;-inkscape-font-specification:Sans"
           d="m 16.469014,51.345903 c 0,0.299873 0.182554,0.525636 0.426799,0.718821 0.244246,0.193185 0.582781,0.361447 0.988379,0.516652 0.811195,0.310411 1.946713,0.559571 3.347008,0.78621 2.800591,0.453277 6.644736,0.741284 10.894624,0.741284 4.249889,0 8.116497,-0.288007 10.917088,-0.741284 1.400295,-0.226639 2.535813,-0.475799 3.347008,-0.78621 0.405598,-0.155205 0.72167,-0.323467 0.965915,-0.516652 0.244246,-0.193185 0.4268,-0.418948 0.4268,-0.718821 l -0.628968,0 c 0,0.04296 -0.03769,0.116999 -0.202168,0.247095 -0.164481,0.130096 -0.437944,0.262474 -0.808673,0.404336 -0.741459,0.283726 -1.836242,0.563505 -3.21223,0.78621 -2.751977,0.44541 -6.581729,0.718821 -10.804772,0.718821 -4.223043,0 -8.052794,-0.273411 -10.804771,-0.718821 -1.375989,-0.222705 -2.493234,-0.502484 -3.234693,-0.78621 -0.37073,-0.141862 -0.621729,-0.27424 -0.78621,-0.404336 -0.164482,-0.130096 -0.202168,-0.204131 -0.202168,-0.247095 l -0.628968,0 z"
           id="path3987" />
        <path
           style="fill:none;stroke:#ffffff;stroke-width:0.71882057px;stroke-linecap:butt;stroke-linejoin:miter;stroke-opacity:1"
           d="M 20.614047,60.591005 13.919166,27.840375"
           id="path4021"
           inkscape:connector-curvature="0" />
        <path
           style="fill:none;stroke:#ffffff;stroke-width:0.71882057px;stroke-linecap:butt;stroke-linejoin:miter;stroke-opacity:1"
           d="M 22.242531,60.95289 18.261791,28.383203"
           id="path4023"
           inkscape:connector-curvature="0" />
        <path
           style="fill:none;stroke:#ffffff;stroke-width:0.71882057px;stroke-linecap:butt;stroke-linejoin:miter;stroke-opacity:1"
           d="M 24.483479,61.314776 22.674053,28.745088"
           id="path4031"
           inkscape:connector-curvature="0" />
        <path
           inkscape:connector-curvature="0"
           id="path4046"
           d="m 43.829021,60.591005 6.69488,-32.75063"
           style="fill:none;stroke:#ffffff;stroke-width:0.71882057px;stroke-linecap:butt;stroke-linejoin:miter;stroke-opacity:1" />
        <path
           inkscape:connector-curvature="0"
           id="path4048"
           d="m 42.200537,60.95289 3.98074,-32.569687"
           style="fill:none;stroke:#ffffff;stroke-width:0.71882057px;stroke-linecap:butt;stroke-linejoin:miter;stroke-opacity:1" />
        <path
           inkscape:connector-curvature="0"
           id="path4052"
           d="M 39.959589,61.314776 41.769015,28.745088"
           style="fill:none;stroke:#ffffff;stroke-width:0.71882057px;stroke-linecap:butt;stroke-linejoin:miter;stroke-opacity:1" />
        <path
           inkscape:connector-curvature="0"
           id="path4054"
           d="M 37.030515,61.585293 37.57155,28.926927"
           style="fill:none;stroke:#ffffff;stroke-width:0.72061336px;stroke-linecap:butt;stroke-linejoin:miter;stroke-opacity:1" />
        <path
           style="fill:none;stroke:#ffffff;stroke-width:0.71882057px;stroke-linecap:butt;stroke-linejoin:miter;stroke-opacity:1"
           d="m 33.643754,61.840978 0,-32.754128"
           id="path4066"
           inkscape:connector-curvature="0" />
        <path
           id="path4068"
           d="m 13.513617,39.024869 c 0.04336,0.25281 0.241102,0.458728 0.499178,0.628968 0.290549,0.191662 0.70603,0.340209 1.188519,0.494189 0.964978,0.307963 2.303896,0.583822 3.969654,0.808674 3.331514,0.449702 7.899291,0.71882 12.954856,0.71882 5.055565,0 9.647112,-0.269118 12.978628,-0.71882 1.665757,-0.224852 3.004675,-0.500711 3.969654,-0.808674 0.482489,-0.15398 0.874199,-0.302527 1.164748,-0.494189 0.258659,-0.170625 0.456472,-0.375382 0.499178,-0.628968 l -0.784423,0 c -0.0369,0.04114 -0.09233,0.09271 -0.190162,0.157242 -0.195664,0.12907 -0.509804,0.263593 -0.950816,0.404337 -0.882022,0.281488 -2.213959,0.542798 -3.850802,0.763747 -3.273686,0.441896 -7.812374,0.71882 -12.836005,0.71882 -5.023631,0 -9.562318,-0.276924 -12.836005,-0.71882 -1.636842,-0.220949 -2.968779,-0.482259 -3.850801,-0.763747 -0.441011,-0.140744 -0.755152,-0.275267 -0.950816,-0.404337 -0.09783,-0.06453 -0.177036,-0.116104 -0.213933,-0.157242 l -0.760652,0 z"
           style="font-size:medium;font-style:normal;font-variant:normal;font-weight:normal;font-stretch:normal;text-indent:0;text-align:start;text-decoration:none;line-height:normal;letter-spacing:normal;word-spacing:normal;text-transform:none;direction:ltr;block-progression:tb;writing-mode:lr-tb;text-anchor:start;baseline-shift:baseline;color:#000000;fill:#ffffff;fill-opacity:1;stroke:none;stroke-width:0.83755153;marker:none;visibility:visible;display:inline;overflow:visible;enable-background:accumulate;font-family:Sans;-inkscape-font-specification:Sans"
           inkscape:connector-curvature="0" />
        <path
           id="path4070"
           d="m 11.312334,30.616798 c -0.0048,0.02854 0,0.06059 0,0.08985 0,0.295553 0.242165,0.528419 0.566998,0.71882 0.324833,0.190402 0.783573,0.34122 1.322994,0.49419 1.078844,0.305939 2.579171,0.562835 4.441483,0.78621 3.724624,0.446747 8.829962,0.71882 14.482068,0.71882 5.652107,0 10.781069,-0.272073 14.505693,-0.71882 1.862312,-0.223375 3.386264,-0.480271 4.465107,-0.78621 0.539421,-0.15297 0.950912,-0.303788 1.275745,-0.49419 0.324833,-0.190401 0.566998,-0.423267 0.566998,-0.71882 0,-0.02984 -0.01862,-0.06077 -0.02363,-0.08985 l -0.850497,0 c 0.02666,0.03534 0.04725,0.07233 0.04725,0.08985 0,0.04235 -0.04112,0.118873 -0.259874,0.247094 -0.218751,0.128222 -0.570072,0.264518 -1.063121,0.404337 -0.986098,0.279638 -2.469749,0.54425 -4.299733,0.763747 -3.659971,0.438993 -8.747539,0.696357 -14.363943,0.696357 -5.616404,0 -10.703973,-0.257364 -14.363944,-0.696357 -1.829981,-0.219497 -3.31363,-0.484109 -4.299729,-0.763747 -0.493049,-0.139819 -0.844369,-0.276115 -1.06312,-0.404337 -0.218751,-0.128221 -0.283499,-0.204748 -0.283499,-0.247094 0,-0.01619 0.02498,-0.0583 0.04725,-0.08985 l -0.850496,0 z"
           style="font-size:medium;font-style:normal;font-variant:normal;font-weight:normal;font-stretch:normal;text-indent:0;text-align:start;text-decoration:none;line-height:normal;letter-spacing:normal;word-spacing:normal;text-transform:none;direction:ltr;block-progression:tb;writing-mode:lr-tb;text-anchor:start;baseline-shift:baseline;color:#000000;fill:#ffffff;fill-opacity:1;stroke:none;stroke-width:0.83755153;marker:none;visibility:visible;display:inline;overflow:visible;enable-background:accumulate;font-family:Sans;-inkscape-font-specification:Sans"
           inkscape:connector-curvature="0" />
        <path
           id="path4072"
           d="m 15.701339,47.201453 c 0,0.299873 0.191504,0.525636 0.447726,0.718821 0.256222,0.193185 0.611356,0.361447 1.03684,0.516652 0.850969,0.310411 2.042163,0.559571 3.511116,0.78621 2.937909,0.453277 6.970537,0.741284 11.428803,0.741284 4.458267,0 8.51446,-0.288007 11.452368,-0.741284 1.468953,-0.226639 2.660147,-0.475799 3.511116,-0.78621 0.425485,-0.155205 0.757054,-0.323467 1.013276,-0.516652 0.256221,-0.193185 0.447726,-0.418948 0.447726,-0.718821 l -0.659807,0 c 0,0.04296 -0.03954,0.116999 -0.212081,0.247095 -0.172546,0.130096 -0.459416,0.262474 -0.848323,0.404336 -0.777814,0.283726 -1.926276,0.563506 -3.36973,0.78621 -2.88691,0.44541 -6.90444,0.718821 -11.334545,0.718821 -4.430104,0 -8.447634,-0.273411 -11.334544,-0.718821 -1.443455,-0.222704 -2.61548,-0.502484 -3.393294,-0.78621 -0.388908,-0.141862 -0.652213,-0.27424 -0.824759,-0.404336 -0.172547,-0.130096 -0.212081,-0.204131 -0.212081,-0.247095 l -0.659807,0 z"
           style="font-size:medium;font-style:normal;font-variant:normal;font-weight:normal;font-stretch:normal;text-indent:0;text-align:start;text-decoration:none;line-height:normal;letter-spacing:normal;word-spacing:normal;text-transform:none;direction:ltr;block-progression:tb;writing-mode:lr-tb;text-anchor:start;baseline-shift:baseline;color:#000000;fill:#ffffff;fill-opacity:1;stroke:none;stroke-width:0.83755153;marker:none;visibility:visible;display:inline;overflow:visible;enable-background:accumulate;font-family:Sans;-inkscape-font-specification:Sans"
           inkscape:connector-curvature="0" />
        <path
           id="path4074"
           d="m 17.748472,55.387023 c 0,0.299872 0.167635,0.525636 0.391922,0.71882 0.224286,0.193185 0.535157,0.361447 0.907609,0.516653 0.744905,0.31041 1.78763,0.55957 3.073494,0.78621 2.57173,0.453276 6.101735,0.741283 10.004327,0.741283 3.902592,0 7.453225,-0.288007 10.024955,-0.741283 1.285864,-0.22664 2.328589,-0.4758 3.073495,-0.78621 0.372452,-0.155206 0.662695,-0.323468 0.886981,-0.516653 0.224287,-0.193184 0.391922,-0.418948 0.391922,-0.71882 l -0.577569,0 c 0,0.04296 -0.0346,0.116999 -0.185647,0.247094 -0.15104,0.130096 -0.402156,0.262474 -0.74259,0.404337 -0.680868,0.283726 -1.686186,0.563505 -2.949729,0.78621 -2.527089,0.445409 -6.043878,0.71882 -9.921818,0.71882 -3.87794,0 -7.394728,-0.273411 -9.921817,-0.71882 -1.263544,-0.222705 -2.289489,-0.502484 -2.970357,-0.78621 -0.340434,-0.141863 -0.570922,-0.274241 -0.721962,-0.404337 -0.15104,-0.130095 -0.185647,-0.20413 -0.185647,-0.247094 l -0.577569,0 z"
           style="font-size:medium;font-style:normal;font-variant:normal;font-weight:normal;font-stretch:normal;text-indent:0;text-align:start;text-decoration:none;line-height:normal;letter-spacing:normal;word-spacing:normal;text-transform:none;direction:ltr;block-progression:tb;writing-mode:lr-tb;text-anchor:start;baseline-shift:baseline;color:#000000;fill:#ffffff;fill-opacity:1;stroke:none;stroke-width:0.83755153;marker:none;visibility:visible;display:inline;overflow:visible;enable-background:accumulate;font-family:Sans;-inkscape-font-specification:Sans"
           inkscape:connector-curvature="0" />
        <path
           style="fill:none;stroke:#ffffff;stroke-width:0.71882057px;stroke-linecap:butt;stroke-linejoin:miter;stroke-opacity:1"
           d="M 27.074073,61.968924 26.178452,28.958903"
           id="path4080"
           inkscape:connector-curvature="0" />
        <path
           style="fill:none;stroke:#ffffff;stroke-width:0.71882057px;stroke-linecap:butt;stroke-linejoin:miter;stroke-opacity:1"
           d="M 30.272719,61.713032 29.760936,29.08685"
           id="path4082"
           inkscape:connector-curvature="0" />
      </g>
      <path
         id="path4503"
         d="m 10.28125,26.625 c 0.04966,0.250723 0.289575,0.456386 0.59375,0.625 0.341191,0.189133 0.808414,0.34805 1.375,0.5 1.133171,0.3039 2.700156,0.559365 4.65625,0.78125 3.912189,0.443771 9.282014,0.71875 15.21875,0.71875 5.936736,0 11.337811,-0.274979 15.25,-0.71875 1.956094,-0.221885 3.523079,-0.47735 4.65625,-0.78125 0.566585,-0.15195 1.002559,-0.310867 1.34375,-0.5 0.304175,-0.168614 0.544086,-0.374277 0.59375,-0.625 l -0.90625,0 c -0.04333,0.04059 -0.103866,0.09257 -0.21875,0.15625 -0.229766,0.127367 -0.607122,0.267362 -1.125,0.40625 -1.035756,0.277774 -2.57786,0.531966 -4.5,0.75 -3.84428,0.436067 -9.194514,0.71875 -15.09375,0.71875 -5.899235,0 -11.24947,-0.282683 -15.09375,-0.71875 -1.92214,-0.218034 -3.464244,-0.472226 -4.5,-0.75 -0.517878,-0.138888 -0.895233,-0.278883 -1.125,-0.40625 C 11.291367,26.71757 11.230828,26.665595 11.1875,26.625 l -0.90625,0 z"
         style="font-size:medium;font-style:normal;font-variant:normal;font-weight:normal;font-stretch:normal;text-indent:0;text-align:start;text-decoration:none;line-height:normal;letter-spacing:normal;word-spacing:normal;text-transform:none;direction:ltr;block-progression:tb;writing-mode:lr-tb;text-anchor:start;baseline-shift:baseline;color:#000000;fill:#ffffff;fill-opacity:1;stroke:none;stroke-width:0.83755153;marker:none;visibility:visible;display:inline;overflow:visible;enable-background:accumulate;font-family:Sans;-inkscape-font-specification:Sans"
         inkscape:connector-curvature="0" />
    </g>
  </g>
</svg>
