#define d_width 21
#define d_height 21
static unsigned char d_bits[] = {
 0x00, 0x00, 0x00, 0x00, 0x00, 0x00, 0xf8, 0x3f, 0x00, 0xf8, 0x7f, 0x00,
 0x18, 0xc0, 0x00, 0x18, 0x80, 0x01, 0x18, 0x00, 0x03, 0x18, 0x00, 0x03,
 0x18, 0x00, 0x03, 0x18, 0x00, 0x03, 0x18, 0x00, 0x03, 0x18, 0x00, 0x03,
 0x18, 0x00, 0x03, 0x18, 0x00, 0x03, 0x18, 0x00, 0x01, 0x18, 0x80, 0x01,
 0x18, 0xc0, 0x00, 0xf8, 0x7f, 0x00, 0xf8, 0x3f, 0x00, 0x00, 0x00, 0x00,
 0x00, 0x00, 0x00 } ;
