#define noname_width 21
#define noname_height 21
static char noname_bits[] = {
 0x01,0x00,0x00,0xfd,0xff,0x1f,0xf9,0xff,0x0f,0xf1,0xff,0x07,0xe1,0xff,0x03,
 0xc1,0xff,0x01,0x81,0xff,0x00,0x01,0x7f,0x00,0x01,0x3e,0x00,0x01,0x1c,0x00,
 0xfd,0xff,0x1f,0xf9,0xff,0x0f,0xf1,0xff,0x07,0xe1,0xff,0x03,0xc1,0xff,0x01,
 0x81,0xff,0x00,0x01,0x7f,0x00,0x01,0x3e,0x00,0x01,0x1c,0x00,0x01,0x08,0x00,
 0x01,0x00,0x00};
