#define dright_width 21
#define dright_height 21
static unsigned char dright_bits[] = {
 0x00, 0x00, 0x00, 0x02, 0x04, 0x00, 0x06, 0x0c, 0x00, 0x0e, 0x1c, 0x00,
 0x1e, 0x3c, 0x00, 0x3e, 0x7c, 0x00, 0x7e, 0xfc, 0x00, 0xfe, 0xfc, 0x01,
 0xfe, 0xfd, 0x03, 0xfe, 0xff, 0x07, 0xfe, 0xff, 0x0f, 0xfe, 0xff, 0x07,
 0xfe, 0xfd, 0x03, 0xfe, 0xfc, 0x01, 0x7e, 0xfc, 0x00, 0x3e, 0x7c, 0x00,
 0x1e, 0x3c, 0x00, 0x0e, 0x1c, 0x00, 0x06, 0x0c, 0x00, 0x02, 0x04, 0x00,
 0x00, 0x00, 0x00 } ;
