#define i_width 21
#define i_height 21
static unsigned char i_bits[] = {
 0x00, 0x00, 0x00, 0x00, 0x06, 0x00, 0x00, 0x0f, 0x00, 0x00, 0x06, 0x00,
 0x00, 0x00, 0x00, 0x00, 0x00, 0x00, 0x00, 0x00, 0x00, 0x00, 0x06, 0x00,
 0x00, 0x07, 0x00, 0x80, 0x07, 0x00, 0x00, 0x06, 0x00, 0x00, 0x06, 0x00,
 0x00, 0x06, 0x00, 0x00, 0x06, 0x00, 0x00, 0x06, 0x00, 0x00, 0x06, 0x00,
 0x00, 0x06, 0x00, 0x00, 0x0f, 0x00, 0xc0, 0x3f, 0x00, 0x00, 0x00, 0x00,
 0x00, 0x00, 0x00 } ;
