#define noname_width 21
#define noname_height 21
static char noname_bits[] = {
 0x00,0x00,0x00,0x00,0xc0,0x00,0x00,0xe0,0x00,0x00,0xf0,0x00,0x00,0xf8,0x00,
 0x00,0xfc,0x00,0x00,0xfe,0x00,0x00,0xff,0x00,0x80,0xff,0x00,0xc0,0xff,0x00,
 0xe0,0xff,0x00,0xc0,0xff,0x00,0x80,0xff,0x00,0x00,0xff,0x00,0x00,0xfe,0x00,
 0x00,0xfc,0x00,0x00,0xf8,0x00,0x00,0xf0,0x00,0x00,0xe0,0x00,0x00,0xc0,0x00,
 0x00,0x00,0x00};
