#define p_width 21
#define p_height 21
static unsigned char p_bits[] = {
 0x00, 0x00, 0x00, 0xee, 0x04, 0x00, 0xee, 0x0c, 0x00, 0xee, 0x1c, 0x00,
 0xee, 0x3c, 0x00, 0xee, 0x7c, 0x00, 0xee, 0xfc, 0x00, 0xee, 0xfc, 0x01,
 0xee, 0xfc, 0x03, 0xee, 0xfc, 0x07, 0xee, 0xfc, 0x0f, 0xee, 0xfc, 0x07,
 0xee, 0xfc, 0x03, 0xee, 0xfc, 0x01, 0xee, 0xfc, 0x00, 0xee, 0x7c, 0x00,
 0xee, 0x3c, 0x00, 0xee, 0x1c, 0x00, 0xee, 0x0c, 0x00, 0xee, 0x04, 0x00,
 0x00, 0x00, 0x00 } ;
