#define right_width 21
#define right_height 21
static unsigned char right_bits[] = {
 0x00, 0x00, 0x00, 0x60, 0x00, 0x00, 0xe0, 0x00, 0x00, 0xe0, 0x01, 0x00,
 0xe0, 0x03, 0x00, 0xe0, 0x07, 0x00, 0xe0, 0x0f, 0x00, 0xe0, 0x1f, 0x00,
 0xe0, 0x3f, 0x00, 0xe0, 0x7f, 0x00, 0xe0, 0xff, 0x00, 0xe0, 0x7f, 0x00,
 0xe0, 0x3f, 0x00, 0xe0, 0x1f, 0x00, 0xe0, 0x0f, 0x00, 0xe0, 0x07, 0x00,
 0xe0, 0x03, 0x00, 0xe0, 0x01, 0x00, 0xe0, 0x00, 0x00, 0x60, 0x00, 0x00,
 0x00, 0x00, 0x00 } ;
