#define noname_width 21
#define noname_height 21
static char noname_bits[] = {
 0xff,0xff,0x1f,0x00,0x00,0x00,0x00,0x00,0x00,0x00,0x00,0x00,0x00,0x00,0x00,
 0x00,0x00,0x00,0x00,0x04,0x00,0x00,0x0e,0x00,0x00,0x1f,0x00,0x80,0x3f,0x00,
 0xc0,0x7f,0x00,0xe0,0xff,0x00,0xf0,0xff,0x01,0xf8,0xff,0x03,0xfc,0xff,0x07,
 0xfe,0xff,0x0f,0xfe,0xff,0x0f,0x00,0x00,0x00,0x00,0x00,0x00,0x00,0x00,0x00,
 0x00,0x00,0x00};
