/* XPM */
static char * album_pix_xpm[] = {
"28 28 425 2",
"  	c None",
". 	c #4F50B3",
"+ 	c #595BB7",
"@ 	c #5D5FB9",
"# 	c #5C5FB8",
"$ 	c #5657B4",
"% 	c #4748A8",
"& 	c #144255",
"* 	c #024628",
"= 	c #4445AE",
"- 	c #6D6FC1",
"; 	c #8D90D0",
"> 	c #A6A9DC",
", 	c #B7BCE4",
"' 	c #C0C5E8",
") 	c #BFC5E8",
"! 	c #B2B6E4",
"~ 	c #A0A0DC",
"{ 	c #638199",
"] 	c #2C8B49",
"^ 	c #16632A",
"/ 	c #5F60BA",
"( 	c #A3A5D9",
"_ 	c #D2D5EE",
": 	c #E9EDF9",
"< 	c #F2F6FE",
"[ 	c #F5F8FF",
"} 	c #F4F8FF",
"| 	c #F3F8FF",
"1 	c #EFF2FF",
"2 	c #EFF0FE",
"3 	c #C1CFD2",
"4 	c #6AB77C",
"5 	c #72C27D",
"6 	c #297846",
"7 	c #6A6CC1",
"8 	c #CFD2EE",
"9 	c #F0F3FB",
"0 	c #F4F7FF",
"a 	c #F2F6FF",
"b 	c #F0F4FF",
"c 	c #EFF3FF",
"d 	c #EDF2FF",
"e 	c #EAEDFF",
"f 	c #EEF0FF",
"g 	c #E6E9F0",
"h 	c #73B087",
"i 	c #A2E4A7",
"j 	c #9EE4A3",
"k 	c #37944F",
"l 	c #013F22",
"m 	c #6C6FC4",
"n 	c #D8DCF3",
"o 	c #F2F5FF",
"p 	c #EDF1FF",
"q 	c #ECF0FF",
"r 	c #EBEFFF",
"s 	c #E9EEFF",
"t 	c #E5E9FF",
"u 	c #EAECFF",
"v 	c #F6F3FE",
"w 	c #89B39C",
"x 	c #60CF6C",
"y 	c #89F08C",
"z 	c #A3F3A2",
"A 	c #5EC767",
"B 	c #14682A",
"C 	c #696BC0",
"D 	c #CDD3F2",
"E 	c #ECEFFF",
"F 	c #E9ECFF",
"G 	c #E8ECFF",
"H 	c #E8EBFF",
"I 	c #E7EBFF",
"J 	c #E6EAFF",
"K 	c #E5EAFF",
"L 	c #E4E8FF",
"M 	c #E0E3FF",
"N 	c #E9EAFF",
"O 	c #F5F4FF",
"P 	c #B4C5C6",
"Q 	c #3AB34D",
"R 	c #0D7E27",
"S 	c #37954A",
"T 	c #60D267",
"U 	c #5DDB64",
"V 	c #248633",
"W 	c #5354B4",
"X 	c #ACB1E1",
"Y 	c #E3EAFD",
"Z 	c #E5E8FF",
"` 	c #E4E7FF",
" .	c #E3E7FF",
"..	c #E3E6FF",
"+.	c #E2E6FF",
"@.	c #E1E6FF",
"#.	c #DFE3FF",
"$.	c #DEE1FF",
"%.	c #E8E8FF",
"&.	c #EDEDFF",
"*.	c #D4D6EA",
"=.	c #4AAC60",
"-.	c #19952E",
";.	c #83909F",
">.	c #6A948E",
",.	c #3E995D",
"'.	c #32BA43",
").	c #117121",
"!.	c #7F82CA",
"~.	c #D5DCF5",
"{.	c #E2EBFF",
"].	c #E1E5FF",
"^.	c #E0E4FF",
"/.	c #DEE2FF",
"(.	c #D7DAFF",
"_.	c #CFD2FF",
":.	c #CDCEFF",
"<.	c #D8D8FF",
"[.	c #E5E6FF",
"}.	c #E6E7FF",
"|.	c #E6E4FD",
"1.	c #68A781",
"2.	c #12AC22",
"3.	c #718D94",
"4.	c #C1C6FB",
"5.	c #8EA1D3",
"6.	c #3C866F",
"7.	c #0B7F25",
"8.	c #02370D",
"9.	c #5152B2",
"0.	c #A4A7DC",
"a.	c #E4ECFE",
"b.	c #E0EAFF",
"c.	c #DEE6FF",
"d.	c #DFE2FF",
"e.	c #DBDEFF",
"f.	c #C5C6FF",
"g.	c #AEAAFF",
"h.	c #A7A3FE",
"i.	c #B0ACFF",
"j.	c #CCCBFF",
"k.	c #E2E3FF",
"l.	c #E8E7FF",
"m.	c #8FADAD",
"n.	c #12B223",
"o.	c #387D5D",
"p.	c #B2BEF7",
"q.	c #B8C9FF",
"r.	c #768AC6",
"s.	c #166347",
"t.	c #00350E",
"u.	c #6162B9",
"v.	c #C0C6E9",
"w.	c #E7EFFF",
"x.	c #E0E9FF",
"y.	c #DDE7FF",
"z.	c #DCE5FF",
"A.	c #DDE3FF",
"B.	c #DDE1FF",
"C.	c #C4C4FF",
"D.	c #A49FFE",
"E.	c #B4B0F8",
"F.	c #CCC9F2",
"G.	c #CBC9F2",
"H.	c #B2AEF8",
"I.	c #A6A1FE",
"J.	c #C7C6FF",
"K.	c #DBDDFF",
"L.	c #B1BDDC",
"M.	c #1CA632",
"N.	c #1A8E33",
"O.	c #9CAFD9",
"P.	c #BED3FF",
"Q.	c #96A5E9",
"R.	c #325076",
"S.	c #041F15",
"T.	c #6C6DBF",
"U.	c #D2D7F2",
"V.	c #E6EEFF",
"W.	c #DBE6FF",
"X.	c #DAE5FF",
"Y.	c #D0D7FF",
"Z.	c #A9A6FF",
"`.	c #B7B2F7",
" +	c #D3D2E6",
".+	c #9D9ED0",
"++	c #A1A1D0",
"@+	c #D4D3E7",
"#+	c #B4AFF8",
"$+	c #A9A7FF",
"%+	c #C6D0FF",
"&+	c #C4D0FA",
"*+	c #379957",
"=+	c #0DA416",
"-+	c #7998AB",
";+	c #BFD4FF",
">+	c #A4B7F4",
",+	c #484F92",
"'+	c #0A0C22",
")+	c #7375C3",
"!+	c #D9DFF6",
"~+	c #E5EDFF",
"{+	c #C5CBFF",
"]+	c #A5A1FD",
"^+	c #D1CEF0",
"/+	c #9494CB",
"(+	c #25255A",
"_+	c #2C2D67",
":+	c #A09FD2",
"<+	c #D5CFF6",
"[+	c #A39DFB",
"}+	c #ACB7F1",
"|+	c #BFCCF4",
"1+	c #659890",
"2+	c #06AC0A",
"3+	c #508A79",
"4+	c #BACCFD",
"5+	c #AABEF8",
"6+	c #5258A2",
"7+	c #DAE0F6",
"8+	c #A6A1FD",
"9+	c #D1CFF0",
"0+	c #8F8FC9",
"a+	c #252556",
"b+	c #343377",
"c+	c #8A8FC0",
"d+	c #85AC92",
"e+	c #368953",
"f+	c #2A983F",
"g+	c #1E9A32",
"h+	c #18812F",
"i+	c #01A611",
"j+	c #2B8F48",
"k+	c #A7BBE4",
"l+	c #ACC0F8",
"m+	c #5259A3",
"n+	c #6D6EBE",
"o+	c #D4D9F2",
"p+	c #DEE8FF",
"q+	c #D8E3FF",
"r+	c #C8D0FF",
"s+	c #A5A2FF",
"t+	c #BAB5F6",
"u+	c #D1D0E3",
"v+	c #9594CD",
"w+	c #878CBD",
"x+	c #509861",
"y+	c #38B740",
"z+	c #78E978",
"A+	c #80F47F",
"B+	c #42EF44",
"C+	c #06E30A",
"D+	c #00D40F",
"E+	c #1A9B2B",
"F+	c #8BA8BD",
"G+	c #A9BBF5",
"H+	c #4A5095",
"I+	c #6262B7",
"J+	c #C5CAEA",
"K+	c #DFE7FF",
"L+	c #D9E3FF",
"M+	c #D2DAFF",
"N+	c #CCD3FF",
"O+	c #CDD2FF",
"P+	c #BFBFFF",
"Q+	c #A5A0FE",
"R+	c #B8B5F7",
"S+	c #D7D0F5",
"T+	c #84AD92",
"U+	c #0DAD17",
"V+	c #34E73A",
"W+	c #46EA47",
"X+	c #32E535",
"Y+	c #18E021",
"Z+	c #02E010",
"`+	c #00E10E",
" @	c #0DAE1C",
".@	c #679891",
"+@	c #99A8EB",
"@@	c #3C407F",
"#@	c #5050AC",
"$@	c #A7AADD",
"%@	c #DFE5FE",
"&@	c #D4DAFF",
"*@	c #CCD2FF",
"=@	c #CAD0FF",
"-@	c #D5D9FF",
";@	c #E7E9FF",
">@	c #CACAFF",
",@	c #AAA7FF",
"'@	c #ACA3FF",
")@	c #35835B",
"!@	c #01BE10",
"~@	c #05D119",
"{@	c #05CF17",
"]@	c #01CE16",
"^@	c #00CC17",
"/@	c #00CB19",
"(@	c #00CD19",
"_@	c #08AB1C",
":@	c #558D7E",
"<@	c #7E87D6",
"[@	c #292B63",
"}@	c #7D7DC9",
"|@	c #C8CAF6",
"1@	c #CCD1FF",
"2@	c #CFD3FF",
"3@	c #EBEEFF",
"4@	c #EEF1FF",
"5@	c #C8CDFF",
"6@	c #C6CAFF",
"7@	c #569977",
"8@	c #00A114",
"9@	c #00B726",
"0@	c #00B525",
"a@	c #00B425",
"b@	c #00B627",
"c@	c #00AF1F",
"d@	c #168A2A",
"e@	c #6C8EA3",
"f@	c #5D61B0",
"g@	c #15153E",
"h@	c #5150AE",
"i@	c #A8A8E4",
"j@	c #DCDFFE",
"k@	c #E9EBFF",
"l@	c #EFF0FF",
"m@	c #EEEFFF",
"n@	c #C8D1FF",
"o@	c #CEDCFF",
"p@	c #ADC9D4",
"q@	c #308F46",
"r@	c #008F1B",
"s@	c #009927",
"t@	c #009C2A",
"u@	c #009A27",
"v@	c #00911D",
"w@	c #147D28",
"x@	c #64918D",
"y@	c #808DD2",
"z@	c #33357B",
"A@	c #6D6DBA",
"B@	c #DEDFF5",
"C@	c #F2F4FF",
"D@	c #D9DEFF",
"E@	c #C4CDFF",
"F@	c #CCDBFF",
"G@	c #CEDCFD",
"H@	c #AFC9D8",
"I@	c #5F9A7B",
"J@	c #26813D",
"K@	c #177C2D",
"L@	c #237B38",
"M@	c #498464",
"N@	c #91ABC2",
"O@	c #A6B6EA",
"P@	c #5155A7",
"Q@	c #0F0F32",
"R@	c #1E1E6A",
"S@	c #7878C0",
"T@	c #E4E5F6",
"U@	c #F1F3FF",
"V@	c #CDD3FF",
"W@	c #C4CEFF",
"X@	c #CDDCFF",
"Y@	c #CFDBFF",
"Z@	c #C5D2FA",
"`@	c #BBC9F2",
" #	c #BDCBF9",
".#	c #C6D5FF",
"+#	c #B5C6F5",
"@#	c #5D62B5",
"##	c #141445",
"$#	c #1F1F6D",
"%#	c #7272BB",
"&#	c #D8D9F3",
"*#	c #F0F0FD",
"=#	c #C6CCFF",
"-#	c #CDDDFF",
";#	c #C9DAFF",
">#	c #C7D8FF",
",#	c #C7D9FF",
"'#	c #C7DAFF",
")#	c #C3D6FD",
"!#	c #AFBDF2",
"~#	c #5C5FB1",
"{#	c #17164E",
"]#	c #171757",
"^#	c #5E5DA8",
"/#	c #AAAADA",
"(#	c #D8D8F3",
"_#	c #D6DAFD",
":#	c #C6CDFF",
"<#	c #CDD8FF",
"[#	c #D2E1FF",
"}#	c #D0DFFF",
"|#	c #CEDEFF",
"1#	c #CBDCFF",
"2#	c #C5D5FC",
"3#	c #B5C3F2",
"4#	c #8F98D7",
"5#	c #4E509D",
"6#	c #11103E",
"7#	c #36367D",
"8#	c #6565A3",
"9#	c #8787C9",
"0#	c #9C9EE1",
"a#	c #B3B9EB",
"b#	c #BEC7F0",
"c#	c #BBC5F0",
"d#	c #B1BAEB",
"e#	c #9FA6DF",
"f#	c #8187C6",
"g#	c #595C9C",
"h#	c #2C2C6A",
"i#	c #0B0B26",
"j#	c #26255C",
"k#	c #373770",
"l#	c #46467F",
"m#	c #4E5089",
"n#	c #4D4E88",
"o#	c #43447C",
"p#	c #343468",
"q#	c #20204E",
"r#	c #0D0D2B",
"                                                        ",
"                                                        ",
"                      . + @ # $ % & *                   ",
"                = - ; > , ' ) ! ~ { ] ^                 ",
"              / ( _ : < [ } | 1 2 3 4 5 6               ",
"            7 8 9 0 a b b c d e f g h i j k l           ",
"          m n o 1 p q q r r s t u v w x y z A B         ",
"        C D E F G H I J J K L M N O P Q R S T U V       ",
"      W X Y t Z `  ...+.+.@.#.$.%.&.*.=.-.;.>.,.'.).    ",
"      !.~.{.].^.M #.#./.(._.:.<.[.}.|.1.2.3.4.5.6.7.8.  ",
"    9.0.a.b.c.#.d.d.e.f.g.h.h.i.j.k.l.m.n.o.p.q.r.s.t.  ",
"    u.v.w.x.y.z.A.B.C.D.E.F.G.H.I.J.K.L.M.N.O.P.Q.R.S.  ",
"    T.U.V.x.y.W.X.Y.Z.`. +.+++@+#+$+%+&+*+=+-+;+>+,+'+  ",
"    )+!+~+x.y.W.X.{+]+^+/+(+_+:+<+[+}+|+1+2+3+4+5+6+    ",
"    )+7+~+x.y.W.X.{+8+9+0+a+b+c+d+e+f+g+h+i+j+k+l+m+    ",
"    n+o+V.x.p+W.q+r+s+t+u+v+w+x+y+z+A+B+C+D+E+F+G+H+    ",
"    I+J+w.K+L+M+N+O+P+Q+R+S+T+U+V+W+X+Y+Z+`+ @.@+@@@    ",
"    #@$@%@&@*@=@-@Z ;@>@,@'@)@!@~@{@]@^@/@(@_@:@<@[@    ",
"      }@|@1@2@M 3@f 4@e 5@6@7@8@9@0@a@a@b@c@d@e@f@g@    ",
"      h@i@j@k@f l@m@f Z n@o@p@q@r@s@t@u@v@w@x@y@z@      ",
"        A@B@C@f f m@l@D@E@F@G@H@I@J@K@L@M@N@O@P@Q@      ",
"        R@S@T@U@l@f F V@W@X@F@F@Y@Z@`@ #.#+#@###        ",
"          $#%#&#*#U@+.=#%+-#F@;#>#,#'#)#!#~#{#          ",
"            ]#^#/#(#_#:#<#[#}#|#1#2#3#4#5#6#            ",
"                7#8#9#0#a#b#c#d#e#f#g#h#i#              ",
"                    j#k#l#m#n#o#p#q#r#                  ",
"                                                        ",
"                                                        "};
