/* XPM */
static const char * const album_pix[] = {
/* width height num_colors chars_per_pixel */
"    16    16       11            1",
/* colors */
". c #000000",
"# c #808080",
"a c #553f55",
"b c #555f55",
"c c #7f5f55",
"d c #aa9faa",
"e c #aabfaa",
"f c #2a3f55",
"g c #a0a0a4",
"h c None",
"i c #ffffff",
/* pixels */
"hhhg...ghhhhhhhh",
"hhf.ggg..hhhhhhh",
"h.gg#####.hhhhhh",
"g.g######.ghhhhh",
".g##dieb##.hhhhh",
".g##i.ia...ghhhh",
".g##ei..ggg..hhh",
"g.##b.gg#####.hh",
"h.#ca.g######.gh",
"hh...g##dieb##.h",
"hhhg.g##i.ib##.h",
"hhhh.g##eieb#c.h",
"hhhhg.##bcb##.gh",
"hhhhh.######c.hh",
"hhhhhh..bbb..hhh",
"hhhhhhhg...ghhhh"
};
