/* XPM */
static char * artist_pix_xpm[] = {
"28 28 250 2",
"  	c None",
". 	c #9E99FE",
"+ 	c #A6A2FE",
"@ 	c #A5A1FE",
"# 	c #A4A0FE",
"$ 	c #A39FFE",
"% 	c #A29DFE",
"& 	c #A09CFE",
"* 	c #9F9BFE",
"= 	c #9D9AFE",
"- 	c #9D98FE",
"; 	c #9B98FE",
"> 	c #9A96FE",
", 	c #9895FE",
"' 	c #9894FE",
") 	c #9692FE",
"! 	c #9491FE",
"~ 	c #9390FE",
"{ 	c #928EFE",
"] 	c #918DFE",
"^ 	c #908DFE",
"/ 	c #8E8CFE",
"( 	c #8D8AFE",
"_ 	c #8C89FE",
": 	c #8B87FE",
"< 	c #8682FE",
"[ 	c #8B85FC",
"} 	c #AEACFF",
"| 	c #DCE2FF",
"1 	c #DCE3FF",
"2 	c #DAE1FF",
"3 	c #D8E0FF",
"4 	c #D5DEFF",
"5 	c #D4DDFF",
"6 	c #D2DBFF",
"7 	c #D0DAFF",
"8 	c #CDD9FF",
"9 	c #CBD7FF",
"0 	c #CAD6FF",
"a 	c #C7D4FF",
"b 	c #C6D3FF",
"c 	c #C4D1FF",
"d 	c #C1D0FF",
"e 	c #BFCFFF",
"f 	c #BDCDFF",
"g 	c #BBCCFF",
"h 	c #B9CBFF",
"i 	c #B7C9FF",
"j 	c #B5C7FF",
"k 	c #B3C6FF",
"l 	c #B2C5FF",
"m 	c #A4B1FF",
"n 	c #8A86FD",
"o 	c #B0AFFF",
"p 	c #E2E9FF",
"q 	c #E2EAFF",
"r 	c #E0E9FF",
"s 	c #DEE7FF",
"t 	c #DCE6FF",
"u 	c #DAE4FF",
"v 	c #D7E3FF",
"w 	c #D5E2FF",
"x 	c #D3E0FF",
"y 	c #D1DFFF",
"z 	c #CFDDFF",
"A 	c #CDDCFF",
"B 	c #CBDAFF",
"C 	c #C9D9FF",
"D 	c #C7D7FF",
"E 	c #C5D6FF",
"F 	c #C3D5FF",
"G 	c #C1D3FF",
"H 	c #BED2FF",
"I 	c #BCD0FF",
"J 	c #BACFFF",
"K 	c #B8CDFF",
"L 	c #B6CCFF",
"M 	c #A8B7FF",
"N 	c #8B87FD",
"O 	c #CADAFF",
"P 	c #D8E3FF",
"Q 	c #CDDAFB",
"R 	c #C9D7FA",
"S 	c #C6D4F9",
"T 	c #B9C6F3",
"U 	c #AAB6EB",
"V 	c #B7C4F3",
"W 	c #C0CFF9",
"X 	c #C1D1FB",
"Y 	c #D9E4FF",
"Z 	c #CDD9F9",
"` 	c #979FDE",
" .	c #9098DA",
"..	c #8D95D9",
"+.	c #858CD5",
"@.	c #8188D3",
"#.	c #858CD6",
"$.	c #8992D9",
"%.	c #929DDF",
"&.	c #B8C9F8",
"*.	c #C1D4FF",
"=.	c #D7E2FD",
"-.	c #ACB5E8",
";.	c #868DD4",
">.	c #868CD4",
",.	c #848BD4",
"'.	c #838BD4",
").	c #828AD4",
"!.	c #8289D4",
"~.	c #8088D4",
"{.	c #7E87D3",
"].	c #939FE1",
"^.	c #BED0FC",
"/.	c #DBE6FF",
"(.	c #C3CDF3",
"_.	c #8E95D8",
":.	c #7F87D4",
"<.	c #848ED8",
"[.	c #B2C3F6",
"}.	c #BFD2FF",
"|.	c #DBE5FF",
"1.	c #CBD5F7",
"2.	c #969DDC",
"3.	c #7F88D4",
"4.	c #7D86D4",
"5.	c #9CAAE8",
"6.	c #C0D4FF",
"7.	c #8B87FC",
"8.	c #D8E3FE",
"9.	c #ABB4E7",
"0.	c #878DD4",
"a.	c #7E87D4",
"b.	c #8F9BE0",
"c.	c #BDD1FF",
"d.	c #ADB6E8",
"e.	c #8C96DC",
"f.	c #B3C4F5",
"g.	c #929EE0",
"h.	c #B1B9EA",
"i.	c #8892DA",
"j.	c #ADBDF2",
"k.	c #BFC9F1",
"l.	c #888ED5",
"m.	c #848BD3",
"n.	c #7F87D3",
"o.	c #8B96DC",
"p.	c #BECFFB",
"q.	c #D6E2FF",
"r.	c #BEC9F3",
"s.	c #9BA3E0",
"t.	c #8188D4",
"u.	c #868FD8",
"v.	c #B5C5F4",
"w.	c #C4D6FF",
"x.	c #DAE5FF",
"y.	c #D8E4FE",
"z.	c #CCD7F9",
"A.	c #8D95D8",
"B.	c #959FE1",
"C.	c #B8C7F6",
"D.	c #BDCEFB",
"E.	c #C0D3FE",
"F.	c #E1EAFF",
"G.	c #DBE3FC",
"H.	c #C8D1F4",
"I.	c #B9C2ED",
"J.	c #ACB5E7",
"K.	c #9BA3DF",
"L.	c #858CD4",
"M.	c #818AD5",
"N.	c #818AD6",
"O.	c #8893DA",
"P.	c #A7B6EE",
"Q.	c #BCCFFC",
"R.	c #BBCFFF",
"S.	c #E2EAFE",
"T.	c #C0C7EE",
"U.	c #989DDA",
"V.	c #8B90D4",
"W.	c #898FD4",
"X.	c #888DD4",
"Y.	c #838ED9",
"Z.	c #8894DD",
"`.	c #ABBDF5",
" +	c #B9CEFF",
".+	c #E3EAFF",
"++	c #DBE2FA",
"@+	c #9BA0DB",
"#+	c #8B8FD3",
"$+	c #898ED4",
"%+	c #7C85D4",
"&+	c #7A83D3",
"*+	c #8B98DF",
"=+	c #B5CAFC",
"-+	c #B7CDFF",
";+	c #8A86FC",
">+	c #E3EBFF",
",+	c #D4DCF8",
"'+	c #9499D8",
")+	c #7C86D4",
"!+	c #7B85D4",
"~+	c #7C87D6",
"{+	c #A4B6F1",
"]+	c #B0AEFF",
"^+	c #D8E0F9",
"/+	c #999EDA",
"(+	c #8D92D5",
"_+	c #8B91D5",
":+	c #8B90D5",
"<+	c #898FD5",
"[+	c #888FD5",
"}+	c #878ED5",
"|+	c #868DD5",
"1+	c #848CD5",
"2+	c #838BD5",
"3+	c #828AD5",
"4+	c #8089D5",
"5+	c #7F88D5",
"6+	c #7D87D5",
"7+	c #7C87D5",
"8+	c #7B86D6",
"9+	c #99A9EA",
"0+	c #B6CCFE",
"a+	c #A7B7FF",
"b+	c #A09CFF",
"c+	c #B7B6FF",
"d+	c #B4B4FD",
"e+	c #A09FF4",
"f+	c #9A99F2",
"g+	c #9998F2",
"h+	c #9897F2",
"i+	c #9796F2",
"j+	c #9595F2",
"k+	c #9494F2",
"l+	c #9392F2",
"m+	c #9191F2",
"n+	c #9090F2",
"o+	c #8F8FF2",
"p+	c #8E8DF2",
"q+	c #8C8DF2",
"r+	c #8B8CF2",
"s+	c #898BF2",
"t+	c #8889F2",
"u+	c #8788F2",
"v+	c #8687F2",
"w+	c #8587F3",
"x+	c #9094FA",
"y+	c #949AFF",
"z+	c #8C8FFF",
"A+	c #857FFD",
"                                                        ",
"                                                        ",
"                                                        ",
"  . + @ # $ % & * = - ; > , ' ) ! ~ { ] ^ / ( _ : < [   ",
"  } | 1 2 3 4 5 6 7 8 9 0 a b c d e f g h i j k l m n   ",
"  o p q r s t u v w x y z A B C D E F G H I J K L M N   ",
"  o p q r s t u v w x y z A B C D E F G H I J K L M N   ",
"  o p q r s t u v w x y z A B C D E F G H I J K L M N   ",
"  o p q r s t u v w x y z A A O D E F G H I J K L M N   ",
"  o p q r s t u P w Q R S T U V W X F G H I J K L M N   ",
"  o p q r s t u Y Z `  ...+.@.#.$.%.&.*.H I J K L M N   ",
"  o p q r s t u =.-.;.>.,.'.).!.~.{.].^.H I J K L M N   ",
"  o p q r s t /.(._.>.>.,.'.).!.~.:.<.[.}.I J K L M N   ",
"  o p q r s t |.1.2.>.>.,.'.).!.~.3.4.5.6.I J K L M 7.  ",
"  o p q r s t u 8.9.0.>.,.'.).!.~.3.a.b.}.c.J K L M 7.  ",
"  o p q r s t u 8.d.0.>.,.'.).!.~.:.e.f.H I J K L M 7.  ",
"  o p q r s t u 8.d.0.>.,.'.).!.~.{.g.^.H I J K L M 7.  ",
"  o p q r s t u P h.0.>.,.'.).!.3.i.j.6.H I J K L M 7.  ",
"  o p q r s t u Y k.l.m.,.'.).!.n.o.p.*.H I J K L M 7.  ",
"  o p q r s t u P q.r.s.,.'.).t.u.v.w.G H I J K L M 7.  ",
"  o p q r s t x.y.z.` A.,.'.).t.B.C.D.E.}.I J K L M 7.  ",
"  o p q F.G.H.I.J.K.;.L.,.'.).!.M.N.O.P.Q.c.R.K L M 7.  ",
"  o p S.T.U.V.W.X.0.;.>.,.'.).!.~.3.a.a.Y.Z.`. +L M 7.  ",
"  o .+++@+#+V.W.$+0.;.>.,.'.).!.~.3.a.4.%+&+*+=+-+M ;+  ",
"  o >+,+'+V.V.W.$+0.;.>.,.'.).!.~.3.a.4.)+!+~+{+-+M ;+  ",
"  ]+p ^+/+(+(+_+:+<+[+}+|++.1+2+3+M.4+5+6+7+8+9+0+a+;+  ",
"  b+c+d+e+f+g+h+i+j+k+l+m+n+o+p+q+r+s+t+u+v+w+x+y+z+A+  ",
"                                                        "};
