/* XPM */
static char * container_pix_xpm[] = {
"28 28 313 2",
"  	c None",
". 	c #9092C8",
"+ 	c #9B9DE4",
"@ 	c #999AEA",
"# 	c #9898EA",
"$ 	c #9897E7",
"% 	c #9897E4",
"& 	c #9998E2",
"* 	c #8E8FD9",
"= 	c #9896FC",
"- 	c #8E8AFF",
"; 	c #8985FF",
"> 	c #8782FF",
", 	c #8985FC",
"' 	c #8988F6",
") 	c #7F87F1",
"! 	c #6A7FEB",
"~ 	c #4C6FE8",
"{ 	c #3362E1",
"] 	c #8987E4",
"^ 	c #8884FD",
"/ 	c #7A77FF",
"( 	c #716EFD",
"_ 	c #6C69F8",
": 	c #6D67F3",
"< 	c #7269F0",
"[ 	c #7A71F0",
"} 	c #837BF3",
"| 	c #8283FA",
"1 	c #7281FE",
"2 	c #5074F7",
"3 	c #2D63F1",
"4 	c #7E7FF2",
"5 	c #7974EE",
"6 	c #856EC6",
"7 	c #9970A2",
"8 	c #AC7488",
"9 	c #BC7777",
"0 	c #C77A6F",
"a 	c #CD7D6F",
"b 	c #D28074",
"c 	c #D3847F",
"d 	c #D0878E",
"e 	c #C185A0",
"f 	c #9775B3",
"g 	c #7B78B2",
"h 	c #7A8A99",
"i 	c #877CCB",
"j 	c #AC7F9D",
"k 	c #D48851",
"l 	c #F09423",
"m 	c #F49A14",
"n 	c #F89C10",
"o 	c #FA9B11",
"p 	c #FC9914",
"q 	c #FC9718",
"r 	c #FD931D",
"s 	c #FD8F23",
"t 	c #FC8828",
"u 	c #FB7B2C",
"v 	c #F78432",
"w 	c #DCAC55",
"x 	c #7BB793",
"y 	c #4AB15E",
"z 	c #B87C7A",
"A 	c #ED8849",
"B 	c #FE9319",
"C 	c #FF9D0C",
"D 	c #FFA206",
"E 	c #FFA503",
"F 	c #FFA502",
"G 	c #FFA402",
"H 	c #FFA204",
"I 	c #FE9D08",
"J 	c #FE980C",
"K 	c #FE8C11",
"L 	c #FD8017",
"M 	c #FE9130",
"N 	c #FFC351",
"O 	c #FFE354",
"P 	c #B3D4AF",
"Q 	c #74C5D0",
"R 	c #3EBB4E",
"S 	c #51A45B",
"T 	c #B06A5A",
"U 	c #F47F43",
"V 	c #FF882F",
"W 	c #FF9024",
"X 	c #FF9916",
"Y 	c #FFA00B",
"Z 	c #FFA304",
"` 	c #FEA301",
" .	c #FEA101",
"..	c #FE9C02",
"+.	c #FE9503",
"@.	c #FE8C05",
"#.	c #FD830D",
"$.	c #FE9B33",
"%.	c #FFCC64",
"&.	c #FFE778",
"*.	c #FFF371",
"=.	c #D2E587",
"-.	c #7DC2F0",
";.	c #7FC5D0",
">.	c #41BB57",
",.	c #45AC4C",
"'.	c #C16741",
").	c #F07E3E",
"!.	c #FF8A30",
"~.	c #FF9220",
"{.	c #FF9A12",
"].	c #FE9E0A",
"^.	c #FE9D06",
"/.	c #FE9804",
"(.	c #FE9203",
"_.	c #FD8903",
":.	c #FD8307",
"<.	c #FEA32D",
"[.	c #FFD669",
"}.	c #FFEE87",
"|.	c #FFF78C",
"1.	c #FFFB80",
"2.	c #F1F26A",
"3.	c #78C1DB",
"4.	c #8AC7FC",
"5.	c #79C4C5",
"6.	c #3FB956",
"7.	c #46AB4C",
"8.	c #B0603F",
"9.	c #EE7E3F",
"0.	c #FE8B2F",
"a.	c #FF931D",
"b.	c #FE9614",
"c.	c #FE930E",
"d.	c #FE8E0B",
"e.	c #FD8608",
"f.	c #FD810A",
"g.	c #FEA11E",
"h.	c #FFD94A",
"i.	c #FFF278",
"j.	c #FFFB91",
"k.	c #FFFC8C",
"l.	c #FFFA73",
"m.	c #FEF548",
"n.	c #8DC9B4",
"o.	c #79C1FF",
"p.	c #94CAF7",
"q.	c #67C0AC",
"r.	c #3CB54D",
"s.	c #A0583C",
"t.	c #F38040",
"u.	c #FF8A2B",
"v.	c #FE8B20",
"w.	c #FE8818",
"x.	c #FD8113",
"y.	c #FD7C12",
"z.	c #FE9E1D",
"A.	c #FFD12B",
"B.	c #FFEE42",
"C.	c #FFF86C",
"D.	c #FFFC82",
"E.	c #FFF972",
"F.	c #FFF452",
"G.	c #FFF32F",
"H.	c #A8D290",
"I.	c #71BEFF",
"J.	c #96CBFF",
"K.	c #88C6EE",
"L.	c #4EBC86",
"M.	c #43AA4F",
"N.	c #95543C",
"O.	c #FF843E",
"P.	c #FF812C",
"Q.	c #FE7C22",
"R.	c #FD761D",
"S.	c #FE951D",
"T.	c #FFC81E",
"U.	c #FFE322",
"V.	c #FFF033",
"W.	c #FFF54E",
"X.	c #FFF658",
"Y.	c #FFF449",
"Z.	c #FFF036",
"`.	c #FFF226",
" +	c #BFDA76",
".+	c #70BEFF",
"++	c #91C9FF",
"@+	c #69BFCF",
"#+	c #41B362",
"$+	c #B16041",
"%+	c #FF7D3B",
"&+	c #FE732D",
"*+	c #FE8924",
"=+	c #FFBC17",
"-+	c #FFD611",
";+	c #FFE218",
">+	c #FFEC28",
",+	c #FFF134",
"'+	c #FFF136",
")+	c #FFF031",
"!+	c #FFEF2F",
"~+	c #FFF127",
"{+	c #CCDE68",
"]+	c #72BFFF",
"^+	c #76C0FA",
"/+	c #48BA93",
"(+	c #398449",
"_+	c #DB6E46",
":+	c #FF8532",
"<+	c #FFB114",
"[+	c #FFC806",
"}+	c #FFD20B",
"|+	c #FFDD18",
"1+	c #FFE927",
"2+	c #FFED2D",
"3+	c #FFEF2E",
"4+	c #D1DF63",
"5+	c #95CAFF",
"6+	c #7CC1FF",
"7+	c #4EBACE",
"8+	c #3A8E5E",
"9+	c #98603D",
"0+	c #E89C27",
"a+	c #F2B407",
"b+	c #FCBC04",
"c+	c #FFCA0D",
"d+	c #FFD71B",
"e+	c #FFE225",
"f+	c #FFE82B",
"g+	c #FFED2E",
"h+	c #C9DD6B",
"i+	c #6DBCFF",
"j+	c #90C7FD",
"k+	c #8FC7FE",
"l+	c #7DC1FE",
"m+	c #4FB7F1",
"n+	c #3A9981",
"o+	c #BA8514",
"p+	c #CF9414",
"q+	c #E2A814",
"r+	c #F9C215",
"s+	c #FFD51B",
"t+	c #FFDF24",
"u+	c #FFE82A",
"v+	c #FFEE2E",
"w+	c #B9D67D",
"x+	c #65B6FE",
"y+	c #87C1FA",
"z+	c #77BCFB",
"A+	c #4FB3FC",
"B+	c #3B9DA4",
"C+	c #634741",
"D+	c #80592B",
"E+	c #B88616",
"F+	c #D9A917",
"G+	c #FECE19",
"H+	c #FFE023",
"I+	c #FFEA2C",
"J+	c #FFEE2F",
"K+	c #FFF227",
"L+	c #9BCA98",
"M+	c #5BADFD",
"N+	c #77B6F4",
"O+	c #69B2F5",
"P+	c #48ACFB",
"Q+	c #3994B9",
"R+	c #563C41",
"S+	c #BC9119",
"T+	c #EEC41D",
"U+	c #FFE324",
"V+	c #FFED2C",
"W+	c #FBEF30",
"X+	c #72B6BA",
"Y+	c #4EA2F4",
"Z+	c #60A7ED",
"`+	c #5DA5EC",
" @	c #52A2EC",
".@	c #3A9FF4",
"+@	c #3382BD",
"@@	c #6C5046",
"#@	c #533A33",
"$@	c #A5831D",
"%@	c #E2C021",
"&@	c #FFEA23",
"*@	c #DFE248",
"=@	c #419ED8",
"-@	c #3792E9",
";@	c #3A91E7",
">@	c #358EE6",
",@	c #2E8CE5",
"'@	c #238DEB",
")@	c #2970B0",
"!@	c #624838",
"~@	c #9C7E23",
"{@	c #E3CD1E",
"]@	c #9DC87D",
"^@	c #1B87E4",
"/@	c #2171C1",
"(@	c #2364A8",
"_@	c #2360A1",
":@	c #2266AC",
"<@	c #1C77CF",
"[@	c #245E99",
"}@	c #72523E",
"|@	c #654329",
"1@	c #8D7A33",
"2@	c #4C6969",
"3@	c #744D2E",
"4@	c #71523C",
"5@	c #545257",
"6@	c #5C5049",
"7@	c #59595E",
"8@	c #3F3F44",
"                                                        ",
"                                                        ",
"          . + @ # $ % &                                 ",
"          * = - ; > > , ' ) ! ~ {                       ",
"          ] ^ / ( _ : < [ } | 1 2 3                     ",
"          4 5 6 7 8 9 0 a b c d e f g h                 ",
"        i j k l m n o p q r s t u v w x y               ",
"      z A B C D E F G H I J K L M N O P Q R S           ",
"    T U V W X Y Z `  ...+.@.#.$.%.&.*.=.-.;.>.,.        ",
"      '.).!.~.{.].^./.(._.:.<.[.}.|.1.2.3.4.5.6.7.      ",
"        8.9.0.a.b.c.d.e.f.g.h.i.j.k.l.m.n.o.p.q.r.      ",
"          s.t.u.v.w.x.y.z.A.B.C.D.E.F.G.H.I.J.K.L.M.    ",
"            N.O.P.Q.R.S.T.U.V.W.X.Y.Z.`. +.+J.++@+#+    ",
"              $+%+&+*+=+-+;+>+,+'+)+!+~+{+]+J.++^+/+(+  ",
"                _+:+<+[+}+|+1+2+3+!+!+~+4+I.5+++6+7+8+  ",
"                9+0+a+b+c+d+e+f+g+!+!+~+h+i+j+k+l+m+n+  ",
"                    o+p+q+r+s+t+u+v+!+`.w+x+y+y+z+A+B+  ",
"                      C+D+E+F+G+H+I+J+K+L+M+N+N+O+P+Q+  ",
"                      R+      S+T+U+V+W+X+Y+Z+`+ @.@+@  ",
"                    @@#@        $@%@&@*@=@-@;@>@,@'@)@  ",
"                    !@            ~@{@]@^@/@(@_@:@<@[@  ",
"                  }@|@              1@2@                ",
"                  3@                                    ",
"                4@                                      ",
"              5@6@                                      ",
"              7@                                        ",
"              8@                                        ",
"                                                        "};
