/* XPM */
static char * del_playlist_pix_xpm[] = {
"28 28 101 2",
"  	c None",
". 	c #1248BA",
"+ 	c #164FC1",
"@ 	c #1850C1",
"# 	c #1A53C1",
"$ 	c #1C56C3",
"% 	c #1D58C4",
"& 	c #1E5BC5",
"* 	c #1F5DC6",
"= 	c #215FC7",
"- 	c #2261C7",
"; 	c #2463C9",
"> 	c #2565C9",
", 	c #2667CA",
"' 	c #2769CB",
") 	c #286BCB",
"! 	c #2A6DCC",
"~ 	c #2B6FCE",
"{ 	c #2D71CE",
"] 	c #236BCA",
"^ 	c #FF6C76",
"/ 	c #3678E8",
"( 	c #5E98F5",
"_ 	c #669CF4",
": 	c #5194FA",
"< 	c #5498FB",
"[ 	c #5A9CFB",
"} 	c #5E9FFB",
"| 	c #60A2FB",
"1 	c #66A5FB",
"2 	c #69A8FB",
"3 	c #6DACFB",
"4 	c #72AEFB",
"5 	c #75B2FB",
"6 	c #79B4FB",
"7 	c #7EB8FB",
"8 	c #81BBFC",
"9 	c #84BEFC",
"0 	c #8AC2FC",
"a 	c #69A6EA",
"b 	c #3A7CEA",
"c 	c #D2B149",
"d 	c #FFBC0D",
"e 	c #B2AD83",
"f 	c #5B9CFE",
"g 	c #5C9EFF",
"h 	c #60A1FF",
"i 	c #62A4FF",
"j 	c #68A7FF",
"k 	c #6CAAFF",
"l 	c #6FAEFF",
"m 	c #74B0FF",
"n 	c #78B4FF",
"o 	c #7BB6FF",
"p 	c #80BAFF",
"q 	c #84BDFF",
"r 	c #87C0FF",
"s 	c #8DC4FF",
"t 	c #6BA8ED",
"u 	c #B2AE82",
"v 	c #5C9CFD",
"w 	c #A6A886",
"x 	c #5296FE",
"y 	c #579BFE",
"z 	c #5A9EFE",
"A 	c #5EA0FE",
"B 	c #63A4FE",
"C 	c #66A7FE",
"D 	c #6AAAFE",
"E 	c #6FAEFE",
"F 	c #72B0FE",
"G 	c #77B4FE",
"H 	c #7CB6FE",
"I 	c #7FBAFE",
"J 	c #82BCFE",
"K 	c #3377EB",
"L 	c #5A98FA",
"M 	c #63A3ED",
"N 	c #3E6CC8",
"O 	c #4F7ACF",
"P 	c #547DCE",
"Q 	c #557ECE",
"R 	c #5680CE",
"S 	c #5881CE",
"T 	c #5981CE",
"U 	c #5A82CE",
"V 	c #5C83CE",
"W 	c #5D84CE",
"X 	c #5E86CE",
"Y 	c #6087CE",
"Z 	c #6187CE",
"` 	c #4C7CCA",
" .	c #B7C3A6",
"..	c #CFAF49",
"+.	c #82BDFE",
"@.	c #5895F9",
"#.	c #629AF6",
"$.	c #507ACF",
"%.	c #527CCE",
"&.	c #6288CE",
"*.	c #6489CE",
"                                                        ",
"                                                        ",
"          . + @ # $ % & * = - ; > , ' ) ! ~ { ]         ",
"      ^   / ( _ : < [ } | 1 2 3 4 5 6 7 8 9 0 a   ^     ",
"      ^ ^ b c d e f g h i j k l m n o p q r s t ^ ^     ",
"        ^ ^ c d u v g h i j k l m n o p q r s ^ ^       ",
"          ^ ^ d w x y z A B C D E F G H I J ^ ^         ",
"          K ^ ^ L x y z A B C D E F G H I ^ ^ M         ",
"          N O ^ ^ P Q R S T U V W X Y Z ^ ^ Z `         ",
"                ^ ^                   ^ ^               ",
"                  ^ ^               ^ ^                 ",
"          . + @ # $ ^ ^ * = - ; > ^ ^ ) ! ~ { ]         ",
"          / ( _ : < [ ^ ^ 1 2 3 ^ ^ 6 7 8 9 0 a         ",
"          b  .d e f g h ^ ^ k ^ ^ n o p q r s t         ",
"          b c d u v g h i ^ ^ ^ m n o p q r s t         ",
"          K ..d w x y z ^ ^ C ^ ^ F G H I J +.M         ",
"          K @.#.L x y ^ ^ B C D ^ ^ G H I J +.M         ",
"          N O $.%.P ^ ^ S T U V W ^ ^ Z &.*.Z `         ",
"                  ^ ^               ^ ^                 ",
"                ^ ^                   ^ ^               ",
"          . + ^ ^ $ % & * = - ; > , ' ) ^ ^ { ]         ",
"          / ^ ^ : < [ } | 1 2 3 4 5 6 7 8 ^ ^ a         ",
"          ^ ^ d e f g h i j k l m n o p q r ^ ^         ",
"        ^ ^ c d u v g h i j k l m n o p q r s ^ ^       ",
"      ^ ^ K ..d w x y z A B C D E F G H I J +.M ^ ^     ",
"      ^   K @.#.L x y z A B C D E F G H I J +.M   ^     ",
"          N O $.%.P Q R S T U V W X Y Z &.*.Z `         ",
"                                                        "};
