/* XPM */
static char * edit_track_pix_xpm[] = {
"28 28 284 2",
"  	c None",
". 	c #7A7A7A",
"+ 	c #9D9D9D",
"@ 	c #A7A7A7",
"# 	c #A6A6A6",
"$ 	c #A5A5A5",
"% 	c #8E8E8E",
"& 	c #AEAEAE",
"* 	c #F9F9F9",
"= 	c #FFFFFF",
"- 	c #FEFEFE",
"; 	c #FDFDFD",
"> 	c #FBFBFB",
", 	c #FAFAFA",
"' 	c #F8F8F8",
") 	c #F7F7F7",
"! 	c #F6F6F6",
"~ 	c #F5F5F5",
"{ 	c #E5E5E5",
"] 	c #797979",
"^ 	c #B6B6B6",
"/ 	c #E7EAEB",
"( 	c #EEEFF0",
"_ 	c #9F656B",
": 	c #DD9595",
"< 	c #CB8383",
"[ 	c #AB6767",
"} 	c #986C6E",
"| 	c #84626E",
"1 	c #826D80",
"2 	c #796A84",
"3 	c #EFEFEF",
"4 	c #ECECEC",
"5 	c #7D7D7D",
"6 	c #B5B5B5",
"7 	c #FCFCFC",
"8 	c #F6F5F6",
"9 	c #89A89D",
"0 	c #7D9C92",
"a 	c #EFF0F1",
"b 	c #81545D",
"c 	c #FFB5B5",
"d 	c #FFBEBE",
"e 	c #FFCACA",
"f 	c #FFD8D8",
"g 	c #FFE7E7",
"h 	c #FCF2F2",
"i 	c #C08080",
"j 	c #D3D3D9",
"k 	c #EAEAEA",
"l 	c #7B7B7B",
"m 	c #B4B4B4",
"n 	c #F9F8F8",
"o 	c #F9F7FA",
"p 	c #80AD93",
"q 	c #24873B",
"r 	c #85A397",
"s 	c #8A7283",
"t 	c #FFA5A5",
"u 	c #FFAEAE",
"v 	c #FFB9B9",
"w 	c #FFC6C6",
"x 	c #FFD5D5",
"y 	c #D39B9B",
"z 	c #756A7B",
"A 	c #EDEDED",
"B 	c #EEEEEE",
"C 	c #E9E9E9",
"D 	c #B3B3B3",
"E 	c #AAC2B8",
"F 	c #64BF72",
"G 	c #49A55D",
"H 	c #79948F",
"I 	c #F89696",
"J 	c #FF8A8A",
"K 	c #FFA8A8",
"L 	c #FFB3B3",
"M 	c #FFC2C2",
"N 	c #EFBBBB",
"O 	c #A09CAB",
"P 	c #FAF9F9",
"Q 	c #D6DBDC",
"R 	c #4B5076",
"S 	c #742E2E",
"T 	c #45445A",
"U 	c #E48282",
"V 	c #FF7878",
"W 	c #FF8888",
"X 	c #FF9F9F",
"Y 	c #FFBDBD",
"Z 	c #8F595B",
"` 	c #E7E7E7",
" .	c #777777",
"..	c #B1B1B1",
"+.	c #F2EFF3",
"@.	c #994242",
"#.	c #723131",
"$.	c #A9EFAA",
"%.	c #E8ABAB",
"&.	c #FF7070",
"*.	c #FE7878",
"=.	c #FF7A7A",
"-.	c #FF9898",
";.	c #E28989",
">.	c #EBEBEB",
",.	c #767676",
"'.	c #B0B0B0",
").	c #F4F4F4",
"!.	c #842020",
"~.	c #D38787",
"{.	c #37C146",
"].	c #37A449",
"^.	c #C09191",
"/.	c #CB5353",
"(.	c #6D6F4B",
"_.	c #FC8282",
":.	c #FF7373",
"<.	c #FF9090",
"[.	c #EC8A8A",
"}.	c #E6E6E6",
"|.	c #757575",
"1.	c #AFAFAF",
"2.	c #503153",
"3.	c #F34949",
"4.	c #C1CBC9",
"5.	c #30AE42",
"6.	c #1D7F34",
"7.	c #78625A",
"8.	c #62AC6E",
"9.	c #43B84F",
"0.	c #A36F68",
"a.	c #FF6363",
"b.	c #FF6B6B",
"c.	c #FF9999",
"d.	c #E8E8E8",
"e.	c #737373",
"f.	c #F3F3F3",
"g.	c #AA2326",
"h.	c #F07474",
"i.	c #E6E4E8",
"j.	c #44A155",
"k.	c #1EA231",
"l.	c #A1ACA9",
"m.	c #D0D8D4",
"n.	c #8FB599",
"o.	c #34A546",
"p.	c #FE9595",
"q.	c #FF4E4E",
"r.	c #F24D4D",
"s.	c #727272",
"t.	c #5C4360",
"u.	c #FD3A3A",
"v.	c #EF9393",
"w.	c #F8F3F7",
"x.	c #6EA37D",
"y.	c #0DAE1F",
"z.	c #769A82",
"A.	c #F2EEF1",
"B.	c #EAE9EB",
"C.	c #9CBCA5",
"D.	c #EE9B9B",
"E.	c #FF4949",
"F.	c #DF3838",
"G.	c #E4E4E4",
"H.	c #707070",
"I.	c #ACACAC",
"J.	c #F2F2F2",
"K.	c #A5292A",
"L.	c #FF4444",
"M.	c #E39999",
"N.	c #F8F5F7",
"O.	c #A7B9AF",
"P.	c #03A917",
"Q.	c #499358",
"R.	c #DFDCDF",
"S.	c #F0EEEF",
"T.	c #E5E5E6",
"U.	c #E3E3E3",
"V.	c #6F6F6F",
"W.	c #ABABAB",
"X.	c #C3CADB",
"Y.	c #F3F1F2",
"Z.	c #DDDCDF",
"`.	c #139A25",
" +	c #269D31",
".+	c #BBC1BF",
"++	c #EFEDEE",
"@+	c #ECEBEB",
"#+	c #674C5F",
"$+	c #E2E2E2",
"%+	c #6E6E6E",
"&+	c #AAAAAA",
"*+	c #F1F1F1",
"=+	c #4C5180",
"-+	c #F0E9F0",
";+	c #3F984C",
">+	c #16A419",
",+	c #91AB98",
"'+	c #EDEAEC",
")+	c #AB2426",
"!+	c #E1E1E1",
"~+	c #6D6D6D",
"{+	c #584566",
"]+	c #A9706D",
"^+	c #86BC8E",
"/+	c #418F4D",
"(+	c #556833",
"_+	c #669F6F",
":+	c #E2E0E2",
"<+	c #664055",
"[+	c #6B6B6B",
"}+	c #A8A8A8",
"|+	c #F0F0F0",
"1+	c #E7E9E7",
"2+	c #63773F",
"3+	c #429B4B",
"4+	c #CDCFCE",
"5+	c #E0E0E0",
"6+	c #6A6A6A",
"7+	c #F0EFF0",
"8+	c #A6C6A9",
"9+	c #27A02F",
"0+	c #DFDFDF",
"a+	c #696969",
"b+	c #E8EAE8",
"c+	c #52A45B",
"d+	c #8D585B",
"e+	c #373957",
"f+	c #334575",
"g+	c #DEDEDE",
"h+	c #676767",
"i+	c #E2E5E2",
"j+	c #359A42",
"k+	c #5B587E",
"l+	c #63607C",
"m+	c #89A68D",
"n+	c #E3E1E3",
"o+	c #666666",
"p+	c #EBEBEC",
"q+	c #79AE7C",
"r+	c #534966",
"s+	c #745667",
"t+	c #C3C7C3",
"u+	c #E5E4E5",
"v+	c #DDDDDD",
"w+	c #656565",
"x+	c #A4A4A4",
"y+	c #EDECED",
"z+	c #575985",
"A+	c #82555D",
"B+	c #E4E2E4",
"C+	c #DCDCDC",
"D+	c #636363",
"E+	c #A3A3A3",
"F+	c #EAEBEA",
"G+	c #ECEBEC",
"H+	c #605784",
"I+	c #746380",
"J+	c #7D5D6E",
"K+	c #976B6E",
"L+	c #D5DCE4",
"M+	c #DBDBDB",
"N+	c #626262",
"O+	c #EFEEEF",
"P+	c #F1EEF1",
"Q+	c #EBE8EA",
"R+	c #E6E4E5",
"S+	c #E8E6E8",
"T+	c #ECEAEC",
"U+	c #EAE9EA",
"V+	c #606060",
"W+	c #C8C8C8",
"X+	c #D5D5D5",
"Y+	c #D4D4D4",
"Z+	c #D3D3D3",
"`+	c #D1D2D1",
" @	c #D0D0D0",
".@	c #CFCFCF",
"+@	c #CECECE",
"@@	c #ADADAD",
"#@	c #414141",
"$@	c #3C3C3C",
"%@	c #3D3D3D",
"&@	c #2F2F2F",
"                                                        ",
"      . + @ # # # # # # # # # @ # # # # # # # $ %       ",
"      & * = - - - ; ; - ; > , , * ' ' ) ! ! ~ ! { ]     ",
"      ^ = - ; > > , * / ( ) _ : < [ } | 1 2 3 3 4 5     ",
"      6 - ; 7 , , , 8 9 0 a b c d e f g h i j 3 k l     ",
"      m ; 7 > , * n o p q r s t u v w x y z A B C ]     ",
"      D 7 > , * ' ) > E F G H I J K L M N O 4 A C ]     ",
"      D > , * ' ) ) P Q R S T U V W X u Y Z 4 4 `  .    ",
"      ..> * ' ) ) ~ ! +.@.#.$.%.&.*.=.-.K ;.>.>.` ,.    ",
"      '., ' ) ) ~ ~ ).!.~.{.].^./.(._.:.<.[.C k }.|.    ",
"      1.* ) ) ~ ).).2.3.4.5.6.7.8.9.0.a.b.c.d.C { e.    ",
"      & ' ) ! ).).f.g.h.i.j.k.l.m.n.o.p.q.r.d.C { s.    ",
"      & ' ! ~ ).f.t.u.v.w.x.y.z.A.B.C.D.E.F.` d.G.H.    ",
"      I.) ~ ).f.J.K.L.M.N.O.P.Q.R.S.T.M.L.K.` ` U.V.    ",
"      W.! ).f.J.X.F.E.D.Y.Z.`. +.+++@+v.u.#+}.}.$+%+    ",
"      &+~ f.J.*+=+r.q.p.d.-+;+>+,+'+d.h.)+{ { { !+~+    ",
"      &+~ J.J.*+{+c.b.a.]+^+/+(+_+:+d.3.<+{ U.G.!+[+    ",
"      }+).*+*+|+1+[.<.:._.2+/.^.3+4+~.!.{ U.U.G.5+6+    ",
"      }+f.*+|+7+8+;.K -.=.*.&.%.9+#.@.{ G.U.$+U.0+a+    ",
"      @ f.|+3 b+c+d+Y u X W V U e+S f+G.U.$+!+$+g+h+    ",
"      # J.3 B i+j+k+N M L K J I l+m+n+G.$+!+5+$+g+o+    ",
"      $ *+B A p+q+r+y x w v u t s+t+u+$+!+5+5+5+v+w+    ",
"      x+|+A 4 y+z+i h g f e d c A+B+U.!+5+5+0+0+C+D+    ",
"      E+3 4 4 F+G+H+I+J+K+[ < : _ L+!+5+5+0+v+g+M+N+    ",
"      E+f.|+|+B A O+P+Q+R+S+T+U+` }.{ G.U.$+!+U.0+V+    ",
"      . W+X+X+Y+Y+Z+Z+Z+Z+Z+`+ @ @ @ @.@+@+@+@+@@@#@    ",
"        $@%@%@%@%@$@$@$@$@$@$@$@$@$@$@$@$@$@$@$@&@      ",
"                                                        "};
