/* XPM */
static char * edit_playlist_pix_xpm[] = {
"28 28 266 2",
"  	c None",
". 	c #1248BA",
"+ 	c #164FC1",
"@ 	c #1850C1",
"# 	c #1A53C1",
"$ 	c #1C56C3",
"% 	c #1D58C4",
"& 	c #1E5BC5",
"* 	c #1F5DC6",
"= 	c #215FC7",
"- 	c #2261C7",
"; 	c #2463C9",
"> 	c #2565C9",
", 	c #2667CA",
"' 	c #2769CB",
") 	c #286BCB",
"! 	c #2A6DCC",
"~ 	c #2B6FCE",
"{ 	c #2D71CE",
"] 	c #236BCA",
"^ 	c #3678E8",
"/ 	c #5E98F5",
"( 	c #669CF4",
"_ 	c #5194FA",
": 	c #5498FB",
"< 	c #5A9CFB",
"[ 	c #5E9FFB",
"} 	c #60A2FB",
"| 	c #66A5FB",
"1 	c #69A8FB",
"2 	c #53638C",
"3 	c #576F9D",
"4 	c #6B94CD",
"5 	c #68A9E7",
"6 	c #7AAFEE",
"7 	c #80BAFB",
"8 	c #83BCFA",
"9 	c #89C1FB",
"0 	c #69A6EA",
"a 	c #3A7CEA",
"b 	c #D2B149",
"c 	c #FFBC0D",
"d 	c #B2AD83",
"e 	c #5B9CFE",
"f 	c #5C9EFF",
"g 	c #60A1FF",
"h 	c #62A4FF",
"i 	c #68A7FF",
"j 	c #66A1F0",
"k 	c #9F656B",
"l 	c #DD9595",
"m 	c #CB8383",
"n 	c #AB6767",
"o 	c #986C6E",
"p 	c #84626E",
"q 	c #826D80",
"r 	c #796A84",
"s 	c #5E83B4",
"t 	c #B2AE82",
"u 	c #5C9CFD",
"v 	c #6BA9FE",
"w 	c #81545D",
"x 	c #FFB5B5",
"y 	c #FFBEBE",
"z 	c #FFCACA",
"A 	c #FFD8D8",
"B 	c #FFE7E7",
"C 	c #FCF2F2",
"D 	c #C08080",
"E 	c #5E5E7E",
"F 	c #3377EB",
"G 	c #CFAF49",
"H 	c #A6A886",
"I 	c #5296FE",
"J 	c #579BFE",
"K 	c #5A9EFE",
"L 	c #5EA0FE",
"M 	c #63A4FE",
"N 	c #66A7FE",
"O 	c #705367",
"P 	c #FFA5A5",
"Q 	c #FFAEAE",
"R 	c #FFB9B9",
"S 	c #FFC6C6",
"T 	c #FFD5D5",
"U 	c #D39B9B",
"V 	c #5F5266",
"W 	c #5F99DE",
"X 	c #5895F9",
"Y 	c #629AF6",
"Z 	c #5A98FA",
"` 	c #61A2FB",
" .	c #5375AC",
"..	c #5B5C7D",
"+.	c #F89696",
"@.	c #FF8A8A",
"#.	c #FFA8A8",
"$.	c #FFB3B3",
"%.	c #FFC2C2",
"&.	c #EFBBBB",
"*.	c #6B657F",
"=.	c #62A2EC",
"-.	c #3E6CC8",
";.	c #4F7ACF",
">.	c #507ACF",
",.	c #527CCE",
"'.	c #547DCE",
").	c #557ECE",
"!.	c #5680CE",
"~.	c #577FCC",
"{.	c #4B5076",
"].	c #742E2E",
"^.	c #45445A",
"/.	c #E48282",
"(.	c #FF7878",
"_.	c #FF8888",
":.	c #FF9F9F",
"<.	c #FFBDBD",
"[.	c #8F595B",
"}.	c #4371B6",
"|.	c #994242",
"1.	c #723131",
"2.	c #E8ABAB",
"3.	c #FF7070",
"4.	c #FE7878",
"5.	c #FF7A7A",
"6.	c #FF9898",
"7.	c #E28989",
"8.	c #842020",
"9.	c #D38787",
"0.	c #C09191",
"a.	c #CB5353",
"b.	c #884848",
"c.	c #FC8282",
"d.	c #FF7373",
"e.	c #FF9090",
"f.	c #EC8A8A",
"g.	c #503153",
"h.	c #F34949",
"i.	c #75566A",
"j.	c #225FC1",
"k.	c #265DB8",
"l.	c #814448",
"m.	c #423E5E",
"n.	c #29518F",
"o.	c #AC6C6C",
"p.	c #FF6363",
"q.	c #FF6B6B",
"r.	c #FF9999",
"s.	c #443E64",
"t.	c #5075B9",
"u.	c #AA2326",
"v.	c #F07474",
"w.	c #5E6590",
"x.	c #6CAAF9",
"y.	c #5D84BC",
"z.	c #6FA7EB",
"A.	c #79B4FB",
"B.	c #674C5E",
"C.	c #FE9595",
"D.	c #FF4E4E",
"E.	c #F24D4D",
"F.	c #565877",
"G.	c #B7C3A6",
"H.	c #599AFB",
"I.	c #5C4360",
"J.	c #FD3A3A",
"K.	c #EF9393",
"L.	c #5D76AE",
"M.	c #6CAAFF",
"N.	c #6FAEFF",
"O.	c #74B0FF",
"P.	c #78B4FF",
"Q.	c #7BB6FF",
"R.	c #67789F",
"S.	c #EE9B9B",
"T.	c #FF4949",
"U.	c #DF3838",
"V.	c #5B6F98",
"W.	c #5892EB",
"X.	c #A5292A",
"Y.	c #FF4444",
"Z.	c #E39999",
"`.	c #4E679C",
" +	c #5D729C",
".+	c #669DDC",
"++	c #4C64A2",
"@+	c #576B9E",
"#+	c #6AAAFE",
"$+	c #6FAEFE",
"%+	c #72B0FE",
"&+	c #77B4FE",
"*+	c #6A7FAE",
"=+	c #674C5F",
"-+	c #61A1EA",
";+	c #4C5180",
">+	c #60475F",
",+	c #65A0EE",
"'+	c #5A84BE",
")+	c #71AEFC",
"!+	c #696D91",
"~+	c #AB2426",
"{+	c #6D8DBB",
"]+	c #63A3ED",
"^+	c #584566",
"/+	c #496191",
"(+	c #534760",
"_+	c #844548",
":+	c #5A7CBD",
"<+	c #5E83C7",
"[+	c #805E6B",
"}+	c #664055",
"|+	c #6187CE",
"1+	c #4C7CCA",
"2+	c #184FB0",
"3+	c #8D585B",
"4+	c #373957",
"5+	c #334575",
"6+	c #296CCA",
"7+	c #5397FA",
"8+	c #5B587E",
"9+	c #63607C",
"0+	c #5F7DAA",
"a+	c #7CB5F8",
"b+	c #81BBFC",
"c+	c #84BEFC",
"d+	c #8AC2FC",
"e+	c #5793EE",
"f+	c #534966",
"g+	c #745667",
"h+	c #80BAFF",
"i+	c #84BDFF",
"j+	c #87C0FF",
"k+	c #8DC4FF",
"l+	c #6BA8ED",
"m+	c #B1AD81",
"n+	c #575985",
"o+	c #82555D",
"p+	c #7AB5FE",
"q+	c #4C76C1",
"r+	c #605784",
"s+	c #746380",
"t+	c #7D5D6E",
"u+	c #976B6E",
"v+	c #70ABF0",
"w+	c #7CB6FE",
"x+	c #7FBAFE",
"y+	c #82BCFE",
"z+	c #82BDFE",
"A+	c #569AFD",
"B+	c #599DFC",
"C+	c #5D9FFD",
"D+	c #609CF0",
"E+	c #589EE9",
"F+	c #628DCF",
"G+	c #556F9F",
"H+	c #56658D",
"I+	c #5881CE",
"J+	c #5981CE",
"K+	c #5A82CE",
"L+	c #5C83CE",
"M+	c #5D84CE",
"N+	c #5E86CE",
"O+	c #6087CE",
"P+	c #6288CE",
"Q+	c #6489CE",
"                                                        ",
"                                                        ",
"          . + @ # $ % & * = - ; > , ' ) ! ~ { ]         ",
"          ^ / ( _ : < [ } | 1 2 3 4 5 6 7 8 9 0         ",
"          a b c d e f g h i j k l m n o p q r s         ",
"          a b c t u f g h i v w x y z A B C D E         ",
"          F G c H I J K L M N O P Q R S T U V W         ",
"          F X Y Z I J K L `  ...+.@.#.$.%.&.*.=.        ",
"          -.;.>.,.'.).!.~.{.].^./.(._.:.Q <.[.}.        ",
"                          |.1.  2.3.4.5.6.#.7.          ",
"                        8.9.    0.a.b.c.d.e.f.          ",
"          . + @ # $ % g.h.i.j.k.l.m.n.o.p.q.r.s.        ",
"          ^ / ( _ : t.u.v.w.1 x.y.z.A.B.C.D.E.F.        ",
"          a G.c d H.I.J.K.L.M.N.O.P.Q.R.S.T.U.V.        ",
"          a b c t W.X.Y.Z.`.M.N.O.P.Q. +Z.Y.X..+        ",
"          F G c H ++U.T.S.@+N #+$+%+&+*+K.J.=+-+        ",
"          F X Y Z ;+E.D.C.>+N ,+'+)+&+!+v.~+{+]+        ",
"          -.;.>.,.^+r.q.p.o./+(+_+:+<+[+h.}+|+1+        ",
"                    f.e.d.c.b.a.0.    9.8.              ",
"                    7.#.6.5.4.3.2.  1.|.                ",
"          . + @ # 2+3+<.Q :._.(./.4+].5+6+~ { ]         ",
"          ^ / ( _ 7+8+&.%.$.#.@.+.9+0+a+b+c+d+0         ",
"          a G.c d e+f+U T S R Q P g+Q.h+i+j+k+l+        ",
"          a b c m+n+D C B A z y x o+p+h+i+j+k+l+        ",
"          F G c H q+r+s+t+u+n m l k v+w+x+y+z+]+        ",
"          F X Y Z I A+B+C+D+E+F+G+H+&+w+x+y+z+]+        ",
"          -.;.>.,.'.).!.I+J+K+L+M+N+O+|+P+Q+|+1+        ",
"                                                        "};
