/* XPM */
static char * genre_pix_xpm[] = {
"28 28 235 2",
"  	c None",
". 	c #B42929",
"+ 	c #E15555",
"@ 	c #A82424",
"# 	c #E95B23",
"$ 	c #F49011",
"% 	c #F8980A",
"& 	c #DB5B11",
"* 	c #9B0B0B",
"= 	c #CF4C4C",
"- 	c #FA7878",
"; 	c #FF7373",
"> 	c #FA6868",
", 	c #CA3D3D",
"' 	c #740808",
") 	c #EB6E20",
"! 	c #FABA08",
"~ 	c #FFC700",
"{ 	c #FFB900",
"] 	c #FEA302",
"^ 	c #F27407",
"/ 	c #B02828",
"( 	c #EB7575",
"_ 	c #FF8585",
": 	c #FF7C7C",
"< 	c #FF6B6B",
"[ 	c #FF6767",
"} 	c #EB5959",
"| 	c #981E1E",
"1 	c #F19B17",
"2 	c #FEE102",
"3 	c #FFD600",
"4 	c #FFAB00",
"5 	c #FFA800",
"6 	c #FF9000",
"7 	c #DA5600",
"8 	c #C94848",
"9 	c #F99090",
"0 	c #FF8D8D",
"a 	c #FF8484",
"b 	c #FF7474",
"c 	c #FF6666",
"d 	c #F96464",
"e 	c #B93232",
"f 	c #E16325",
"g 	c #F7CC0C",
"h 	c #FFF400",
"i 	c #FFE500",
"j 	c #FFC800",
"k 	c #FFBA00",
"l 	c #FFA700",
"m 	c #FF9F00",
"n 	c #E65B00",
"o 	c #A00101",
"p 	c #F21F1F",
"q 	c #FF8F8F",
"r 	c #FF7D7D",
"s 	c #FF6C6C",
"t 	c #F14A4A",
"u 	c #CE1111",
"v 	c #5F0101",
"w 	c #E56D19",
"x 	c #FFED00",
"y 	c #FFE600",
"z 	c #FFD700",
"A 	c #FFC900",
"B 	c #FFAC00",
"C 	c #FFA500",
"D 	c #FF8800",
"E 	c #F05B00",
"F 	c #9D0000",
"G 	c #F20000",
"H 	c #FF0606",
"I 	c #FF4646",
"J 	c #FF8080",
"K 	c #FF6D6D",
"L 	c #FC6262",
"M 	c #E42E2E",
"N 	c #D00303",
"O 	c #B11406",
"P 	c #2B6A1D",
"Q 	c #867817",
"R 	c #F4A401",
"S 	c #FFAE00",
"T 	c #FFD200",
"U 	c #FFD800",
"V 	c #FFBB00",
"W 	c #FFAD00",
"X 	c #FF9C00",
"Y 	c #FF7800",
"Z 	c #FF6D00",
"` 	c #EE5600",
" .	c #9A0000",
"..	c #F10000",
"+.	c #FF0000",
"@.	c #FF1C1C",
"#.	c #FF6262",
"$.	c #FF7575",
"%.	c #F35555",
"&.	c #D81515",
"*.	c #CD0401",
"=.	c #873911",
"-.	c #45A636",
";.	c #74DE48",
">.	c #4DBC33",
",.	c #4F8A12",
"'.	c #CC9802",
").	c #FEA700",
"!.	c #FF8F00",
"~.	c #FF6F00",
"{.	c #EB5300",
"].	c #970000",
"^.	c #FF0707",
"/.	c #EF2A2A",
"(.	c #D20707",
"_.	c #BC1004",
":.	c #5B6A25",
"<.	c #67D555",
"[.	c #8CF35A",
"}.	c #80E64D",
"|.	c #71D73E",
"1.	c #5CC430",
"2.	c #399317",
"3.	c #8F8501",
"4.	c #F6A400",
"5.	c #FF8600",
"6.	c #FF6C00",
"7.	c #E95100",
"8.	c #930000",
"9.	c #F00000",
"0.	c #E90100",
"a.	c #922D0D",
"b.	c #539F4F",
"c.	c #9DEF8B",
"d.	c #9FFE72",
"e.	c #8EF45B",
"f.	c #72D83E",
"g.	c #67CD34",
"h.	c #65CB33",
"i.	c #47AA23",
"j.	c #507509",
"k.	c #D89701",
"l.	c #FF7700",
"m.	c #FF6E00",
"n.	c #E64E00",
"o.	c #AB0000",
"p.	c #ED0000",
"q.	c #B5260B",
"r.	c #57C366",
"s.	c #C6FCC1",
"t.	c #B4FF9C",
"u.	c #9FFE73",
"v.	c #8FF55C",
"w.	c #81E74E",
"x.	c #72D93F",
"y.	c #66CC33",
"z.	c #67CD33",
"A.	c #4FBB30",
"B.	c #366813",
"C.	c #F06E01",
"D.	c #FE6C00",
"E.	c #EB5100",
"F.	c #B01E00",
"G.	c #8D0000",
"H.	c #CE0000",
"I.	c #FC0000",
"J.	c #AB2B0D",
"K.	c #46BD32",
"L.	c #89DE66",
"M.	c #ADF993",
"N.	c #A1FF76",
"O.	c #90F65D",
"P.	c #82E84F",
"Q.	c #73D940",
"R.	c #68CE35",
"S.	c #65CC33",
"T.	c #41B933",
"U.	c #0A9C33",
"V.	c #2A661A",
"W.	c #ED6D01",
"X.	c #FA6500",
"Y.	c #D83C00",
"Z.	c #A60000",
"`.	c #EF0000",
" +	c #AB290A",
".+	c #44BB2F",
"++	c #66CC32",
"@+	c #6FD23F",
"#+	c #8EEF60",
"$+	c #91F75E",
"%+	c #83E950",
"&+	c #74DA41",
"*+	c #5FCA35",
"=+	c #26AB33",
"-+	c #029933",
";+	c #009833",
">+	c #2A641D",
",+	c #F15700",
"'+	c #BE2A00",
")+	c #7E0000",
"!+	c #832809",
"~+	c #45B92D",
"{+	c #76DC43",
"]+	c #53C83E",
"^+	c #0E9F34",
"/+	c #009933",
"(+	c #275820",
"_+	c #D14101",
":+	c #9A1B00",
"<+	c #47B52A",
"[+	c #55C535",
"}+	c #019833",
"|+	c #074E26",
"1+	c #40AC25",
"2+	c #4FC133",
"3+	c #009333",
"4+	c #00452A",
"5+	c #0D790B",
"6+	c #389F1D",
"7+	c #009A33",
"8+	c #008732",
"9+	c #00472C",
"0+	c #1D7C15",
"a+	c #56B92D",
"b+	c #66CD33",
"c+	c #009633",
"d+	c #006C2F",
"e+	c #002F25",
"f+	c #0E6017",
"g+	c #3C9729",
"h+	c #4CBD32",
"i+	c #008831",
"j+	c #005229",
"k+	c #146228",
"l+	c #003C22",
"                                                        ",
"                                                        ",
"                                                        ",
"                                                        ",
"                                                        ",
"                                                        ",
"              . + @                   # $ % &           ",
"          * = - ; > , '             ) ! ~ { ] ^         ",
"        / ( _ : ; < [ } |         1 2 3 ~ { 4 5 6 7     ",
"      8 9 0 a : b < c c d e   f g h i 3 j k 4 l 5 m n   ",
"    o p b q a r b s c [ t u v w ~ x y z A k B l C D E   ",
"    F G H I J r b K L M N O P Q R S T U A V W X Y Z `   ",
"     ...+.+.@.#.$.%.&.*.=.-.;.>.,.'.).{ ~ k !.~.Z Z {.  ",
"    ]...+.+.+.^./.(._.:.<.[.}.|.1.2.3.4.B 5.6.Z Z Z 7.  ",
"    8.9.+.+.+.+.0.a.b.c.d.e.}.f.g.h.i.j.k.l.Z Z Z m.n.  ",
"      o.p.+.+.+.q.r.s.t.u.v.w.x.g.y.z.A.B.C.Z Z D.E.F.  ",
"        G.H.I.+.J.K.L.M.N.O.P.Q.R.S.T.U.V.W.Z X.Y.      ",
"            Z.`. +.+++@+#+$+%+&+*+=+-+;+>+W.,+'+        ",
"              )+!+~+y.y.g.{+w.]+^+/+/+;+(+_+:+          ",
"                  <+y.y.y.y.[+}+/+/+/+;+|+              ",
"                  1+g.y.y.y.2+;+/+/+/+3+4+              ",
"                  5+6+y.y.y.2+;+/+7+8+9+                ",
"                      0+a+b+2+;+c+d+e+                  ",
"                        f+g+h+i+j+                      ",
"                            k+l+                        ",
"                                                        ",
"                                                        ",
"                                                        "};
