/* XPM */
static char * new_playlist_pix_xpm[] = {
"28 28 204 2",
"  	c None",
". 	c #1248BA",
"+ 	c #164FC1",
"@ 	c #1850C1",
"# 	c #1A53C1",
"$ 	c #1C56C3",
"% 	c #1D58C4",
"& 	c #1E5BC5",
"* 	c #1F5DC6",
"= 	c #215FC7",
"- 	c #2261C7",
"; 	c #2463C9",
"> 	c #2565C9",
", 	c #2667CA",
"' 	c #2769CB",
") 	c #286BCB",
"! 	c #2A6DCC",
"~ 	c #2B6FCE",
"{ 	c #2D71CE",
"] 	c #236BCA",
"^ 	c #3678E8",
"/ 	c #5E98F5",
"( 	c #669CF4",
"_ 	c #5194FA",
": 	c #5498FB",
"< 	c #5A9CFB",
"[ 	c #5E9FFB",
"} 	c #60A2FB",
"| 	c #66A5FB",
"1 	c #69A8FB",
"2 	c #6DACFB",
"3 	c #72AEFB",
"4 	c #75B2FB",
"5 	c #79B4FB",
"6 	c #7EB8FB",
"7 	c #81BBFC",
"8 	c #84BEFC",
"9 	c #8AC2FC",
"0 	c #69A6EA",
"a 	c #3A7CEA",
"b 	c #D2B149",
"c 	c #FFBC0D",
"d 	c #B2AD83",
"e 	c #5B9CFE",
"f 	c #5C9EFF",
"g 	c #60A1FF",
"h 	c #62A4FF",
"i 	c #68A7FF",
"j 	c #6CAAFF",
"k 	c #6FAEFF",
"l 	c #74B0FF",
"m 	c #78B4FF",
"n 	c #7BB6FF",
"o 	c #80BAFF",
"p 	c #84BDFF",
"q 	c #87C0FF",
"r 	c #8DC4FF",
"s 	c #6BA8ED",
"t 	c #B2AE82",
"u 	c #5C9CFD",
"v 	c #3377EB",
"w 	c #CFAF49",
"x 	c #A6A886",
"y 	c #5296FE",
"z 	c #579BFE",
"A 	c #5A9EFE",
"B 	c #5EA0FE",
"C 	c #63A4FE",
"D 	c #66A7FE",
"E 	c #6AAAFE",
"F 	c #6FAEFE",
"G 	c #72B0FE",
"H 	c #77B4FE",
"I 	c #7CB6FE",
"J 	c #7FBAFE",
"K 	c #82BCFE",
"L 	c #82BDFE",
"M 	c #63A3ED",
"N 	c #5895F9",
"O 	c #629AF6",
"P 	c #5A98FA",
"Q 	c #3E6CC8",
"R 	c #4F7ACF",
"S 	c #507ACF",
"T 	c #527CCE",
"U 	c #547DCE",
"V 	c #557ECE",
"W 	c #5680CE",
"X 	c #5881CE",
"Y 	c #5981CE",
"Z 	c #5A82CE",
"` 	c #5C83CE",
" .	c #5D84CE",
"..	c #5E86CE",
"+.	c #6087CE",
"@.	c #6187CE",
"#.	c #6288CE",
"$.	c #6489CE",
"%.	c #4C7CCA",
"&.	c #8E5F80",
"*.	c #B18FA8",
"=.	c #EB9527",
"-.	c #5679BB",
";.	c #984F42",
">.	c #4B0E51",
",.	c #A37B8F",
"'.	c #F4C44A",
").	c #4C0F51",
"!.	c #A05643",
"~.	c #5D7CAE",
"{.	c #B7C3A6",
"].	c #8A403E",
"^.	c #FFFF39",
"/.	c #EDA71F",
"(.	c #945D87",
"_.	c #8E7095",
":.	c #F3C048",
"<.	c #8C413A",
"[.	c #4D547F",
"}.	c #E68A22",
"|.	c #FFFF44",
"1.	c #EEAF32",
"2.	c #9E1F28",
"3.	c #F1C352",
"4.	c #515676",
"5.	c #46486F",
"6.	c #D58226",
"7.	c #FFFF56",
"8.	c #ECA029",
"9.	c #F5CA52",
"0.	c #D68226",
"a.	c #54536F",
"b.	c #5596F7",
"c.	c #7165A3",
"d.	c #885D8F",
"e.	c #5A496D",
"f.	c #870B15",
"g.	c #E68624",
"h.	c #FFFF5F",
"i.	c #FFF86F",
"j.	c #880B15",
"k.	c #67536D",
"l.	c #8B5F86",
"m.	c #5A4368",
"n.	c #FEC624",
"o.	c #FFEF23",
"p.	c #FFE92F",
"q.	c #FFE539",
"r.	c #F8DB40",
"s.	c #FFF65C",
"t.	c #FFFF7A",
"u.	c #600B07",
"v.	c #490605",
"w.	c #E9921E",
"x.	c #F4BA20",
"y.	c #F0B326",
"z.	c #E6AD2E",
"A.	c #EEB232",
"B.	c #FFF65B",
"C.	c #80000C",
"D.	c #EEA431",
"E.	c #FFFD5B",
"F.	c #FFEE65",
"G.	c #432F59",
"H.	c #EFB231",
"I.	c #FFFF55",
"J.	c #DE6F1B",
"K.	c #F1C250",
"L.	c #49375C",
"M.	c #5E5B84",
"N.	c #FBBD2C",
"O.	c #FFFF45",
"P.	c #CC7828",
"Q.	c #6B2638",
"R.	c #F5C854",
"S.	c #6D2938",
"T.	c #CD7828",
"U.	c #635D7B",
"V.	c #833E3D",
"W.	c #FFEA36",
"X.	c #DB7E24",
"Y.	c #5D7EBA",
"Z.	c #576694",
"`.	c #FDCA54",
" +	c #5E6B94",
".+	c #6D89BA",
"++	c #DC7E24",
"@+	c #853F39",
"#+	c #4C73B4",
"$+	c #694560",
"%+	c #5B7CBA",
"&+	c #5A5B85",
"*+	c #FFD459",
"=+	c #606185",
"-+	c #6F8CBA",
";+	c #775060",
">+	c #5276A7",
",+	c #536A9B",
"'+	c #E17F2A",
")+	c #5B6F9B",
"!+	c #68A3EE",
"~+	c #52628E",
"{+	c #55648E",
"]+	c #74AAEE",
"                                                        ",
"                                                        ",
"          . + @ # $ % & * = - ; > , ' ) ! ~ { ]         ",
"          ^ / ( _ : < [ } | 1 2 3 4 5 6 7 8 9 0         ",
"          a b c d e f g h i j k l m n o p q r s         ",
"          a b c t u f g h i j k l m n o p q r s         ",
"          v w c x y z A B C D E F G H I J K L M         ",
"          v N O P y z A B C D E F G H I J K L M         ",
"          Q R S T U V W X Y Z `  ...+.@.#.$.@.%.        ",
"                                                        ",
"                                  &.&.                  ",
"          . + @ # $ % & * = - ; *.=.=.*.! ~ { ]         ",
"          ^ / ( _ : < [ -.;.>.2 ,.'.'.,.7 ).!.~.        ",
"          a {.c d e f g ].^./.(._.:.:._.(./.^.<.        ",
"          a b c t u f g [.}.|.1.2.3.3.2.1.|.}.4.        ",
"          v w c x y z A B 5.6.7.8.9.9.8.7.0.a.M         ",
"          v N O P y b.c.d.e.f.g.h.i.i.h.g.j.k.l.        ",
"          Q R S T U m.n.o.p.q.r.s.t.t.s.r.q.p.o.n.u.    ",
"                    v.w.x.y.z.A.B.t.t.B.A.z.y.x.w.v.    ",
"                            C.D.E.F.F.E.D.C.            ",
"          . + @ # $ % & * G.H.I.J.K.K.J.I.H.L.]         ",
"          ^ / ( _ : < [ M.N.O.P.Q.R.R.S.T.O.N.U.        ",
"          a {.c d e f g V.W.X.Y.Z.`.`. +.+++W.@+        ",
"          a b c t u f g #+$+%+k &+*+*+=+p -+;+>+        ",
"          v w c x y z A B C D E ,+'+'+)+J K L M         ",
"          v N O P y z A B C D E !+~+{+]+J K L M         ",
"          Q R S T U V W X Y Z `  ...+.@.#.$.@.%.        ",
"                                                        "};
