/* XPM */
static const char * const track_pix[] = {
/* width height num_colors chars_per_pixel */
"    16    16        3            1",
/* colors */
". c #000000",
"# c None",
"a c #ffffff",
/* pixels */
"#####a##########",
"####a.a#########",
"####a..a##a#####",
"####a...aa.a####",
"####a....a..a###",
"####a.a..a...a##",
"####a.aa.a....a#",
"####a.aa.a.a..a#",
"###aa.a.aa.aa.a#",
"##a...aa#a.aa.a#",
"#a....a#aa.a.a##",
"#a....aa...aa###",
"#a...aa....a####",
"##aaa#a....a####",
"######a...a#####",
"#######aaa######"
};
