/* XPM */
static char * track_pix_xpm[] = {
"28 28 283 2",
"  	c None",
". 	c #7A7A7A",
"+ 	c #9D9D9D",
"@ 	c #A7A7A7",
"# 	c #A6A6A6",
"$ 	c #A5A5A5",
"% 	c #8E8E8E",
"& 	c #AEAEAE",
"* 	c #F9F9F9",
"= 	c #FFFFFF",
"- 	c #FEFEFE",
"; 	c #FDFDFD",
"> 	c #FBFBFB",
", 	c #FAFAFA",
"' 	c #F8F8F8",
") 	c #F7F7F7",
"! 	c #F6F6F6",
"~ 	c #F5F5F5",
"{ 	c #E5E5E5",
"] 	c #797979",
"^ 	c #B6B6B6",
"/ 	c #E7EAEB",
"( 	c #EEEFF0",
"_ 	c #F4F4F4",
": 	c #F3F3F3",
"< 	c #F2F2F2",
"[ 	c #F1F1F1",
"} 	c #F0F0F0",
"| 	c #EFEFEF",
"1 	c #ECECEC",
"2 	c #7D7D7D",
"3 	c #B5B5B5",
"4 	c #FCFCFC",
"5 	c #F6F5F6",
"6 	c #89A89D",
"7 	c #7D9C92",
"8 	c #EFF0F1",
"9 	c #EEEEEE",
"0 	c #EAEAEA",
"a 	c #7B7B7B",
"b 	c #B4B4B4",
"c 	c #F9F8F8",
"d 	c #F9F7FA",
"e 	c #80AD93",
"f 	c #24873B",
"g 	c #85A397",
"h 	c #FCFAFC",
"i 	c #F6F5F5",
"j 	c #EDEDED",
"k 	c #E9E9E9",
"l 	c #B3B3B3",
"m 	c #AAC2B8",
"n 	c #64BF72",
"o 	c #49A55D",
"p 	c #7E9C92",
"q 	c #F4F1F5",
"r 	c #F8F6F7",
"s 	c #FAF9F9",
"t 	c #D6DBDC",
"u 	c #60AA73",
"v 	c #C3F3C2",
"w 	c #59B867",
"x 	c #56906A",
"y 	c #C4CECC",
"z 	c #E7E7E7",
"A 	c #777777",
"B 	c #B1B1B1",
"C 	c #F2EFF3",
"D 	c #67A37A",
"E 	c #83E789",
"F 	c #A9EFAA",
"G 	c #71D778",
"H 	c #4B9E5C",
"I 	c #93B49F",
"J 	c #DEE1E1",
"K 	c #EBEBEB",
"L 	c #767676",
"M 	c #B0B0B0",
"N 	c #FBF8FA",
"O 	c #92B3A0",
"P 	c #37C146",
"Q 	c #37A449",
"R 	c #6BCA73",
"S 	c #61D269",
"T 	c #42B151",
"U 	c #73A983",
"V 	c #D5DBD9",
"W 	c #EDECED",
"X 	c #E6E6E6",
"Y 	c #757575",
"Z 	c #AFAFAF",
"` 	c #F8F7F8",
" .	c #C1CBC9",
"..	c #30AE42",
"+.	c #1D7F34",
"@.	c #6A9478",
"#.	c #62AC6E",
"$.	c #43B84F",
"%.	c #28A83A",
"&.	c #75A583",
"*.	c #E5E5E6",
"=.	c #E8E8E8",
"-.	c #737373",
";.	c #F4F3F3",
">.	c #E6E4E8",
",.	c #44A155",
"'.	c #1EA231",
").	c #A1ACA9",
"!.	c #D0D8D4",
"~.	c #8FB599",
"{.	c #34A546",
"].	c #1C8630",
"^.	c #B7C3BC",
"/.	c #EEECED",
"(.	c #727272",
"_.	c #F8F3F7",
":.	c #6EA37D",
"<.	c #0DAE1F",
"[.	c #769A82",
"}.	c #F2EEF1",
"|.	c #EAE9EB",
"1.	c #9CBCA5",
"2.	c #1D7A27",
"3.	c #789882",
"4.	c #F2EEF0",
"5.	c #E4E4E4",
"6.	c #707070",
"7.	c #ACACAC",
"8.	c #F8F5F7",
"9.	c #A7B9AF",
"0.	c #03A917",
"a.	c #499358",
"b.	c #DFDCDF",
"c.	c #F0EEEF",
"d.	c #498359",
"e.	c #547E61",
"f.	c #EFEBEE",
"g.	c #E3E3E3",
"h.	c #6F6F6F",
"i.	c #ABABAB",
"j.	c #F0EFEF",
"k.	c #F3F1F2",
"l.	c #DDDCDF",
"m.	c #139A25",
"n.	c #269D31",
"o.	c #BBC1BF",
"p.	c #EFEDEE",
"q.	c #ECEBEB",
"r.	c #D3D8D5",
"s.	c #C5C9C6",
"t.	c #E2E2E2",
"u.	c #6E6E6E",
"v.	c #AAAAAA",
"w.	c #F1F0F1",
"x.	c #ECEBEC",
"y.	c #F0E9F0",
"z.	c #3F984C",
"A.	c #16A419",
"B.	c #91AB98",
"C.	c #EDEAEC",
"D.	c #EBEAEA",
"E.	c #EBEAEB",
"F.	c #E1E1E1",
"G.	c #6D6D6D",
"H.	c #EAEBEA",
"I.	c #C1D2C4",
"J.	c #95BD9B",
"K.	c #80B688",
"L.	c #86BC8E",
"M.	c #418F4D",
"N.	c #08A211",
"O.	c #669F6F",
"P.	c #E2E0E2",
"Q.	c #6B6B6B",
"R.	c #A8A8A8",
"S.	c #E7E9E7",
"T.	c #56AC5F",
"U.	c #5DC166",
"V.	c #59CA61",
"W.	c #28C732",
"X.	c #07B312",
"Y.	c #01B610",
"Z.	c #429B4B",
"`.	c #CDCFCE",
" +	c #E9E8E9",
".+	c #E0E0E0",
"++	c #6A6A6A",
"@+	c #F0EFF0",
"#+	c #A6C6A9",
"$+	c #2CA935",
"%+	c #4ADC4F",
"&+	c #6EF06D",
"*+	c #5DEF5C",
"=+	c #29EA2D",
"-+	c #00E60A",
";+	c #00D90C",
">+	c #27A02F",
",+	c #ACBBAF",
"'+	c #E9E7E9",
")+	c #DFDFDF",
"!+	c #696969",
"~+	c #E8EAE8",
"{+	c #52A45B",
"]+	c #07C112",
"^+	c #18E022",
"/+	c #19DF20",
"(+	c #0FDB19",
"_+	c #06D715",
":+	c #00D814",
"<+	c #00D512",
"[+	c #12A720",
"}+	c #88AA8D",
"|+	c #E4E2E4",
"1+	c #DEDEDE",
"2+	c #676767",
"3+	c #E2E5E2",
"4+	c #359A42",
"5+	c #00BB17",
"6+	c #01C41D",
"7+	c #01C31C",
"8+	c #00C31D",
"9+	c #00C31E",
"0+	c #00C11C",
"a+	c #139823",
"b+	c #89A68D",
"c+	c #E3E1E3",
"d+	c #666666",
"e+	c #EBEBEC",
"f+	c #79AE7C",
"g+	c #08941E",
"h+	c #00A829",
"i+	c #00A82A",
"j+	c #00A729",
"k+	c #079420",
"l+	c #48884E",
"m+	c #C3C7C3",
"n+	c #E5E4E5",
"o+	c #DDDDDD",
"p+	c #656565",
"q+	c #A4A4A4",
"r+	c #D6DED6",
"s+	c #63A269",
"t+	c #1D8B2F",
"u+	c #0C8E2B",
"v+	c #088E2B",
"w+	c #0D8C2A",
"x+	c #21842F",
"y+	c #5A8D5D",
"z+	c #BAC0BA",
"A+	c #DCDCDC",
"B+	c #636363",
"C+	c #A3A3A3",
"D+	c #DDE0DC",
"E+	c #A2BCA2",
"F+	c #73A377",
"G+	c #659C6B",
"H+	c #749F77",
"I+	c #A5B4A4",
"J+	c #D6D4D5",
"K+	c #E6E4E6",
"L+	c #DBDBDB",
"M+	c #626262",
"N+	c #EFEEEF",
"O+	c #F1EEF1",
"P+	c #EBE8EA",
"Q+	c #E6E4E5",
"R+	c #E8E6E8",
"S+	c #ECEAEC",
"T+	c #EAE9EA",
"U+	c #606060",
"V+	c #C8C8C8",
"W+	c #D5D5D5",
"X+	c #D4D4D4",
"Y+	c #D3D3D3",
"Z+	c #D1D2D1",
"`+	c #D0D0D0",
" @	c #CFCFCF",
".@	c #CECECE",
"+@	c #ADADAD",
"@@	c #414141",
"#@	c #3C3C3C",
"$@	c #3D3D3D",
"%@	c #2F2F2F",
"                                                        ",
"      . + @ # # # # # # # # # @ # # # # # # # $ %       ",
"      & * = - - - ; ; - ; > , , * ' ' ) ! ! ~ ! { ]     ",
"      ^ = - ; > > , * / ( ) ~ _ _ : < [ } | | | 1 2     ",
"      3 - ; 4 , , , 5 6 7 8 ! : : < [ [ } | 9 | 0 a     ",
"      b ; 4 > , * c d e f g h i < [ [ | | 9 j 9 k ]     ",
"      l 4 > , * ' ) > m n o p q r [ } | 9 j 1 j k ]     ",
"      l > , * ' ) ) s t u v w x y } } 9 j 1 1 1 z A     ",
"      B > * ' ) ) ~ ! C D E F G H I J 9 1 1 K K z L     ",
"      M , ' ) ) ~ ~ _ N O P Q R S T U V W K k 0 X Y     ",
"      Z * ) ) ~ _ _ : `  ...+.@.#.$.%.&.*.0 =.k { -.    ",
"      & ' ) ! _ _ : < ;.>.,.'.).!.~.{.].^./.=.k { (.    ",
"      & ' ! ~ _ : < < [ _.:.<.[.}.|.1.2.3.4.z =.5.6.    ",
"      7.) ~ _ : < < [ } 8.9.0.a.b.c.*.d.e.f.z z g.h.    ",
"      i.! _ : < < [ | j.k.l.m.n.o.p.q.r.s.z X X t.u.    ",
"      v.~ : < [ [ w.w.x.=.y.z.A.B.C.=.D.E.{ { { F.G.    ",
"      v.~ < < [ w.H.I.J.K.L.M.N.O.P.=.X X { g.5.F.Q.    ",
"      R._ [ [ } S.J.T.U.V.W.X.Y.Z.`. +{ { g.g.5..+++    ",
"      R.: [ } @+#+$+%+&+*+=+-+;+>+,+'+{ 5.g.t.g.)+!+    ",
"      @ : } | ~+{+]+^+/+(+_+:+<+[+}+|+5.g.t.F.t.1+2+    ",
"      # < | 9 3+4+5+6+7+8+8+9+0+a+b+c+5.t.F..+t.1+d+    ",
"      $ [ 9 j e+f+g+h+i+i+i+j+k+l+m+n+t.F..+.+.+o+p+    ",
"      q+} j 1 W r+s+t+u+v+w+x+y+z+|+g.F..+.+)+)+A+B+    ",
"      C+| 1 1 H.x.D+E+F+G+H+I+J+K+g.F..+.+)+o+1+L+M+    ",
"      C+: } } 9 j N+O+P+Q+R+S+T+z X { 5.g.t.F.g.)+U+    ",
"      . V+W+W+X+X+Y+Y+Y+Y+Y+Z+`+`+`+`+ @.@.@.@.@+@@@    ",
"        #@$@$@$@$@#@#@#@#@#@#@#@#@#@#@#@#@#@#@#@%@      ",
"                                                        "};
