#define noname_width 21
#define noname_height 21
static char noname_bits[] = {
 0x00,0x00,0x00,0x00,0x04,0x08,0x00,0x06,0x0c,0x00,0x07,0x0e,0x80,0x07,0x0f,
 0xc0,0x87,0x0f,0xe0,0xc7,0x0f,0xf0,0xe7,0x0f,0xf8,0xf7,0x0f,0xfc,0xff,0x0f,
 0xfe,0xff,0x0f,0xfc,0xff,0x0f,0xf8,0xf7,0x0f,0xf0,0xe7,0x0f,0xe0,0xc7,0x0f,
 0xc0,0x87,0x0f,0x80,0x07,0x0f,0x00,0x07,0x0e,0x00,0x06,0x0c,0x00,0x04,0x08,
 0x00,0x00,0x00};
