#define ent_width 21
#define ent_height 21
static unsigned char ent_bits[] = {
 0x00, 0x00, 0x00, 0x00, 0x00, 0x00, 0x00, 0x80, 0x03, 0x00, 0x80, 0x03,
 0x00, 0x80, 0x03, 0x00, 0x80, 0x03, 0x00, 0x80, 0x03, 0x00, 0x80, 0x03,
 0x00, 0x80, 0x03, 0x00, 0x80, 0x03, 0x00, 0x80, 0x03, 0x20, 0x80, 0x03,
 0x30, 0x80, 0x03, 0x38, 0x80, 0x03, 0xfc, 0xff, 0x03, 0xfe, 0xff, 0x03,
 0xfc, 0xff, 0x03, 0x38, 0x00, 0x00, 0x30, 0x00, 0x00, 0x20, 0x00, 0x00,
 0x00, 0x00, 0x00 } ;
