#define m_width 21
#define m_height 21
static unsigned char m_bits[] = {
 0x00, 0x00, 0x00, 0x00, 0x00, 0x00, 0x0c, 0x00, 0x06, 0x1c, 0x00, 0x07,
 0x3c, 0x80, 0x07, 0x6c, 0xc0, 0x06, 0xcc, 0x60, 0x06, 0x8c, 0x31, 0x06,
 0x0c, 0x1b, 0x06, 0x0c, 0x0e, 0x06, 0x0c, 0x04, 0x06, 0x0c, 0x00, 0x06,
 0x0c, 0x00, 0x06, 0x0c, 0x00, 0x06, 0x0c, 0x00, 0x06, 0x0c, 0x00, 0x06,
 0x0c, 0x00, 0x06, 0x0c, 0x00, 0x06, 0x0c, 0x00, 0x06, 0x00, 0x00, 0x00,
 0x00, 0x00, 0x00 } ;
