#define q_width 21
#define q_height 21
static unsigned char q_bits[] = {
 0x00, 0x00, 0x00, 0x00, 0x1f, 0x00, 0x80, 0x3f, 0x00, 0xc0, 0x60, 0x00,
 0x60, 0xc0, 0x00, 0x30, 0x80, 0x01, 0x18, 0x00, 0x03, 0x18, 0x00, 0x03,
 0x18, 0x00, 0x03, 0x18, 0x00, 0x03, 0x18, 0x00, 0x03, 0x18, 0x00, 0x03,
 0x18, 0x00, 0x03, 0x18, 0x00, 0x03, 0x30, 0x78, 0x01, 0x60, 0xc0, 0x01,
 0xc0, 0xc0, 0x01, 0x80, 0x7f, 0x03, 0x00, 0x3f, 0x0e, 0x00, 0x00, 0x00,
 0x00, 0x00, 0x00 } ;
